<mxfile host="65bd71144e">
    <diagram id="ki9XD8vHC40PJyxWGw-b" name="Page-1">
        <mxGraphModel dx="732" dy="609" grid="1" gridSize="10" guides="1" tooltips="1" connect="1" arrows="1" fold="1" page="1" pageScale="1" pageWidth="850" pageHeight="1100" math="0" shadow="0">
            <root>
                <mxCell id="0"/>
                <mxCell id="1" parent="0"/>
                <mxCell id="3" value="Awesome --&amp;gt; 7 Requests&amp;nbsp;" style="text;html=1;strokeColor=none;fillColor=none;align=center;verticalAlign=middle;whiteSpace=wrap;rounded=0;" vertex="1" parent="1">
                    <mxGeometry x="460" y="140" width="150" height="30" as="geometry"/>
                </mxCell>
                <mxCell id="4" value="" style="shape=image;verticalLabelPosition=bottom;labelBackgroundColor=#ffffff;verticalAlign=top;aspect=fixed;imageAspect=0;image=data:image/png,iVBORw0KGgoAAAANSUhEUgAAA4oAAAFMCAYAAACNo0J4AAAAAXNSR0IArs4c6QAAAARnQU1BAACxjwv8YQUAAAAJcEhZcwAAEnQAABJ0Ad5mH3gAAP+lSURBVHhe7P0JvGVbVd+Lz92ftvru1u37ewGVTq9IJ9ghoIBCUIOCGNSQPGL+MS//JGpM/OQl+ec9fVFjjDEiGDUSBWwQexAFg6AiYoPipbn3cpvqq0672//vO+Yae8+zzt6nqTp1blXd+Ts1aq01mzHHHHPOMcdYa+29KwMhZGRkZGRkZGRkZGRkZGQUqBbHjIyMjIyMjIyMjIyMjAzDlp4onjhxIpw9ezYsLCyETqcT8kPIjIyMjIyMjIyMjIyMKw+VSiU0Go0wNzcX9u3bFw4fPlzkbA8bBooEiA8++GBot9tFSkZGRkZGRkZGRkZGRsbVgmazGW644YZtB4wTA8VPfepT4dFHHy2uMjIyMjIyMjIyMjIyMq5WHD16NNxyyy3F1eYYGyiWg0SiUBjv378/TE1N2ePMjIyMjIyMjIyMjIyMjCsLhHcrKyvhzJkzFtOlb4duJ1hcFyjyuun9999fXIXwsY99LPzET/xE6Ha7RUpGRkZGRkZGRkZGRkbGlY56vR5e//rXh6c85SlFSgi33Xbbll5DXfetp3wm0UGQ+GM/9mM5SMzIyMjIyMjIyMjIyLjKQBxHPEdc50jjvY2wJlDkaaI/muQbTnmSmJGRkZGRkZGRkZGRkXH1griOjxMC4j3ivs2wJlDkJzAcH/rQh/KTxIyMjIyMjIyMjIyMjKscxHV8PtGRxn2TsCZQ5Cmi4yMf+UhxlpGRkZGRkZGRkZGRkXE1gy8mdaRx3ySsCRT5MX3HAw88UJxlZGRkZGRkZGRkZGRkXM3g1yscadw3CWsCxfQLUPNrpxkZGRkZGRkZGRkZGdcG0p84HPMLieuwJlDMyMjIyMjIyMjIyMjIyHhCBopbiaBTbLf85cbjKU96J+JKB3pyysjIyMjIyMjIyMjYOnYtUKxWq6HRaKyj8iPQsmPv5+VyXJeDlvJ1yidFuT7HcprX7ff7du7XfgTlsik8L4Xz2gwuhxNI24fG8U/h5VMeYFK9chnI23Kk7ZbzJsF5eT0wMzMT9u7da8dJPNLyIG3P+fl1OQ94WkoZGRkZGRkZGRkZGVvDrgSKOO/z8/PhpptuCrfddlu45ZZbwu23325HPlTpjjy/6bG0tGSfj+SawIrzWq0W6vW6BZuexjXp8CYNIvCkjAcSvV5vYoDQarWM4MNvilDWg1d4ra6uDus7D8p6Ou3QPkfSOELkAQ+CuYYfZemb8yQNeL4T1y4XdSDSXCfwBGk/U3IZIIB+4cU1+Vx7OZeDc3SQ9hPiQ6606+WdSPc8+HpfUngd+LheOSf9i7/4i8NrX/va8CVf8iVr+HMEnLv+kAlaXl4efuiWPHTkOnH9AP+QLjJ5fwDn5bSMjIyMjIyMjIyMjPGoyHEees4f/OAHi7MQ3vSmNxVnlw6c+uc+97kWIFx33XWW5kHA+fPnwwc+8IHwvve9L5w8edKCxTRoIAjgOgXXBFAeqKRp1CPN07keVx94fQ+SKAsRUJTl8DzSPejxcqQ7D4IZ50EZ0jinDmW5Rk7yXI7nPe95Fkh/4hOfCH/1V39l+YB6HgBRD1DH5fI0B9feNud+jf49H3LZvBz8aJNAtqxDl5F0l8sDNMq5HBzLoPyzn/3ssG/fPuvbX/zFX1jat33bt4VnPvOZ4c/+7M/Cf/yP/9FkccCHNgm+gbfPNeVcBmSnrF87XB7yAefA5ePo5xkZGRkZGRkZGRlPFBDrpfHefffdV5yNx9oI6jIBZ//gwYPh5ptvtuCDYOhv//Zvw8MPP2yBIwHkc57zHHP6Cago7w49aX4OkYfzT0BGMMC1l4G3BzGkeZDhwYLDAwnqeMDEOelpgAQP50OeB22UTcE18ng9rqlHHT8nj2CSJ17p0zLav+uuu8LTnvY0e+JKfXg5P8o5D4hzQN0ynCdHl5/zlJ8HUH50fq43ynFOOnIiM8Q1dVL+3lfg8nCdEk+OP+/zPi/ceOONdo0Mf/InfxLe9a532Q2CVCYAH9onDfnRj7cFAfiQ7nNlnBxpmqN8nZGRkZGRkZGRkZExHrvyRHF6ejq87GUvCy960YvChz/84fCOd7zDAiaeor34xS+2QILA8fu+7/ssSCB4PHbsmOV7cPLJT34yLC4u2mfbyPvzP/9zu6bM0aNH7QckeUJF2qFDh8L1119vwcKf/umfWvCTBgnwpM4NN9xg9bim3Yceeig88sgjFqA8+clPNl4PPvhgOHv2rPHiydidd94ZHn300XD69GkLVI4fPx727Nlj+fA4d+5c+MxnPmNtHj582Or4q6R8Jo86PDn99Kc/bT90+YxnPCN87dd+rZX9y7/8y/D7v//74SMf+YgFUPSTfhCocU15ZPzsZz9r/SkHPshwxx13WFDur2DyJA6+Z86csT7feuut9hSXJ3wrKysmk7fz8Y9/PFy4cCEcOHDAXguenZ01HrTL72qiC3RDQDs3N2fjSju0S/CPTug3II2nhq94xStsPMmnb4wH7aEz9HD//ffb68iMI7zoK23w9BW9oy/6wxxAB+iWeowZ/efmA2NIXcrwiio8qYsspHnZcTrLyMjIyMjIyMjIeCJgu08Ua98rFOcWhDje/e53F2eXDpx9Ai+CGAKG3/3d37Wg4sSJExb44ewTHPze7/2eBR8Ej6985SvDl3/5l4fP//zPD89//vMtqMHpf/rTnx7e+MY3WqBDUMMTK4JQyvNqI0ENAQrXPKXjqRWvVAIPEgjcXvCCF4Sv+Zqvsbae9axnGSEnARWByT/+x//YeBMgERgS2PAa5Xd+53caP9ohaHzNa14TvuIrvsL4feEXfqEFn/SLQIXP4MGfp6VO9IXACdnRwT/8h/8wfO7nfq4FigRr6OijH/2oBaDUffWrX2310ANPHgn8CIT8lVfvE/qDB5/9+6qv+qqhPOgLWZEHHuSjb9ogDVnQ89/7e3/PgjCCQ2T8+q//euOBLu+++24LttAFwTB6+9Iv/VLL96fBBPqnTp2ycQLokr4xBkeOHLG+IT+BInXQGXpmPsAPXfF6MkT7HJkbT3nKUyzf2yH4e+yxxywgpP7Xfd3XmZ6QhfF56lOfav0imGSc0A/zhsA1B4kZGRkZGRkZGRlPVLzhDW9YE+8Rt2yEXXn1FPA0CMJh99cZCdh4usTTKQIM8vi8Hg4/zv7/+B//I7z1rW81p5+nkQRRBDM8PSJ4Iaik/ud8zudYIEdgRzBAsEM6TwdpE/iTJQIqgheCC56wEVX/z//5P+2J5Qtf+MLwZV/2ZSYbT9cIbgm+CHp4MsiTT/gQqBD4EKASLP7qr/6qyUkd5EJW6lCWIAn64z/+4/DTP/3T9rSQJ2iUIeh5+9vfbvV4wvg7v/M7xgdZiPAJejj/oR/6ofCbv/mbpicCt3vuucf6BOgP7fAU8Ju+6ZvCF33RF9kTx7e97W3GG7zuda8znaJj9EfwRZDlekIexoKJQ8BMEEgg9mM/9mOmG8YFfdFfznkKyZNJ+vi///f/HvaLp6kO9P7Lv/zL4W/+5m9MHj6DynjST/rtr5QiE+dMVPry/ve/P/z3//7frQzB40033hR+/dd/Pbz5zW+2IBW9ID/9JUgkeIT/z/3cz4Vf+ZVfsafJf/fv/t3wpCc9yfh7MJ2DxIyMjIyMjIyMjIytY9cCRUBAQCD4L/7Fvwj/6l/9q/Bv/s2/sSdLPPnhc2s8ZSNQ+MEf/MHwlre8xZ4+8XSO4IJgiECCYISAhgCHIA4igKIcQZq9Trpvf+j3+vaEkYAjBTIQgBEkEcTwOiRPtd773vfaK5nUJwghsCO44DVLnroRgBB88HorT85II1ikDZ60ISOvw/J6JgEmwRTy8uSPp20EUwSCtEdgw+uSBJDUJ6BFBzy5pF1kJjAlECaQQi+/8Ru/Eb7/+78//MzP/Iy1QT8IfAnoOBL0EkR+6lOfss//Qb/9279t7RIw8RQR8DQSfdEvgmv0yNNLAj10Qjo8eRJLkEoQy6urBGm8jopsjAWv5f7RH/1R+Nmf/VkLYtEd6Q5kQh98DpWyBNeU96e7AP1SB+JJ6cc+9jF7LZngnbrUIe3nf/7nw2/91m/ZeNFv5OZVVYJaxp2yf/3Xf22Ejukf48gTSdqg/xkZGRkZGRkZGRkZW8euedA47AROPK0jiMKJ5wkd6QRHBCYEIQQYOPk8GeMVyq/8yq+0p1fUAbxGSQDjr2kSKJJGQEEgQ5BGAHZh4YIFgPCkDSdk4ItVCIo48hTxpS99qb2WSXBGOjLCj1dDCZzuvfdek4mncARUtEegQh9oHx7IyecNCdhIRwae0hEA8TorwR1PRgkq/fONtAUvAjMCSoJCAmGCMmQnyKL9l7zkJfY0jydp6MH75E/MOBJUIh/BFYE0ART1kRf+9I16BIq0w1NJnsCiR4Iv9I9MBFkExTyl/eqv/mrTDQE4afCnT7QJDwJbXgEm0EVm1zEECB4JDOkbMvCU2J/wpiBQpAx6QU/wJRgnQD5z9oxdo0N4MH7IABHQE3ATIKMjnoQyV+gD6YwRoH8uU0ZGRkZGRkZGRkbG5tjVQJEggSCPzyhCBE4ESgQCBAiUwennKeMXfMEXWHBCYEA9DzB4OsWTJQI0AjiCMoIvgk0CBwKcw0cOW1BCwETg6cELRFDFq6vwJUAhjcCQQOdP/vhP7MkmARYyEVQhAwEaQSVBH0/YCICoB2/SqAvoC0+1eM2SQMrlph3ao20CJ8jbhgfngCPXgC/94YkgfZ2dmbXXZdELnzuk7wB+yE6ABy/g9cmDkA3iHFl5mskTTl6Z5ckqTxTRFf1GZq/rfAmy0Af5PE11mQk6fUxc/jK8b05evgx4kueyIyeBI3J7OmW8T8D1yrXLSRpziqe2PFmFj/PMyMjIyMjIyMjIyNg6du1bT/0LSfjCGl6HxLn/+3//79tnzD70oQ9ZGk/BeB2VJ1084eIzbgRfPNXiCSOvh/JqIk/Dvvu7v9sCHAI6nr7xaiKvZhLsUIfXJf/Tf/pP64ITnsjxRTW8RsprinwGjzIERuk3ZxKo8ESTL3ohyONJHf349//+3xt/Ph9H4PZrv/ZrJhN14A0PghMCFv9SGZ6U8Z1BBDM89eSbQPliF16xRXbk4Rrd8Dk+2uP1Sg/+Dh86HJ76tKfaU8vz586Ht7/j7eE973mP5VEWIpj9ru/6Lgu4f+qnfsqeiBJEo8vv+EffET704Q/ZZynRF09A+bIfD9QJHn/gB37AgmHGnSed73znO03f6IZr+oVOeLLH7yDSHvOFV08JGgnYXF4HuqRvlGU8+ZwhZfkgLU9wee32R37kR4wfX+jD5x155ZgAjy/C4Yt4CPr4rCS6/df/+l/bU2Q+s8grysjMK7+/8Au/EP7wD//QAkuenDK3kJMnkj690VFGRkZGRkbGWuDb4C+kN50zMh4v4EPjB/JgCN86CVMydgD47mm8t9m3nu5aoPjyl7/cAisCnJ/4iZ+woIlXGr/jO77DAhGcf56g0S6fp8PxJ0jgFc7Xv/71FjjxRS8EEgQ0/FA7T8MILghqeAXy3/27fxfuuP0OO//lX/llCzT9CZSDgJBA6Ru+4RtsAvL5OoJKnq7xRTY8neRLYPjcG69l8g2rBCwEWHwTLDx5okhf+NIUApMf/dEftaeXBJ98YyevPv7Tf/pPLTDm2zsJxPhMJsEKr8a+6lWvsldKkZf2KMtrq7TJl9DwBI/giS+ZIYh+16+8K9x+x+32DagEbr/4i79oQR/8uKaPPCGkDk8e0TGBGTrmldUn3fsk092v/8avm+x8JpGAF90SUNInePI65z/7Z//MgnICWD4PyfTgi2wIOJGPwO4f/IN/YMEf7fzkT/6kBZEEaeXFjFwEivDjySj8+DKdb/zGbzQ98JnFH//xH7dvXOU1ZPpKkIuR+Ef/6B9Z8EhAyHxh3AiEebWUMWOuMHfgwzVBNvogmOapMnVIJ7jF4OQNMCMjIyMjYy3Yp9mj8YnwOdhrQbqf+96Z99CM3QAPMHiQQFyAb4d/eSko+6ZPdGw3UNy1n8cgkOFpEE+A/BVGAjW+FIbAkGCRn2zgKRDBAEEXwRMBHGnwIKDjFUjqErzxmTleBSWg5LN9fI7w+HXHw6c+/SlL4ylg2bAxYXjCR3sEa7zqSjsEKgRRKI824MfTSf+CHOrwpSroCB5MXIh8ZOWVUJ50cgeEL5JBLp4SEmzy5JOAh8CN12Mpx2foeEUVvtzJI3iDD3UIkgmuCYgJyJ75+c8M933BfWbQCYx5bRfd+eIhnYCRYJb20B/6IWjkNdX3vPc99nSQII0+UZc+k0cAx5NVnsD5mPD0Dn3Agw2E/hN884U69B+d8UourxET7IFxGwhplEMm9OQ//UHQSZDKE02+sMh/QoO5wWcqCfhoF13xCqnPF765Fb2Rxqu59Ie5A29eVUYudIb+oPSzk+honIwZGRkZGRlPVOBzcFObL4fjc/34KRABI8QNZD/HD8uU6XITDx/w9fCN8ZMvNVDMWIvt/jzGrgSKgCc7PFkjgOIVU54aEdwQROHwE7AQjBA48UUmlIFII+gjwOAOA8EFgRrBI7wI6qgPP4I7ggiCD4IY0ihLgOAECJYIjODFkfbgRTBHUIIMyIbMBE7wIoChjH9rJ69QUpcngsji39DpPJCFoBGd0rc0wCQgpV98VpCnXfAkyKMf8KMteLsO4E8Q9Qd/8Af21A09Ih+gTwRWHKmDHPQLvVKOOiw0eNMOOiFogieBN/yQA8CHejzRJMhCfv9CHPjQf+SFkIf6yF3Wr4NreMCL9iHXDeNEfWREz/Tbf4sRGWmDaz7zSX8AY4EMPNmkns8VjvT9wQceDO//wPvtaSptUR7QXygjIyMjIyNjBG7gcrOWm/n4AGDSnp6RsRvAXyNgxM/ljTd8Z9I4Zlw6thso7sqrpwCDw0Bz9CARo+R3CtwgcSeLc17f5Kkfzj7BBoGZi8oRHpTjnKNPKuDHSa9Eck0Znpzx6ijlCJwIYOCLXJShTTecgHPSKIOc9IegkyeTXBMAEmi5LAQ71OFOnLdJXeo5cQ2oTz3SkMXruYzogaCIoIoyHCnDOUd0AH/6S3kIEOh5WYAcnHu7DpeHsvDgLiKTB57ohSCTc68PKEeay+FjmML1iY5dR4Cy5Hm+84A/euOcPI7eHnXQP216W5T3O0+kE0CSRj71vJ2MjIyMjIyMteBNHb7hnCM+iO+fGRmPJ/DbuOH/zd/8zeYTetrFgDmdMcJ2Xz3dlUDRHf40mHBjxJF8v/ZgAXhZghbKECR4YMnR+UEYOIh0gjfKE5wk3RuCgAIQiBG8EBx5EARcDifyvD3g/QFMYOdDPXhQnjLUIY08iDzKc+QaHvTJy3BEFo4eOHHO0WXzdj1g9T56Pcjl49zlSwMx6noQ5UeCcT934poAlXNvl77xWqzrjDzg7aWgLXQAH8YGuVzPlHd5gNelDGnUceOA/AAePgdcJvhRFvL24IE+qUcZ13lGRkZGRkbGCHyPAoEir566H4I/wE1dfysnI+NywX0//Ds+gsW1p/HU67Wvfa09rAD4c2V42Y2Q/b+1uCIDRYDzDhhoH9hxg1cedC/D0WnSxNjKJCrzK4Py5Trp9aQ6ZXgQ5XkcPQhK01OMSyu3V5Z7XJ/LcN2PwzhZ0utx/R2HjWQfl7cZ0napn15zDk3q+0ayZGRkZGRkZEQ873nPCy9/2cstUKzW4p7Kt8jzbe58JwL+w8Xs4RkZWwEBIjcoCBL5ZnzeJPT55oEiHy3C39uKv5v9v82x3UBxc63vMDA6TheDx8NgXcwkY0Knsnpws5O4XLrYKTmRbydkLMsDz60YjIyMjIyMjIzJGLdH+1s6aZ7v5xdDGRmTwFtgvPXFW2oO9/k4eqzg5yntlK+asTEeF2+bwc0DfOnIBjgjIyMjIyNjJ0GQyJMePr7hxHWmTDtN5RsSZWQ/9/FHfiyTkZGRkZGRkZFxWZCd/YxJYG44Ofx8XF7G7mPXAsWreaB3SvaN+FxO/WyX99U8VhkZGRkZGRkXD17r43sWdpLKrw1mygTltwuvfOxqoOgfRnXaCjxoGVe/TFvBZvw8H3CeXgNPS2kcxpWDttJGinI+5y7rVpHWKVOZd3oNPG0z2mmMa2OrlJGRkZGRkXFlgH15nP+RKVP22a587FqgmJGRkZGRkZGRkZGRkXF1IAeK1wQqIQwKuuKRyFom8q5K8OrEVmgcxuWldS6WUoxLy7jiseH6KOVtRpPW1jA/QVpvK5RxWZGu6jKl2Ch/XF5KGRlXF3Zm9lYGA6PdQiUvtk0x7gljfur4+CIHitcCzFljKKErfEGZrBPoqjSivllBfI0zlKY5jcO4/DTtUsgxLi3jyscm68POx5SZRGOHv1wOlNO2QDlYvGzwlQu5dSlbGJBel8kxLg/KyLi64DM3XQnbR0X1KuJhNIDX5YUHiTlYXAuCQKeNkIPFxw85ULxqMGmRkJ7QMBDL2H34ppV3gownEtzuZFxWFGouq3oji5OtUca1B5/VkAeL24Xq8DRRxyHlL1XJyBiLqyJQTO84bJfGYVy5cbTTuJQ2KhqqSiV+8JdqlYoMG+f8FbwulS47Bv7Us0wjcLftqrjjZn1JdZbekaQDXF/KXUqvfzF07WBc73aDriwwz8atT9LKa6lMF7uux/GaRIV8OVjcMZTtYB/1FueAa0CaE2kp+XBMKsN1RsbuwGbfFmj7s5K5bCjuoozWTXxSmAaAfdkrwsLdxfq+Rbkurr9bRaUvf1GU7XLGpYJdPuNqgS34cYuetMRhu5wgQFoXJG0HLmvK41L4XQmQsa/I6K+h7W4AbBoQ9TheCpxXyi+9zrh6wLpwKtbe8IbLVtaM190E5mTBu2gn48oCw1MiD/aMSnkpgfQ8I+Pqh2b9mH22YpN8/US3YmY3R4hPEXfntdOdAYsYG53tc8buIs+4qwS+0adOwTqYAfHMpMCwwiZpG4LyBX87n1S3yLN8B9dJXVHxsoeRI61xdcE3K44ejKVpm8HLQ8Wmxc52MbSmXSjdBD0tpYwrDekwDuxJv1MZSvO1Nom2BMqlJIzjVSKcMpM1wXAa7gpw9EbKimduV1yWmHexiDy9hfXYjf6aujkm55NQDM2ovKWO4PmGTXhljLBGn4US16Rl7Dg21K3P4QTDpOEE3w7Wt+TtT5ThInEx0tGnURAssoDR7e9OS5iRsRa7EihiUquDfqglxHX6QeLaoDekqmiYJ+K6NuiWyMtSPzoMkXcv1PvOi7q07e17+qguedTlWJbPeQOcj1C8nskPhO7mj4TSUl//QwNZBq69dRzJvqgn6lbjkeuRw+T5VctLqa+0zcphmyxP1BP/brVq1BORFusGlYW8Hjwm8fZy8UgeGP0fz6502Cj4vOkPNOc4au4MifkUyeffeFo794wPaTr6vE7b8HaoG++ExnPS6rRb8LF8y4v8Yt1YxtbHkIfPJLoTz8uvIfOjuDuNra0h8kV257gn6oo6CXGdprcTUpr6P6qb5nOuNPKtTMrX6xb5w7qrRV5KRRsFJulvUl/L6dSqFl028lWh85qaqfUryq/qWkSe0jlWtUhTqkFWNjoX1KdetV9V+oi4jvmUTfOKurRh/xd8k3zasLqUKeSNpSMm9XktWP/YiZq0WJM9qIVupT4krsmL+XWjXmgYcW6t0Tm109dcLkZTFNuOw0Ab4h2aBcW6sV1sGHmRJ/ndCtQYUg85rH2XYdQ+9SM26+d2IfnVAhSvJOtgpItIUX7rpHUUKsqJNFvsOvbf9YxzqXTL5zrWRfp+MlY+drvycYSrCGjIdDbUKfuadKc52Kv2RT1R16gvu2FjKPtj6bVO6IrS/L7yOHraMM/yfcdnDmw8v7a21raHMr90Lniezyrbt+RPOQ39K5M9zi+OG8H3GJYzFWgi+hdA7RR7WqR47fsjnGWKrGykWCuF5zm8nWIUIz+t7LQdbx0MJJ/V4byoZWeFLL7vpmQ8RFaO4qLYbqwNl1gWn7U7JPdv/UnngM5Ro7C58Rxe8KEd5I716oOOeHRko6MPDYoa65COsY9veS65bz6Ub+h/d0fyFbQZaONibEq5DvJdDJ+Mi8dlDxRZDFUtsma/HVq91TDdXQ1TomavbUYl2KRuh4byWr2lMNVbCa0BeR1NRE1I5Tf7qtdfES0npHLKa9ikZfseqH5b/FfEX/miptqp95jgcgE0yVtqB/7kN9Veo6e2exg31dd5sysZkU2EPCw4hTbWDzOJchqsR8Vi2myyen558aXwvHL+sK7+htuFrAznHA0qQqDYqVXDSr0aliTecr0SVhXQdZRupk4BXadeD6uNusroqHKRaqGtegR9AwI4lV2tqkxtVI58gkOoLVrW9VKtonaqOleajn3KSI62ZtKK0lZMllpY1Tk8kY+AsC0ifxk+8oZXVb6L/LoePjVxI1hgK/oDG+VvVtfhbW02pgB+bGwVBV8NTY/p7iDMtvt2nOpF8vOm8psq19Qcm9J8Yg0wv+Ic64YGa0NlplR+uguPSC2l1SQ2gUNDgz8tj2RGccm0EXN9tBk1NIdb3V6Y6vTCtKjVFV/NE1xZ+JM+2xFfiHKiaZVpqh3fEOlTT3wAOkh1T1830+HF6C9FuZ4k0p/KKBgbKCgbVFakjEUpZUF+7gUddV5dUboCOB1JD7XzonPxSNkqwZyCvNpKqNSVXycf0nllWXUJEOXQcV6F73mjUNG5+Bpv5QW1N6idVRnoXEEqa+VoI+rH9ccUHupPf6SP02E5LYZdqqc0kvlMMgFaU2M/1atq3OqaK3XZpbrSRfxJRQ3lt7QIh6SFNWXnEp0x1rGu+q1uU3NB1G6Glo4N41WV/VMb8BdNdyPBB95sEASFTQWSUYZ4bCqf4NXicAh5CzL5Gd+0b2PmBQ5Qr6fgsN+QvZqSXZgOSzou6bhcnQraEUK731QQMxW6YTq0w5zS5sNKZV7nMxawibGoLx7ME/EUEfQQOJJFUNWtzIj/HtmgfTruVb05zaxW6CpgakuPK2FWPPfIPu2V3dprx+W62qnNh1W13Rm0VGc6dFSOdju0D08CRuuW+mo06u84oIPN1gfzYSDZB9rXIpHYlD5bmi+RBpJnQNpAQavGr69OVxTUatQlhvL6U1amr3zyBlUCS+lKgTC8gvoki2S6QUnorKs90qX39bmZrI6tlgNe1nUR+7ux3hxeZ7sYV2czPuPbUhrrU2TzjP1Y1K31tBe2NWeWw3JjSXvtkq5XldfVXOloHyV9MSw3F8JyazG0m0vak1e0966GjmxXW+VXmotGq6J2Y1l77qr2zY5mVQw4U5Rlm2RfUqT2tqzzcfVIc54Q7fHj6GuuVa6peTOtfW1GvteM9rYZ+Vcz+Gbmw2EP8S/ijQ30Vob3JbZlCXY0cTVvqYN/RjstrfGGeEbSvifiJij7sEF1Jbnqx7kLDZvUkTEbQfWoK91yq6iusZIVEk/5iPITm4VfaVWQT/stctEP2zF1gV9L4NS0fR3fUr6tHVUf/1J8zI+1Gugrzh4Y1WTb6V1TfZnGbzUfN/q56LClc3xbIAtuhJ82BLJLPoJEZGjJMk71l+QjLIgWJcOKpatW0Wra+Ti2KUxXAunMJ67Nt5DO6c+0+EXC916SfCuST3srdcSbViYBXj5v/NrbS+eTp41DWh4wFzdCysvrZFw8at8rFOfhoYceKs5CePe7312cXRq4+8OEZ5LNyDlmUbQ0wbg/21eQ0G1rQiu4I/hrEijKcWvVmThysLQIKlpwc6LZgeqLWBAYoZYmdEtzRdPMDMBMsxamli/IESLYXJYDJOex29Gkx9GR0y6+sxiB7lKoqwwyDTCwMgBTtZqlNYfBZVvOlZxEFqLyuLPNXeWgQIrp15eDz0StKW8jkM8k7copZwFSp7wYSPdFS3k3xnUFa1ZXbQELqDgWS7IqPjUZUgK9drMRVlqNcEHGri29qmemP8VloaIAcXWqFVYacooU2HUlcseIftEHOYri3ZYulltNlWtYkNhVwEmbGDQCvhWdLyptkQBSvAhE0U1D1JX8y/IaV3S+qkCzLZm6ar8unnXx76juguRaVrtLSpd7H2XUX119oD9KNqPG8rfAEfnFbzv6I9/150evS71yXcr4EcJANtR/ylOX9t1oOki3jVnyNjTxZuSIz612w7yc54bKRacdZ1pHnr6od031f1oR3xTzXvOsrjlWI0gUj6ZKxGCzH2YUyE1pPhJY1sSrrwFkM5hS9/Yr7JvVVCCgbKoee8aAAZasrVUFgApUp9paOwoK7ebHjDirUENpzUW52ASfChAjaQMQn6o2XxzdgcYIDdJv5l2qK+9veu2EzkhP9efzFtpIfyBtZx1//rRmCfb6gyXJuBSqcqj6CgAJ7Kp1bVKKgPpspgoEBwoQBxYILigoJKgkCJSSNI8qctqqUwrqFOAFOW2h2jH+ONlEQwSefYK/ioI/AkytIlXUOcZD5Rvn5UKcUhl4qH0jyaRZLAZqJjrkPemzVtckpysiu7Gj8bOgpfgb9k/k8xLdgarkxZ3AJoF6s6W5EmT/NPailoIa/qoVkfRMuZrmzLzSp5l/mnMElQR5zD/mV1v2FTW2FDjM9KZkHxuysw05EXXZRUJNdU+tzuh6pl8L0wqepnSU72s3ctDhlPo3q1JTUnmrI/6qxy2zPvPHxhfZY7fBcHyVOHF8JZtmSFhZkRYlW6cxGxZrU7JhDdkXBWU82VOfesqv1+YsSFutKFA0IkgkUG5rjnfVbj90pEt0giDIhROIfewpeGo3DsmmHZLzvV/58zZeOJMrnU5YlF5XagfCSn1f6Df3hW5TAWVzTjQf+vWZsLIs+6EyFcnQU9srClxDa594NSw4rVe0V2hPsj7Z+I76mIK14PadcYd8fTi8ns1p9biv/a+vcQkKYrsK7Psat4GCak10KV+kOdde1dzW/tRszoZaQ4HtqnZWBYMafRQcOj05v40YGPYtwPQgkZFn7JiDWguyC7WaZoLGKQaqcf1Ogs9bjmk/fJxTuC5cB8DrdjQG5HO+lbquP9rD1kxql+uyfJQHbuc4gnJd6pHPkf0jyoAtiTKyahjtPk8R673Qa3QUHK6EhcoFzbMlu67Ih9EQal6uhiUFh8vTF7RHK4BsaK6oDrarJ3+kLVvWmVnR/CsCxEZb+dK/gg9bW9Yafke0EWVZ6YPryMG1k5dfWZGfVfSfPkHNZtP0cvPNN4d777k33HjjjbZmwf333x/+4i/+InzqU5+yMuyL8HK+rZZsk9omSJyTvzTDTXjtb1ptduS5O4Heam1aa6VlPGPAtHasnSfy1OsNrWf2fI2xqNmaknnWvqk2ZkVTrDfVb2i+NlWvgU5YA5qvtMU6UGWjhvwhndilgXbUukGJA+2/g4IfJrup/bkl+abwVSW/VrlkkH9aBLk9+ZI1+TZ9XXclE/Xj7SNZGNXhIQQPP5roigcQBInaH2rSZwch5DsyD00C1W/JJ0NH0yo3ozkyO5BvrHan8VE1cXj3gbFYqU6Z/jSL5UujQzhA0mURJE5pP5vXHjetIHFaQSIPSwjSsVGhLt2zDxa10AP2hZtp8PI14uPBWPhaqakfjOucZJsRTUEEpCJZP+O1UmlJR9gozVOxgE15fKF2W3ZSbXl7Dsada9Ln5+fDK17xCpuXjgsXLoR3vvOdsmurw7lOeeQbt/Y5dwKUx8YA2siIeMMb3rAm3rvhhhuKs/HQfsosjvjgBz9YnIXwpje9qTi7NHBX4oAium//Oy8LR6aaNoFZeG1tSgtyhP77W94cbr/+aHjFl70gdAn0Zma1GQ/CBTkrf/rxvw3veNvPhe/5h98eju6d0UTU4jbnS0GP4rjGzN7wK+99f/jYJz4Zvv1bviXME+xp0cm8a5GEcHqpG/7df/pv4Stf8tLwjKfcE2ZrMgKNalhelrM+NRve/d4/CB/9+CfDG771W+WQLclx6pi8OM89ApiZufBf/8f/DB+7/6HQ3HtIS7MemjVNvNUVM+JM8sXFxXDgwAEzAimYxExM8jHSBw8eXDOhAao/ceJEmJmZCdPT08bDF0Nad/8htW0GnMUdSYXChfOL4YJkePZLXhxe8pq/a0/peEWxJbs5r4X7qb/48/Bvvu/7wj/7f/6fcEATgddg0A2cplqz2j064Tff/o7wMY37d33vvw4L0zMWJPI6DAZosLQU/u3/5/8Mf+fvfF14xvOfH85IAzxZnGnN4IGG33nnO8Kff+APwvd87/fYk0x7QmlPXXnioABqZTX81x/+4dCUAfi6N/y9UJ2ZDksYDMk4q3Kf/atPhH/1T/9ZuPnokTDFxizd0zcmZE9GXLtGWJIM0CHpYJz+Tp48GaampkyHZf2ldceBMufOKXgQMFJuIAE8MG5nzpyxsfN0QF6vJ7qwGJ5z55PC133xlwQNVhjMaCORfjDovKLXlbz/94/9SHj6fc8MX/DMz5Px1wagPuHIriiA+4MP/0n48J/+efi213+bPe1rSnZNb809GWDp86wchl/59V9VcFgJr/7Sl4Q5nFMcq6lGWJmqho8/9kD4z//5P4d/+s3fHu44er2C1Dg32pqKi3PN8PZf+qVQX+mFb3zRy0NliTvc0q0RT3l5Al0JP/LOnwuPLC+EquYfgcr0tNaf5hyOAcb5/Pnzppuy7gE6IR+d79mzZ53+MNDob//+/cbPQR51lpeXbcz27t1rbaawp+Za74+c+Ex43etfGV761c+XzOflsMfNdyBH+bd+88Ph59/22+H7v/+7Q3NmQQO6pDraPAZqqz8d+u194cd//H+FhaVT4Tv/z7+jvVpOmhZ3v6eNt78vfPaBpfAd3/HPwz//nteHJz35etWVUbG1JQeltz+8+b+/PZy78Fj4J//fVyoAXNV6l+3CONgKUj97e8K//zc/ET7zyXOhpQADHU1rHqK3uvpF/8+ePRvmpRvcPW1fdG0I9IAOmIf79+0Pq9JBqyH3Q+20ta5xVFbOXAj/5Bu+NXzOzXdpbnDTBdsZ5JS2wy+96xfD0ulz4R+85nWhe0H2q4GzREvY3Rjo/b8/+aPhpjtvD1/6/C/Xhj8b5hozWhPLYbW3Gv74L/8kvP033hne+A++LRybO2DBoqYcktkbAv/3m380XH/bLeHLnv/CsEc6nZNsaiG0tTYX5UA8eO5E+IEf+cHQmJXTM22ula1e/leIExZXluU/qG8af8aX/o6A29jU+C6Hz/3854cnP+t54YRsxrKKzDHf5Jh9+mMfCx/93feGV7/y1aG153DoKJCMr6Ryg2UhfOBX3hwWH/vrMDuNzVL8pr2Dp7Dddif02rIf6supC5Xw+V/+d8Ohmz5Xl1NaIzyJWJStPxn+8MO/Hx48cS48/yWvkY06ovnLTSWR5h6vEjbltL337W8Ltxw+Er7wC58dLmiKrohnfWomNGqd8Nn7PxTe+4s/Fm46PKd5zDN8KU1j5mBtML/n5uZsXbhtAhxZL6dOnbL5jw3zdE0slV3ROK2Gm25+cviWb/2XYWFR6axBDSxrXD0WdcNb3vJfwnXXHQkvfekrpOs9mjMKCNVOX3vZX/7lHyv/R8J3ffe/DPNzCpQ7OL2aPLaW2+Fnf/a/KiD4mPSn9SC5p2X/uffU6bSHzhV9wLamzhvw/Ym5zvjSF+Z/2U5gXymb6gACtHH69Gmzz6l9dVAXftifsv6A64989s8Ubv9ZX+zPlCXN5eMa2zQ7OzvUvYM2KMf+Dn/kqymIQesMLzchuIl18sKJ8PRnPzV89de9NLQVBC72zoeunPaG7PRMbzZUzzbC//Uf/mP44ld9UXjaC58SetiunoJ62Z/GcjO879feHz744Q+FN/7zb1bcz00BbkfX5ZCrLxeq4Qe+74e0rqth79QBDfvIv0APrq/HHnvMbC/zrKx7n3+Mj+vOde/lH3300fCiF70ofN3XfV141rOeNeT73ve+N/zMz/xM+J3f+R3b/wB10Bv7InVXz5wMr3nxl4UXPv0p2ruYL2qDtaP9rS3/6eOPngv/6of/Rzhw/S2hKb+rqvXEqncsLCxIpwObX8g2o70nyMa1VxV4d+R/iMfKuZPhG170JeGF2j/xSfh4DcHaarcf3v/BD4W3v/s3wv6bbpZfId1qDUqJoSP5WIrnz58Tz6kwrfXKnseKAdzor+ELaa0/+uCnwpv+/hvC3bdcH6YlO2/n8CSRG1U/8+7fCe//2MdDa26v9gsFdZJvVfy19Ye6gqjTn/lE+Mff9s3h7puuDy3Jj/9i/NVOVb7uBz/yp+GtP/+OMHXkOtmsRmjUCXxxnXgLRkf17VVf+rzwZfc9TX1Df8ztvumvo8Dy/lNL4Xt++K1h7vAN8htaoap9wfwjyakdPCyceSzce8cN4TV/56VhtroS9mjoGvgHnUH4zImF8C9/6C1h5siNoa51HVdNrGsWWv1YXW3bWB45csTWMWPK/PDxRb5Xfslzwouf9XSNLzdPJTxvb2ietjUGnzm3Er7nh34qTB24Tvuf5JM+kc/B/GNcWT/w9TkI0Qa+G3OL9Ufa8ePHw0/91E+ZrXAQzLzuda+zfRSZWMOU5Zz1i11i/gDSgK9z7Av+NW34A4CMCGK9NN677777irPxiCvnMoKJw92f244eDHcfPxTuue6w6FC4+9ihcJfO9ykwOdSqhzuO7I9pOlqZ64+Emw7MhxkZIPKoY/UKuuvYwXDboX3hUKMS5KKGO3X95BuOhSeJ7rnxWLiX4/Ejco464cZ9c8bvnuOHw11HD1g7dxzeHw435aRq4iPHvTccVb0jWvQqd9PRcJfo5mMH5FjI6VjBseAxPu/dyyDIGQFMdu54jJuATGbSWYAQk7cMyrCZsSH5tZPXxcHizhKvoKFNB8ux1qiHjuq2ZAiuv+WWcPy228N1d98Vjtx9ezh0561hTgH4kuTed8uN4fDdd4zorjvCgdtvDYfuuj20Du0PXenh4B23FnSb6HY7HpCT2FYwMXPkUDis6yN33hGO3nOP6nG809J7GjvSD4sX/A6pbfhHuj1U5qZCfd98OHaP5JLDeuNdd4Yb7rhDDqj4H5N8MpoY3hT00nQgx9F1ME5/YCP9MT4b1QXkQ4By6ViyKeIMlccXl7+pDXWgDU3hVbhl/+Fwy56D4fY9mpeiu+c1z0R3yLmdkf0/OjOveX083HPwunDPXuXJaXvSoePhullt8J1euO3wsXDXoevCvfuPhycdOB7uleG994Dm8uHj4VBoiGrhycq/W/zuVn2Od8wfDDc2tT4Wu+HW2X3hnn2at3s1h0V3i55y6PpwnRzro9rw4PU52mw+Fzp0o+gGXV8fnnT0hlBd6YQ2/dcmV9U8Y2bRX3SIoaX/bnjLBHx8QKo/8tEfzgDHFORRlno4csDbXAOtzU5nNezbPxVuueNAuPXOveHOe/aEW+6cDbfetSccOjqtja8fbr7tcLj1jv3KnxfNFbQn3HbX3jC3txpm5ivh9nv2icdcuOPufUa33TUfrr95JnQGK+GGm+bCXU86INof7nqySEfKzO2rh5k91XDXvfuM5133yg49+YDoYLjnSdBRtd8Ny9IBsvs8K+sv1VcKyqO/qIOod0qRzhsDfTlLy+cWwrG9B2Tfbgz3HLkpPKmgew5rTdfnwr5+I9yx/1i4W+N97+Gbwr1HRcqH7jl6Y9irkOrIjPSm+nfp+raDmocq8zk33RFu0XysK/K5TXPhnmPiCx292egpx24O+8X7qObY3Wrrbs2d29XOLQdFR64Pt153Q7hR87Yqh62qBWx3u0VogPWBjWzLEWF9gvL4csbnllc0t3vTCpQO3RL2HH+KbMqTQ2P/3aF14O7Q2HuTgsO5MHfdrWH6mGzVkTtEd4bpI7eFWfV1ua9gRWuQu+PMXZwnC6BQoqjTHYQzCwrEZw6I/82hefjWUD98e2iIz8zxe0Jtz/Wh3zocpo7eGaoHbgn1Q8o7fKflNw/foTq3hX5jX6i09oeZg7eE+euforJPUbm7Q/3gHUFMwsKygveeWsU+m40egXHFBjnov+vB1wf6SddHnCs8OeOGAWH5dLjphrvCLTfdE26++d4R3QTdE6aamqczB8MN18umio4du1XHO8Nx6WvP/FHxaITrlHbTjXcq6LxTdXXU2N98823WzsoyN09Gcxe9cY4c2FX2Nw8ay6BvyO/9GTfHWePMcQdlXQ/w9fkxqe4k/QHXn9v/MsryeT0AH9bmuLqpfJRBKdyAMOWIGOZ+Vc7yYDFM7Q3hprsOhlvuPRyO3yV/5PY57Xt7wjHZiKP3Hgy9eQUYx5vhoOzRAdmnA8o7cMeecPzuQ2H++Gzoz8qRvnUuHL/nQDhyx95wVDbuhnsPhevvOhx4laTP2w+ycSlcPvrP+Hj/ymD+uW3GUfZ6jC9BH9fYZ8aHcydAGcrCw+cD4AhxU2Xpwvmwf7YVbpdvdYd8uzuOHw53crxBJF/qpsN7Q3fxTKjZzXuCnLVYXlkOy0vLNv94+h+hviqaqvDEtbesNk6H/TONcJf5jgfDvfLz8N9uv+5o2Dc/JxvDTXtuqnkggn7iTYjzki+dew5ei+dGf6+rQGl1ORw7KHt/nfZP+F93QKR+XH84TNfkfyydEz/Jr/NKZfRxqGqvHQbtxXCDfNA75W/epf7iP0L4jreI3/zMtPUPoDO3ixC+zdLChbBnphluG+pPdH2hvxsOh5uP7gs9tc/bbehPkg91aAFjtxNm5APefJ1s8vFj4cajh8NNx46EW268Plwv/fC2QU/z28c0zt/4P/Iw9y1YL8YdYqwhzpcXF8Le6eZofJHNSPq5Qe3Il+4vnw81yScrbrxTpPs7NyDSdmjbA0mfW5NAGeBzz+cma9vtQ5lHuQ3qZFw8Lrv2GD42b+7ANHg0312x1zt5h7vekRFaVQCmwa53l8PUgM8IroSG0vks11S/F2rtQWhQ3uopzz5fuBxmZUjsEb2MBJ/1io/+eS888oZ4j5pXAWblxcyofHxvnkfotCcXRU5oVQal1l5SuSW1SbvL4icSn1pPRlb5Fe5AcbevwlNEXpXBaMSJiUHyiTwOW1kEboiZ/Gl5zo3E3vRYHAHpdpdEabw2yusNvA66IuKzhHyGcIXCjVpY1SLlc4PLRjpvyMFSuQXlr/LaIZ9fVLlYhrKR+BzjgCdLko/PHraVxmcM2Tq5wc3nDgfacHgKSV0jXcd2lC6ePYJZXllVW7gEy5oLHXVIWgur0ilPAjB/0QQ6jeA62AhexjfBFBvVjRtLHDvKjbsrOwm2scnYh7bmn5zlWTmts6v9MLfcE+laDviMyD4fq/L2GUTylvphXvl75VzOh7rcwErgxZK5XiXMi/Z0RF2diygzJyec9P39WpjTWtjTqykvqC0+FzkIcxJhtqNzXZM/K7s5J5pd7dlrsbzOOqdzXo2d74p03MM5vHn1sq2R0PwBbLar2njdyLLJMr9dv2VCfxDgepz+ytcpcHRoI3UGR2BccBj4X5tyWAiV2nnNl5Pakk4o7bQcqCWlaebU2iKdV1Wmej6SytaaF0Ta1BviXz2rumdV56wGj1dQz+lam3BD9eua0aTVYzpUaVyI9cS7XzljNKhCfE7Rj+cVJCifeYDE0lt0uvr2yviq+oX+NsJIB7Ecr3FLa6Feq4e6HPmKxq+u8W1JlGmNMXPKSMWnNUemNBdmGNdKI8xoPGeUFtN11LxpUFfHac2fpng1+Cwtcyk07Mjrqrxq2hK/pvi3lN/iCCltbqCyA81TXjlVO3w2kc/M2mcWeQVWUwc/1m2T2yrQTcZ3nI2U5Qu82rUs/ov9luzCvtCtHg5Lvb1hZbAn9Gp75ChPhXatFZaqs2Gxukc0b+erlamwInk67p9I57zpgeOH44gM2JQV9Vm7gWzXrOyT6jb2hKX6PtmnPWprPvTVxopooTcl+zQr+zYflvm8YoXPQsqRr0zLtiJfIyyp3FLjQLhQ2xfOa/VqF9IcmFFDddH4rdTXCuPs5+maSM9HkCPP63r9Zui0a6GvYE8WxEgjOTwP0kG3W7dgkM8wdjo8xVb5nspXWnJIY9luG8evqbZkaSpNpXPOq71a58O5S2AVb2qy9h3MX1/jKbay9gHj7n12HTg8fSOU65brlK8dl2qbHLGMyMbXyyvgqnY1dzuaQyva3y5ofp0NlRkFJaJ2c1H773k7DhTstRsrmjsXNG9FOi7LTq1UFkNHtoXXfwZT7dBtLoXe1HLo8HlF5XXr0ntT7fBBdRZVCejDA+lxawvQf8pxZEz9nGNK4+r7Pkq+zwfKQeiS1zDFTL5RR74d3+cAyaeSz4TvpNloZEGEfDM+S4feUhhvrVWHPcmWr6dZKf6yVXVZCNXFN+RjQXysaFo0Jf9wSrsAb+dwg4iglZEh4MT2kmavnYt/+iVNQzCm9EXyY2enxIeX2fmM5ax8Pz4mNaU+VOQj9iVP/DKzrrZK7Y2Sxx4ayO5PaWymJCf9bA7ka/YlFz6k9IDcfXSuNrjp58ENAaoFi1zLl9TiNB011KbrDx9VFsv41i09tslr4lK6+qo1hQ8qndZ1PS3/ijcl+CwnTz4HIp/b7lui+vI4I4/bZ87T8bXxh4/6iXzIxhibrJIvjm/X/Pr4Jp7KSpYU8PI5xhxK27gYpHMR+Jwur+N0jnPubWdcPMbvbjsKtmsNEhOpzx0ZJxysldDVTs+CrdkrZZpwWpB9LdCBJiTvgbflsAw0WYMmKWlBiyZootZlRFoNGQTmCNGSePbEb6C6AdKC7cu4DLjbLUNLkMdir2J8tPDr8nCYsN220juLylpS4LgYat3FUNV5VcZIYZgWouqqCXjQVEcOHZOOheSbT3miAk+njL82Mw7kUcaR8vS69qFrdRFnzO/cm15VpodTCmEL+HzgQGm8nlXlFS3x5b16nXd17EGcF6QlXpSRY9FoKiiUc1LXsd4yClzXdC1+g6qO1YYcM965ryg4xRFECgWT4jsQjz5Uj0euB+KpDsgEK2iUzLw2t6K+8JnFngaOVzN5VdPe5kO74mvElfLM4G+iP/JT/TEubhy97iTDRLqPo9eBQGy/asG4pzkQkRhLqoCJDLQCM/WbL5zhs2FT0ktLc7KpPI2MZNdcU0BZWZbxl+M+w+fAFKhNUV76Z47xeTI+39gU8xZHEZ8jbKrbLeXZl5RouVK+pTJT2mympXc2EPtcmvRHXasvGixpk9MGwMZR1xqo8JlEOYU1SOcNpZFuc6roO5sYGwfd7cq4epA4CRvpD5Bm83cMD+pCjCsbldc3cEjO+QxVRRtyrSHHLPBFNnKqwqJ0G5+21+qSQX5Lra6Zhh2pR6o3tClrcAZa972B1nRVDpnq8cU4FbtTLydL/GMgSoBcEM+5VN/rdvu80sqT76XQ6S8UJEdPNkZbocmA7GxM6A/wmqq9ArUBfF6aDuQkychYcBXtSz00tRabWnt1jVdNARxUXxXpyOda7ZtwmQeNqdBSWc754hn/tlO+yXTAeBfzCj4NzT2CPHhVtIj59FND65P5YVGX2UPNV5HNHc25lmSBL21MIZPK1+GJXVAghv2lK/RmSNa3OL5xTq2dG/E8XmNZ+bxoR0FPRcFX6PMq0YzKyA5hOyQbrsmqAp/V6nRoK0DqKK+v4Bg94Xixh/B0gafjvJ4Nb/LMdsmW9eozcr5n5NQr8KvPyR4pUOLzfuI7EM+ejmWSlk02XDPs6qJkXFX9lXoMXnuyjdWGdFPHZtOTtXD7w9xGD/SZcwfn2Jc0zcDYSW4CUJ4qdhQQ88U0A13zyjVfYmOk805bulOZvvrS7YgPZTTGtdq0TPq8zhVsKsjv92QjvZ5ZHPFn9NUOT8sG2p+5SUTw4Tc/18mVgHz6Qx/LY5uCfLcPqQ6c3L76WkhB/ri63hZ54+wzcPnc/nhdB+c+NmV4WecvZvzTUe2YmHJ4RT3eeJB9WFVgd6F3JtRmNGvmpEvZoWX5EnwZDXJgI/o658tt7Cjbs6IAhNfLeTW7Mae5KLulaR36jX5Ykt+iUtrXaaloMgGyoQ/s5kbw/nXVDmXdcebIGHP08XEdQWVQjnSvT/lWsyndqC5+nfyzivpTUdDDeVV+ngWHOvI5vKoHEqUxpiUPmgjwVtvSiewg53XZ9KlWQ/ZG9kl7nN3Yl14a9hl/HeXPNWrY/Sh7VYGh6Vq2iCC22UI++h/7g8+k3lmrtWJsabeu+k21xZfX2MMI+ZAWtBEcSXYVMyJ45UYKdsa+H0IMG5o6DW2g1lf5izXzIbXPSD779lf2BfqoclF/8bOhpPHdDuTzuiZPDKP+FGDSrnRIcGhBsmYAeuRJpjiopua19KMZYGl1zcFp6YEv+5nRUeoym28+tdrkc59mH9E9/9DR8BiJNc+RsYXQC690NvAvrH3JwrhKtirBInJpTHmyijWxL/0RGeMEPrfS+QZ/dEH62tftJ8PnJPWhtLznpfA5DlgDXi/j4jF5J9hBmIvPvscdMuxuQfUpuSh8I428ZF7lwOhCoallUGNpanGwl6ue9js+mKJ62lTEi8/YmLHVgsRht5u6ciY1e+3Y1+I2Z14LeVUTu6M/y9N5W5O8W+2qnDZD8WtMyfAVd4emqiw8BaFopisDh/QyCl1NTpW2RcTk9MkOjYOXwzDgKDF5fWGmxAIy46GyTGrS4El9JrdvBjFIxLBwZGFKGpWryNDZp7FVF4rv6UtqqdG+rIN32+UMEI7woXgnbuQ15EDx3rwKST4ZWjl/fBOhWMcj9XE8pLr+Cs4jQyXDI8djSvVacrwqqsfnLvgMBd/EWJHzUrHBkIlTGzgmvEalLVcOj5pS8NiV3LjTfN6g2sJRU1u6ZsnHfoqidTXdYMgm6Y98KNUfdSHqbLSZomfKUH+cMYEnr05QJgVXBOYEu21dreLka4Pyr+1Wr4flpvRXYTxMrmLjEF82Deq1ZWwJltGBMnRUbSmgKsIZ0QhLn9KDNoWgDW3Qk8GVYsmDX0NjycZnX0LAVBQR+/M5Ak1jbahiSN6a15cib15pil9mxHxjw43zzuffRvMbuP58ExinP9+ExsHHydtzwnFFUxxRfU/zsi/98iH8npHawjookwciFmQovyPd42DZURtnRzruqEBHAXGbo+rxpSdDUjqxEW3FtnEsoiwV+l2MCV+UUEn0Y2W0pvjyBMagKh3i8NHfSEU/jFRfID3WXUv0nXk71LV0xR9HnvCaY6JJgYzRUZXd0TmfmapyY0YyMBvoJ44l7oSsg4ppjhFgc65xgZoqW+lKYXx+Tx3ns8IElzjDda3LqqjCZ9FEVRFBFnptSwY1aHOcANJeNVVSd5V5rxPE1Z/cAK2L6EBzPdLruDFWrk1NQkHuhmt6a5wJZI10bj/BIT70np/y6UjvfDamw2d1deTGVUU6iGOj9S++EOvBHFDLa6puLM8NKmwOP4Eh468lIf4Sn89lslY4psR6VmnpgTWq+aZO2xeBaRh6rEXWWW9ZbUsn9IW5QNsFYVcggI7dZjnQCXtDed0Y1Peq+ldF9k7UQdQG80mNSWtorqbAXZuAXTda0+qvbCBjz3rQOBE0Nltz4jWluaQxNcJOsq6LuY7wcC7k93ns/eC8DJurAmsfG0Afxq1z1wF5zHPKwo/6pLltHwfqwT+t63Ae2Pdx9V0+zy/LR7/QvY9PCu8z9ZaXV1SX+QwKPWjOYjs1fTSwopbmfqMbFgYLZpeaGoNWrSnLLD2uSk410dAa1mhqnouk/3qdDy1oLJhMmqMV1hd2RXO2ypcPac/sqm6ffM2FFMhH/5zSsUrJx41++znzkC+isQA4ga0XFmQB6ng9yqdpdg5pjrF+6yK+YKah9VGHpBueNA7knzU1DPG7B8wqobohqUXbe2z/0V98/VSlrL9RFurAE94N8W1oHTZFvOrYVxsEbxXZX/v8vfGl3xCyF6S9lO7TBnlcMOfZh/kyxYrmRvwmVQVtBREkEgQ2tMdbwEd5BcZSrPFQauCzlBXNDR4oNCWb/QCPbAVP2uAho8uQah7FDiPDiFjTUX+sZAJCPjdJv+w1U/Wt31HQanIryIbQK32RLrCZ5BGQVhWgT8se8USRL2bk+x7E1saYt136sgMO0u0nNookxtfnj8Ov7SasCB0wjnLLI6EGk7EdWvLdY6Aohvwr5ojPHQik8xFw7mvby6X5ZZBHf9yOTrIZwNsHrO/NeGdsjtHs2AXY0DFHy2TmQIudoxahp2OIjYq6fnSkPABlyR8SdS1taKYoZohtxnIglqAFEZNMi9LqaYKxznoyQDx9415ONEQjXpcbZvzUmfj7ZRo0xHPBBZNa4sTfLowORHQEGN4oM98kRhQSzRNl1H8vQ57SOI86gjxdbUMqW1VQaE6rZPGnFpQhz+vipMT66Ndl8DbjE0z7LUYZH342w8YXNgVdLSDwMyOnceD+BN8Ax4bILIbUG/WHgUpmXjJmMS1JKME4oBOOXBe6iZwj1IKu5QCpjVHqqMyQqOsE0nOHrifN6csx18dtHGNhyVGX/LZY7F3RQ9Mv+Q4u4nwbnXMsiPnsE22oFJDkUWdNfpGW8rSyXk5JiOFF16HYBMdklvvMOuN/Pu9GD9fA5cHRoZzqYpti88m5iozEsu18yAu7UWQMVcclZexmW0FgxEN8kTPJY91bkMWRMlYWGXDYOOpaDoaXnwSTQYWwKZGMkaUPGxQz6zHpMbXIH8H0i4yWW8Cu1yK250Q+Y4j9EvWjXfM+WW7RpgmFFr1hSyTT52GSt1Mwds5bzp6u0Cv37opWR1B6tDWsEc7JpwREac5wRc0d1fxSkDDcHxinwlYVdUb6zHCwuiJFmI6lvp6IbxKHou6jzq2sq9T+Uxr7Q+HAug2Bn632YpxjXUbGW4pjtBE2Gqt0LMvltjPG7nhTx883BrxFFEVZTNwN+mFy6mjBnPXZ52cC04+sFW+HmdUaycENNa6tVSU7lX0luyZwgwAH1729dQZFXpE9HLk1x5rhZoV8GK0dbB15FGGtMYZx349BHeMYGRDU6HpTnakd5oT12XpBosECH3WCfZ4vUSo8ZfVFq1n9Hv42sgdsJSAfT2lTGod0PtgYbybyFmDjWppn5jeV0rYD08eYfqaAfxr8ZlwadkmTxcR346iF5oQR8U07Xns+RwhHIr0WabHGjR1+1KeNWCa24Xyg2K7xVD27k8yTL+dZyGZHk0NLUJOM5chdaF6PtGOx0dpv2VzCJL9YWGCm4xrytSJ5opki+CKgjYTTRp45jDrybZrmyFG2yMfEWX/VLZzFSJSJebGvUU+2uK1O1LsuLC+2D+/IMwaAsQ1+xxHqV2VgjdBrlIe9w4YHoh+Csb3CYb2WoeLVP75pFOLpjP1Ivki7lkpEYmPi51ko65sWFNOZtaSrns6jFnxTwOkjELQUu/bKns85LiR/dh1LFnV9q4p/XnfIg7/iCDZTuxv8lC4/omxx8+bOf3Ft4Dz2ZZRnIxOP2IHhuQ7D64SGk83rObmTUtRN0wvbsqatIdLzEjbIGoFCsaCJXBBrSwpXc5DWp8jWttL5G9VzeWI6dVnzPEVjvQ2XrMA588OejpldiGmxvyqrC7MNXFol8Vaa29TYLohlbL6J4tov2GwC4y992iuVthLQu9LoGzpG17K56J01hDPENx/aa09moXHK6AUoblSJvJPkQZTjbnsdHqKG3fFnzVEOnRV6s+vYxyiPjsU+QSBb1xq2b00tiDVNXfJHc2IHwLrEKZTc0TkUyWD0RXHtF2laF5Sx+c+5p1kZZIv6kfWFaewPR+aCycqxgF1GixEpI4VrK2osXgF0yjMlfoUvfiMv8196NJvFUeWNGBeeTsexMl6wsn1Bc9mfZmnM7LqoGhHbejwxyTGP/Y+Bk/kcvm7spjrpHJl3VnhDRF8N+xqDMnubyW9uMGeLZWb2z9YC8xVSuv0PUss0ARRm/esQ7YBWkXjB19YG9hKfBXFsXSNPU+dNtdbUODfsrYaOxpsx9z6anS4QzyQj/3MxyhoirsOoM3sIUegM2+Pn7ktFPvxPf5E9emhIZ7ZR9s38Dxsn7IC3rf+tff0n2u4+HltCF5DLhczFtY7+RthuYCtyb6VMxvbAPNsdaCbZq5OQViCk/8042EbM0yqjeGfZHZJoMDkfbdjUjHVjGVZiPCevyNc56cVqSYh0J88vzlUvXYLDQKq4jgv7cYLJGcnXfkSUD1mdTE7rrv6zYyR3m+ypLUcyrUzslzt4RpQRGX/nSXmjyM+go5lr5RspAT4mB9UxIkWeHYv27Uhl4xM7FY1bNHBXMhCZp4h8qQdBInfyLDj0ALHoC/2ilxjyYZAIA1Cc4woTMBqU4JuBOX06syvSrUJM9zbicwbgJSPxF8egqFvIYqRz+yuOMf3icPkNMfLqgNOFQ1yWlX5ZfjmILJCs60hlKG1YDV5cUE6jZosmJsMjXju/uC4uB4bi6IwxsjEkkLMbLnFtcTPHZkchG+AJX+wPMhaka4rYPW7qURAw9lyLok2grgMehf20fkY+INrqeFWkqGhsA37Q8OZGLLABKGCrI5LZm2gnog2BN23HwBwHiHWGQ2RfLCaipDJhZjA7XfAZpuCUmyOuOrZW1SqfC7K6APmLPnCZdIbV6zqg7/HNAQLWSPCK+0zcc3YOCKHGbL0TYBRBoP/ZvIi2gDwra6MrsjQE85EdrRvrGiRRbboII6ljmdExYw1S9UiB+BmmSI19vNFBwBBnFePC5xFtbCjCelNOTI/jGVdeZBpnYBwvT7dxsWxrkJPLCp9b24KENIk52rr1NVzs7xyN1CPWpHVqMxRrjhtIbhvQTNEGN7XMbsHTym8uM82ObVpVY2DFmqINkdlY74O3z2u6EEGrhfJD8mvKR7ujo1ozqYpGYwsiXVs655CuvU/enzgT4BHbdznIN7C2lRJLiiQ/NYY+SJFnc87sRGwH2Vw+E0znvn9PCqpG9WI/o4zIhk4KGZUWx5pyRcXLhLKMm/kfl/rkMmMEZs1lR5xexZJi07alpTRNbO7o4ETHIJKjyhfkT9HsqPkfy7A44BoXCO96AztXWkyPefrPUthi/VVBEiJXnepgC6k4jyCXC9oploPJaO6WKC7EXUchHwfI9GTnnpIs1KKPdlmIGnVapFLQzgXLR1+xjF0X+ZGhlRomD88L4j87V2b6FIJNZ1jGFmtBBPw8ETYHi8xY0p6KQe7oxNK20K+0xY549jRQxPxQx5UqYpIqkz7Ec/5F3Y6D9Y//C8XCJf7vWkzOTCfRmYgpsa2YpaMcVyOdMw62sSrPXBJvIjZj9UZyDROL4xUCk1f9saMfMFeE1sXNIEtFB64Tx6ieY5RfjA39h6+Vo3x03iI/oJH1OT1UnhNloLT8xWHd3NblaKw0luqybdCQEm3ZJFVMdA0wXYo32YqbaSqEvUQ8mx/MCy7MmaDi6BA5U86SBNeuB0BO62E8h2dx7RbNFlWGTMeDsjJm0anBkR7IcdI5aXaXELsQyxnE3OYBirBEciHOCx15ejHO8SZOlDTuAVzHtRTHEFLSsA10qXZoo9A9csUWlCce5qDRBPwiZ9EOAj3aX5RrRFFPbieNJratdAROYDw4sXSd0Q/6j67oUMYEFGNeXMWbJjYgSmOdkIf+GI04NthdKpDqsy0Gi0pxfSufcjw5sqdHSbmIyHMzjNsjN0tLz1kXk54agnG8TLJinRL8Rumjjry0lbFgMZ6vQYllzPf/XaMi6jLPbc6TW6q4BZiqC3LABTL/0hibt1e0gQxcKyiyp5zYG8prXAZdldd+IRvCl0BRErYjeQuZjfsIVoZ0J/4K3a3Rn2Uyp2L7rtWR6JwpVQdasBzLHErAhV1D9n/RZvyPCx02hc1kszduS01/zpCWJKe3Og7lOTVpjm02/7YL5zdu3mZsH3H2X2bEBcCHSvkhz7YSdAx8E1ZXznYMxOzrfm26sQA8gNQy0dzxqRg3d5ZvDDrjkwSfxHzTHdeR4msevcBPMfAFC9zJ48PFoe8LkgWKUyIjrUbMkIlcBtqsiw93sPmQM18J3OjzNcXU3X2whGyxx0vDaNHapQGjV9Pi5e53LdowpXHHqQhuSJdDSZnoDKm/CjBi0D4K3OMrlCJgFolz6QknDt1ZHlScG5Gk/6wu48i4enUcV7XdlXxSOm1bBZWzV6yMa/yzd+jJLhY5i/1Ke9889i32nXmkDtmm2TfDr2vXjf0frwyeNZxpylfX4txjrEbj5GU4RpY+PsVYKRet8DkFvtHUP3sRx0O8bYPWseBv60QUucbWo4bhEs8eTzDO6wnJtGlWajoWxLldx0CGND67F8/VLzZdI+pBli1S2pBQaOyzla3KPjmRjGMQlaZj4ShYFf1nesT+cB6LbAXj+rcmvaprTyeLiaA27LJIp5fWc9Yva4rrIkBkTfNlGfGtC53r/7rKuI2NjelI33WkOfu2XSXHJLWhujojRf/zp6PrQefx6Ih849e2F/wNcZ4ZrUlPQTp2t/gmSDtq7hayRYeaNaV0jVd8BYs7+o3QG7Q0x/l2M5el3EbkEdPFR33qDerxc+aqw5fu2NyXXbd9o8qX1bBuVUME17gG6b/SlIfd40mGqcJSyYtrMd6sdNoZ2ApVnznSqK1anfo+5Xf3R2PixDxNrqPAAvM19tF4KCVyiLqIKRuNV4ZBCmSN8NEXVGU6lF/Bt0/XNJfilx8xd9EzT17ikbmL0x/nUPFU0caDj7bwCiOvrhavr9prj6yB2ORWMbQjBXkae2f6mfC0jKeNQ7lMem0kFUSb2Rb/TuBb63kJly+CGYY31KW6jvRnDSl5XZrpxJ+6ApQMr/iAAf+LW4W25LYJM/klqEnxLGyo2VFsa+TvAZtKFGVlPfAB7aciVlQPH9a/kRR7h/1K1ybcNwP1xFf2zx6gWP+YU8oyGUzJuhjPryhmuovZWIzoJ5AeQYbzEEaF18H8mYL6mtcDzemBfSu4+sqbGEbij6kwX4ODWuSo//iSmZTKPMvXafokbFYuzfcyzDvOfa5mXBqKmXM5wcCNFjpHNi1bdMrzJeWLE8RpzIXyLZ06vok5FddWQKcyJtF5iwY4MtNk1f9WeziJSIEiLEX1OTpgZ8GobQBm3i1o5BjrpqV3H1EncfDQUzSuUSbPi5eS1YIKDE+kqNuYH+sLlo6ui/whD0rASHySNoDZUMvztDiVqB8D+7hRpPoynnbU4jXyLDiJf1GuPB5XIuiHQZ1AL7ZBmEMZ9UQfgPXeOm2X6xC7H3U3RDEOEWt1xTopb3g23THKkPKY56ZDIxvZoqSjGOsSnysf9GPYseI6BR0qaGznSGNECjLF6dScEqeiXtGGlg/DYRvhCCmfnQdOopHasW4C77Oapmt2U4B8/ZmVszlTCBmzirmideidwI5yFGDrN+DKc8r4Q5zHpCFPyPPXzUOolLYh4sTVCf2Mayc+VYRiGvnueJv11TFKHR3vMlzuKCy8Y3m+kAyV+dEG1vJ9zJ0ihv0WwzgeKs0at7ZZr05Fm6Oqlw4bZ/E2u0DQwDG26zSU0CZILOfyRKTpQiokerW+o5lRMiimWEYBtG6Ot1GheVOQaa7IJ511hk8T9Wqadbte3GiKJXVKVjEenNvNatlp84p09L1jt+FO9taBhSKoizdc7K0r9zeUA20PUSc+Nx3Rl4C3NEjyNtnGkYrAZq1TL2kiCxKlfCtTtMWNslENRhA51F++Al758cGEbAhjqTOzE8XRluYYeH4k6tE/9MYNfelN+3j012L59UhlAtL0pLaKdlJWFLWZOZH/CEiHfPQxjkPUoUlgjbos0JWBNDDMX2izM9hFLTIrIxXmsqDRoYxRuRLiChY8r1ymXC8uYkvRAvR8u/Y5NWaex/aL5qze4wOTVvKlxmB0arn6i8aV9JhHupkkXcdjTBsDOljoZaTzogVnqDL+ddNWHn6FIxevIRDPzagob/hqsHgY2VWsErNi+SQhwgtesXB5pfuSrMXMKkDmRp0Zl+f1J9WN7Y7KFed28DQH9d2Y+/FqhOsipXEodGG0Hawvv1aVG7V3GTBcD1C5z0U6AjoN17doWA8UR78sIeW6tozzwH4U57bWdaqFPFzLdsSdgqr22132A9OWSqaV2hjW1+J8CNqMGJ6pzCjVK8REnJb4JFUYFvKTKC+Zlm//gRG3tecp4mp27YJ4HDIZwtS+Iyg0ribKtmUz+LRJZYHF8Fon9mcJkXx841/GZLi+9KeBcRWa/oaKG55EDAcwahnE49pyXMHZsM0x3wlsP0gEqiNZ46wZ9WBoL9Yg5qylNMiIZDX9cojRHN0UdhNkfbk17BJ44DjKX3vGGA/XzhAkFInr8oSksXK2XSf5QxQFrU1oHF/l2EchrEA8DmmoywLum9k5xaMOsc32lI2/4nxzIEwhkM8Tl8+OW+GxM3CZN5Pb87fWv4zNsIuBYsbFI27s9pfO+2KxkjTekHJdGM5YaAySeuOtk6XbehvW93Je18kRz4cyqZ5V92Ixqch3ww7p/2EbVzpGMk+Gdyb2dj08vZzv5+X8It0OafupHOXyVjgeNxP3CQbmo2vnSsNwqMpr0oaUtDFkm3hyPsn5szyO/NPfmnJFxpDA+jRbu4VdGDkdxfmaP6VZ3tY1jTyxFf0fT/wwEdYShWRArCWrkNYq2teBs+Jqa9h2hR2A2tusz8BEKwrafIY4j0nx6GlFfkzwi+Q8ZmZsAOZ9fJISMVQd5zEpYyJcS6m2xqWZVbLj9hDLu/Uow7lvFxdbz3pwsZVTGJMRjTQTmafn61EE2cqO9rko6deFbd6OfX68UJZxksxbLZexdeRA8WqAbeDRHDjsjqYdC4rJl4Di7tM6rG13JxDlZsP1fu18G48PfBR0xLgPDfxm8HIpOSalj4Py17S7WfkyLqbO5UXqhI2TbKM84Onp0ZZTgfTckOaVjo8/EK4sMIhp5iBZEBjLrXnLYF0n3Bkr4Kd2jPW9jLEzwM9pPIZFt4go1hgNq9HYrv4r+mQBbfyHVPEk/hfz4pmnFMfxGOVxtr7kkF2B8rXVGaatr7/TsHmaNGNjWhCwdVKi+AqdiALp+RBKgIqDUcaW4fpMxyFjh4BytzEpXf9WQxe2BRq40EFkPkdMvMqA1FuT3EpaX3ViRgt6YqP8tNxuRBaUsTXkQPGqgk/s0msGli7nzV812HHAf9yiKtrdwHG89sE4MB7FmNhni8xci7YJ3+GMB1Skbwu0W8iyFQxl9TqRrpS7cCaNTz8R56kDPCTSdRxSUo4jddN6dq4jGMerTMbjigCC+Jpz8rT1ef7kD7IxXTeu1OF/HQvHIm6ifVEvEp/Bsc83iie8ijplTM6JoP0y6T/+rU0bA+Qb8i82eT4hxecNTV7+SPNrKxzTxiGWV3+Ksl7HPuZrdXXuJ5Qr+K8hSRA/+15wHC/6JcPnqhHnCSEeGOaLyqvfyhbnk1Cuk5Hx+CCZ1FuEzVtVsZrlSWwJxezWQhium6sKFyMwQbEHxkl9/IonCLDRgC/V4dz3lm63GzqdzvDLdjI2xxNn1lxjwP45+QeWR8AaRucmvqvOgkmMxZYBj4LPtuF1C7r6rPPm8E3IjuPg7tek/I1A3YtZnmPasolS8BueU86P4zHJac/YGnZCfaOlq/9sTTsVoI3hGk+COpWJwcwYWHBDvoVaVm6Eoh3nmZJjTZuXByYS/5mcW2/HRIunlx0mohpz2mlYX9TIJDVbno62iseUKdc1EYs6EV4bikhvoGRk7DawmandtBtdyRy+GFB9zfq0b8IezfnJiMFW5IDNvURBLha2iIv2bQ/YOmKw6P0YwfaGx6k7lxt8gc3S0lL45Cc/ade9Xs+CQ44Eh+Q/8MAD4dSpU5afsTm2sloyrjCsc0rMkBS0xjsoHy8X4L/NNuiDGT2cWXdcOUYahzQ/pccV1rw6Y96ipQh0zh0wHyw/llFO53pMmvHfynIt159wbU8sPS/Nz9g5XIReCy9pzTIeh2EBL0TQV1wrPT5v87xJGNWNKOobOJKeULFeTUSRSVqclxEdvuIpIddOYmtEoQ2RyrI54DlccQV/41A0HOWJ6fEGCHTxcOngX/5WwZ0BTOXQqoGytJyvecJdnA916xST12BNmimnsFG0Y9cZk4F+RFoH0fnW6VWot8drz9zOnu0/lxZvXGxHXsquL+8p2xmq2C42j2815SZccc3i2hYoLxouyuJ6G4gWnR/2iX9cR3k2Q1GGpjktyb7trkzA0NaX6HJgM94Eg+12OywvLxtRttFoWIDI3KvValYmP1HcOrbieW4TzLyU+J+vfeYHJvy3giLF38Uirxp61ZrS+J2huojfHYpfC85v0sTfFoLi7wwZH36sgnK2nO3Lhe06/iYRPCKfeC/FTI5dw8fz408HFPIZv5ge5RApzeraaqIlaDyYgEy8jYygG8mULhZR7njGVyk3+qJeP9T7/DZl/D2eaJO0MJRXl2z1fm94bIj4TSLKWRkxG+X1jfgNyaH2dB7rizgv2kAvfDU4vOAJkWe/7bembvzq50i0y9ctq1HTrfek0AvXOpZR1h30eAC9+jzgK/O71Upo16qhIwPUYR7LIJHG154zf/lhmK7mMvltK6Nzm+/xS9dtjhuPispE4tp/uBdH1PjRBnVZL8X8RIukdeEH76LucF0UdY0vx4R6opH2r0RIeBOOIz+FUNexWVAjplkHpOiB57WKI1SYN5RI+T55RT4/rTDML+r2vZ79smDM42htQV7G2yAtftOmb14bbWBllOevvQrpO7cOHgzYb/hV5SYUP78Sf64BZyE6DfxAfVdicnRiXtrRVMiRMipdU3ktds4tv8jriV+XdBH5nud/XFsbUltX5/aV/qim4M/fWkQ9SCPSIP9bwRF0Tlf9Z3tqZjvaxe/Vrtg5v03H01F+diD+5m5nRPabdTw5ZZaP2oAnLcejBFQ+q6Su8tSp8XtlcvpYecUKMX71QTtSoF3KxvOKzvk6fH4vzeoXZTnn555AXKe0dbEwiccQBzrCKud31py4hmIfYhnmDr8BWnxd/5DinIplnQ86xXYL5jnzhEVrQDZF/1lyGczV3dzfrhwk40F3ikgjpjB3+Q2+Wqj16qHeaxrVjBrScc2Ghvy6rhu9lhFlqn3pW4uzIhrW7TeMuB53gyDFpdiZraDMf9x4xlnF/iWfqfDN2Nc6hQ9lP+uCAphrNt/Wy7Geb+x3/HmNOL9tBYtnTz4jx/i7lJG/+3CIO/o90wjOzEKqbW8Hq2YyGVx+VkT8jdY+bdiRn9/BqkiGwtb6T6/FFuHFEFLf5ROprpHJGT2g2FJxprZjzSgD7VPWdCdqyz/tmC7xbfnFXJqkfX6GJNpqk0YZ+A0ue6fS1Bg0dWzE+uJDHi0DlznVjxRih3Ss1447+qVvyCP+yFmMM/4H/K14Mb5xDDR+BQHX+1q+l46N+PHkEAIEh/V63YLDVK6M7eFSdrcxSCcjhoEprUmtwVqtTIel6lxYqkGzYbk6FVbloPHT+20Zl5X6VFhpzITlmtJFNvE1Gdsa16VaU3WpL6rM2HG5Nh3LEfiJB4tsRdekG3/Rqtogjw2Q/CUtqMVKK3Rac6HTmJbTE4NFFuSq0pFpGd4VyRJayhdJ9rictBBwGJJ5xqRjErKB+mPtdDP1o09OXzQplSeu14eAmc14yoWdQtEBtKTQ1JqY6QzCXKcf5uRwTfXkcImqOsfINLudMN1ZDdNtUWfFzmfliM3g9MjMYJAbWujTCjJnVXauqzzVn+pJe91I9Y6uu6thrtdRmVU7r6tMUBs4eVP9jtWhLgSvunRC+wSOU2pvmjJqc0rOYF3X8FVH1Q8MXuyT/VaZ97PQwUYo/05Oqr/N6qeGo1zH08v8SWWfwS/joqPgbalZDedFC81mWBQtNRthuaE53WDeB81D5nA1XNB8O99ohAutqbCg43INgx7n+KJ8tAuKO843B8qL1x3V43e1CCCXGiL5FotTsY1lGWzmNO7qcl1prWZYaDV0rKvtIhBUXYLL1WZFdSriKyrOF43fwNpgBKLGI9AB/afv5f6XQT5lJ+nPj+NAnhvwsSAIU9ZADtdAjtSgO6soZV5K2SP9z4kUsNmkIYBTXi/mhd5e0ZwqNjVWbPYNOXTzKr9fa+KglRv0psQ7OmShPy2+Xk/H/ozqStmqqRWuMtSlTWiv/AVRf5+l87P2VdswpauCqMVfTec1jW+i2jVIdYUe/TNz7lRY67IvvVpPtq2jce7o2JW97MmuFaSgraP50taYruq4UtCqVLLCPNBElZ8a5H/quqP0blhtiR9H8SII7Ssw7NT7qt9XGWgge6z5h+65maB53BGtiOeyaEllllS+ozbhT5AZA9diHhX9tfnD+KZGMwGpdfW9qX5MDVbCbO98mO+cDnv758J8/7zshSy2+GqVhOZgWWUWRRfC9OC8HXHJbPwYY9rSKbM1+oG6kN1vqn3qNsV7Sjyb/QXZniWV08pRQYLIVn8xzIUF2aZzovNG0+I/FS5oviwoOFzSbgAP2o4yTCm9EVY1dhor9hFxjKM2gs9rX0/r14dGWDKa1Ny0cLJr8sRVY12rrkpWdq8ltbms44quSeuorHQgHVFOIyx9K4ity/bXVsVe8im9r8B2IP1q5NTikvWn1l9V35GAeac5rh5GivMeICPzD5l9fyv3ASrb3JTAuHOvE/UwHs7fy3ndFJvVH2e/vH23XeNAeqxPu9SxVI0xJxD+gEaqJx1pAU63Z8Ps6t4w296n872hqWuCP+Zns9sKM+35MKf8uZX9YWZ1j9KmLVis9qraj2fD9MpsmFqeCa2VGdWdCrVujVlgI0GrKVwHyI/9nATkd515f1Jwzfh6Xppfvi7rHdQaLdkO+Wvmk81oz5oVyYeTH7danwld7W/YNH6kviJ/IK7LCJepfK5W4x+6tTHSClUAhP+4ojbaOrbln7XZ/5SHfxeDAmfOMZ7X6mpfx678GAseJIuPH/9r5UhGAjP5hPAOs6K5sFKZt3YI4FREsqmeSJ3QWhRf6wg2DxvZMHlMvop8zsqc6aMtX5KAjYcg6p36qCoF/LTK2pKPSVtL1VnzW9HfUl1yNGZl99nX0B83q+hjlB+TZ7Jr/NEDPuui/OrF2p6wUIfUB/HhYQptGzhI7thzyVAIxL5Vlw6K5IjivFrX+OKnS75lyTccX8nH+DIuJp/5moxvymQtGF9fbz7WG+79Y1Cegx4AlkE5iPb8SSLgmPrrZX4Zk7Heil40UHoMDo1sYXEXRA6FNsMz3WY40Z0Jj8jZe1RG8kS3Hk4srIal3kDBWyOcDdPhjCbkiV4jnFTe+V4tLCtqWJaIJxSPfLZdFTXCw+1meERe0GO9VjgjQ7xEsKmmz670wykZ1xNyHh/rT4n/VDitNnn6QvvnFEg9uNAJDy0HOct7w4Im/KqCTPblpXY/nJa3/pj4Pyo60a6H051aWJR3xZ0TtMTd2IDBo2/FRGTSzc/Ph9XVVXsHOp14PhkB5XyylsFEBl7XP2QLP1RaZyEUefyPkfCgCs+Ie0711W5onFsMM+cuaCOSA7NwNvQvnAm9xYVQ7ciknDsbaqdPhPrpx+xYO3MitBZOh9byOW1YcibUXlhaDM0LcoQunBOdDVMLZ0J98VyoLi+FzrlzoX36VKio7uyiRur86VA7e0JRy3kJ3Lb8uupOnVfd82fClNpuic/gQsyvtVdCY/FMaC48ps3wZGgunQ798yfD8rkzMjD0i6AmPoWLT0YwhCLkEtLNrAzPS/XHOToE5E8CRqapoIujO0KpAYEv+ePaHfTEXzKv1DVv5Fg/pKDr0brmqto7IX6n1Ozpei8syFE7p43qMenhAfF+QPPgYY35I+rrOZ33tNmeUfD+aG85PCQH7gE5tdDDcmYvKChvq9ySpsBjcgo/owD7xLTmp9o4qQlwQVEeN0NOa0N+pF4Lj8hxf1RO/Gk58RcYF4ndloN/VoHGo5V2+Gy1HR7WVviwHNxHKivhMfFbZY+wqUmf0Vl04AC6a7Vadj2O3BBfjP4oS134l9eGTW1NdKghnXZW1Z+zmqJnFSCfmzVauaCNUFELD50Wz/eUpg3z3Jxob1g+Ox+Wz0+F5QX1pSs5ZVN6y3tCZ3G/jodURpvxOW3gWvMavtBekh05r436/B7RfFi60NJykCMg21SRfenIeVtdov4+0d54XOB8Tm71lHhow+JPtqIum6KQxf7qGpfploJQ5nh/vf5cV+gBPXGtBHOSoJr0Mr9Xm3N1SXbtdDjZOysbd0HzRbR0Lixp7a5qfp1XwHe23g1nFEye1hifUrBwQnRG54vVTujUFPzpeFIB2Mn6hXB2ajmcql4I58NiqE5pDg864ZwCiVMKIk5UlsNJBRynRSviTSDaViC5oDbOiMcJzZuHFVid0BxdIvjUAu7whFHzZ/T6uHVD86cZWk0FH1onZTDG9LGludPSPtHqnAuzy58NswufCvvbD4V9nUfCbP9smGlpDki2evdMaHQeDVPtz8rpfjC02o+EGc3rpnRMsFMTQ4ibXvEON+f1sG9ODrj01lj6TKgvfTpUlh8Ig+VHZMoVBEr2hvrVXHkk7Ok+GuY6al9tz3Qe0vFBOfwPy9k/rUBTdrIt+3dBbXdPqLzSVx4Ljd6i5r5GWmM+bo4zrqSjk3SNAHSC3M3GlMw4zo50ZE/II+EX8puUTa3nvsats/qI5utjoSI5ZIxDv3MmdLrn1U0FgLIN3d5SWJZtHUhWGXxdnxbJLss2XZAtX1h6LKyo3+2lRzR3HxWdikG4nOnKAB3OSALNVc3lOH6ah2qf/Y1zt6spsW7pF3nl/c9BPnzoO+Upx7nrYiP77LYFUM7tC0fXN2Um7a1uv4CXpy4yQF6XtJQo631rNeQM019bvzjqrFmNocoheUV+R/dUP7RkU2Zle6bPHAjNk3u0V07Z3T5uHDWXpsL06T1h5pSCxFPKP7MnVM9L56s8TdQedLYVGo/KDj6kefSI9HVaOj3fCQ32d4lN26l8APmQf3paYyaQPml8AOcQ8HHiem5uzmwP5+lYoAPqQs7b4efTc3vDqoKHk/KzHuvJt5Pf9UhvKpxUwHSOgIebbZK9RiAhQ50GvPB0PXufAKOElBZ08JbBtGxvpSX/rBFOdabCKQXRnJ+V7V4Q7xUZkeX2KtZH/IzFUL7ZWdlnzW+bM0qLXzwV8zhfJW1qJiwo0Dsn3mdXZ8Lp1Vm1MSv/T8FpUKCJfGwy9jRR9kZ7bFN7qmraA5AFOStnOnXVaYWT4nECGbutcBb/Veu6R/uaAxLVZMToURdMz2kPkf5OyafFN37UaFq2d06+wZzdFhpIB9WufCgCMfZm6quf2Fue7vHg4zH5y4/2p8Nn+3PhwcF8eHgwF04NFEzLr5aWrS1HfCrJPEbXMUhk32JKi6l8QWlfvgU3WKdntecpAKVvj3amwyOih+VXywsMZwkc5R/35QdVtQ9ZoGhcR2B8U2IuMcc4Z8zH7f3jQHlHOg9nZmZs7o4D5Rh3fHOfa86HvJRnxubQehxp/oMf/GBxFsKb3vSm4myrgA2zrWCHF6BzFjz3da7bKwOpsbFXXpjsOi6tLIdzCjLmtJnv2zsfVlZWNPDRMcUIttud8MCDD4Xj1x2JAdMayIHQJDl37vyQx9zsrCZeMRlETOKHH30sHDlyRAZ1SjFLW2la7C0FB9VaOH3qdFhcXAw3XX+DCo+MFQuRO+k8kTmhAGlheVnBixJrckyr06HHZs6yVR0mIpOfRcCk9wnoRzZRJiyLIjWIDt6lpj79pQ5lffF01X+uzdm2+78CeuUpgI5VbWIXlpZDc24+HDh6LNRacpZXcF5wsGthdaUTHvnsI+HY8WNyGEabALpZXloxJ47+L1xYCIcPHwk1ygwXkMZI8j728KNhz949YXpG/e7L6VQAMitdU+zUiZPh3Nnz4YYbb7anBsgfjaEMkeoy1GdOKxiUMzW/fy9mzu78Uxkj1Vlph8c++3CYUr7iLHVL+WpZ3ZMTI12qfrfQ39TU1Ib6Sw0Q+mMOue6pOw6MGfUpS32Qjh/pvOPuG6mliyy4leyYqHnx3ivdNCRvTfOipskT+6GNRIUfOqugWmVaTTmESkWWgQIQ9Lsi3qury6bfwNNbuz+KaTctqu2eyqxqY6qHvXvmTW+owJ6ESR76d+LkyXBw/0GNN/KTqf6r3b48zfPnz1Ml7Nuz13iOAH8CgGr4jNbOsioMivVFn/VP9aJTx5qctXW13qBfjP4cjJN/fgBnhbJrgRCdsNo7G/bub4b9B6e1hhQsLi3YXMOdOH9Owc3JxXDwoBywGa1BRGDSAI3DyspqOHee9VCTDTggvUSZaJMnXd1uL9x//wOyL4fC1HR0KEFXc4YxOnP2gl0fO3ZI8mvOmoj8J9JGOui1wsMPLYf2Ck8V129Y6IY+oj9kcN04yGd+koeOsCUNBVds3miLO+pdrdMbDx4N881pOVzMrchjSWNzVuu2prLHjh61dtbo0Ipp/Z581Gzf/PyczYkprfm+vJae5hsf+L+wsCT9STcaH9YkFO8cVGQ7FaxpM56XfVmVLmf2KECX04JtrE/LJinKvv8znwxdOVD4F6aZoovoiv4gE/WxB2uh2S5HZpmnLo350JqeD031nZtDbgP7cpIWl5fC/IEDmqtTKo98mmsKbBu95bBy+uFQ7SyEKQW0Nc2VQV+y4VRTqtrU+muFC6tyGA8eD5Xp/aFdbckXsklir8i3FxdCz+zZvLVLmz5OPEWohE44f+bTmlfaj6b2hOXObGjN7tc+0gl1tVlVoLZ46v6wd1q2X/y44ZaOMOMLzzQgccS5UJUd9v1DchXK4ykK+V2cxHorHDxynfGtMi7SK1ysjzo/9dhJ1a9ZQNeVwa1rT6jVo55WtDecO3MmHNh/wNYM4wMfxgY7c+bMKdkQBeGqz6uzfTl7QbqNr7DGdcL6d71whIDJVwR99A+sX8Nx/0t14GMLOGeOYBOjPtaCuqRTl/Yp7/DyzPuov7X+Abr2tU59ruFHGmWpwzUot418pDFnO6uMYbzRa8G9ig409r1qWyH6YmjN18Kegwqya7Kb0llPC6GnIKGPs62/xx55LMxr3czMTY/aQU2SY2FhQfv1Srj++uuiTlSf/ZX5NS2dnHjojDrIa6lyqHlVtQB8KI/+sfHYT/qT9oP+kg9cPz7/vH8Q+/8LXvCC8KpXvSo8+9nPtnzwe7/3e+Ftb3tb+O3f/m3zXbBPPr5et9deDgfnWmHfdEP7ddy7getqVQHcpx94KFRb02HQmJaNkO1ROkAWH09kgx9p+C4E1zgPFdmojtbodfvnw6H5Ge2tylcXeJK2pDqntHc+pv2LkL2u9a5ZWthoySg+rD/0TCDE+qpxE4R2ZAV6Wlv4oKyKY3v3hwMqMyubzzM4Xr9flRPy6MIFBY8KNJq8aomsshGSsam11JQMq8srYb/W3XxTAQs3C5lvKsXHqOwGLfKdPSuOap+bSUMNRR3226ov32G/gv2GsuIK1ZH1D3/Nz8888GCQ8kNfvh0fLSHoRIMD7V195onW++ED2v+Lp7fYDEa5I9/30ZOnQl11eeNBDcZ1L6Kc7QHdOAYtzTUbC8mP7bHxUx/7Gt/9M9p7RY1ifPFpYn70Pz6j8dUCi+Mr/9gerBRw+09Ax5E2GGuI8wsXLtje6Ovz+uuvDz/5kz9p89nx0EMPhde//vXm46fzF37YJni5/Ulx+vRp+8Ka2267zW6mpHOMtj/xiU+Effv2heuuu66o8cQCsV4a7913333F2XjsYKAIYCUDPVoPgiafkllE0YGmTNGkJmPcSBQGFRMPg2SbtgaVmblqhlqLo7iOiIYSA4jDg2GFY9lYMvHb4skkSY0lBpRusxGw6Lirard8qAKJBY60/LIoKZus+EbpWZAYMgrGOt5m2nY5zRdKGcgFkmEYgrrUtq9pN6GQgw1JOpZSKzIOXRmEARuZnCzKLy9fkNGI9bgrzSKiLyZvAU4JFMmLd/tjAON6iSViBQyHGVyNK0XbMm4sbvQIDSQTRmckv4446zrMTFNOm19XAaaCTIxMrSmjoLJdGSnZtNAQf5lvzY1otJkrGDMCee8/R/jH9rydCMZ0I3jdcj1AHvMIjMsH5DNuxoME/pMcUEOBFnd8VUCbGnNJRlBKihKxDmTMVK4jHbBR8YSlJx3TD+YzVBeDljaB1ZUlpRMoipd4Mi79rgyy/jT9zHBj8HnKZc0jB+l2kK5oEucWg44CJS83RQzKXF1dCS0bb0oqX/zia63xjifzm4bpJ/zpN3KyJpmjXMe6I2xXf47YRlyH5OOIrK/PNXO7rc1vWf1tS4c4Yl05wpoxUkCvSx+Ri81H+omirEHky91M7AV3QKWTop+MRU9HxmHYs+TE6uofNzpMB0pTqv7YsHQmh5DPKw54rxObgN4F7wv9Rn9xnaluQcDaZ97oGtvn1zgzzP0oE84SbpDsn9YZd3mtXf7XXOgW7XATiE2ZjLUjJIdHzgrzp6F1V1Ngx40XAlHaYwy0gpSHHWVtUYc2Yjs4ejxRQX7GqiI9WPAiXUPY6e6ga8SNKxD/j3LAk/5NTclB1HkZvPLflmNNDy1QKcrX0ZfyTY+67oo3r1jzmRyElJthr7M3lWqfyQ58JEBzDBtDv1QN3kHOY28g3o0pOak6Vzu0RT5OKE6fPbnQP9ZtvMkYRxgOfN5PK1h8mIeaO7UZq9/tSAdqr6HgtNZf1I7AOKkm1ZIRcNvk82E9WNs4TWvtGmdm/6hPvhIsHx1yrnxsqdneIo05im2NtpoS8cCbDzNT07LBMagDyIndimta1/BSex4oDniCoj7F1y6xJ7FPfnRwDbnsk+xzWqYMZCAvzsW12Fx/sX7ZvpQBb8o5UrlTKsNfJR/ub+hKbNh/CRQ7g+VQaWofaCEDr/xK/ytaF12C/ugMT8mf0YX9pdrDjnEjBDnYe/Fh4E2ARBBDY3zGscZnFhUkxrUfdUEd748HyhDpDi/noDxrGJAOoV/Snve854VXvOIVawLF973vfeGd73xn+P3f/30r4ze6U7722WFbfzqW1Ee5WFZ9VV/68lHsc3/WyRJUDj27joykB1lEBURt+QgDe/MDH4HaaKctxnw2n3kr50dbn44shWKsCBQNNmz0V3NdOtSSgXncT8XDfECNU0v+SNN8EG7wxs9jr/2uAZjJqujITWz2Am7kd1fls2oPbcqmmu9ipbBZCtbEBx9SypccUMwHqIvvaahKXv8+h5gKJIX6ACEjvPgIVF+N2z4NVI+9AVcLnWALGtoHLMBTPV6zrUouzk2r9F/lWPvDsbH0eG3rD/noGzpVuulbNtW+88IaVRHK20khn05jHzW22EjVd5io6Lhoz9eh+xPYKp+L5B8/fjy89a1vXRcovu51r7NA0WQuykO+f0IpuD5z5ozVfcpTnjK0D6QjA/P5/vvvt0CRNp+I2G6gOBrVHYHNGE0i2Dpxt1IGSROpo4kbqRnfMecoWq00woo28m5jOixo1rV1vipakqFckXHp1FqhU5cxHVJL+Y2wKCdD4U7oNrWBi1a4Qy3HYEja1FcrkVebd8GtvVboqR3q0S53qpepJ/mW1ZYf4cW76zy+73InjHPJZk6G/cUJibFl0pcnK5OTSQl5uXIZ4IsoRVpXleKGibFBtWLhi5V8nrTyOZ+BHMCeNo2mvAo+s9jUnsD5lFi0OJdT3SiI81npryXrNyWaUX9b6lu9I35tEUdRoyDKt8STstMaW9KqK3LSVHZaYzCrMSZvysqIxGtK6S3RNHmqQ/4cbXYGVsf4yDjXIRm8uhRbV32e1mFwcegh1407DWWU9cc5+nPjACbpnrRx9UmH0G+aZxz0n7oiP6Cqeclc1YbQ0IYyrTkk/2Cx1g8LUH0QlrS7cWex16zFz3ipY0vyKJfVySVZeM4Xte1xXIGXyq+q3GpdRlTUm5JTKlpW+gU5b0uqt9pQOfHjuKzAqTuleazz+Nk0HVV2WapaUlvUW1KZRfHvqA6vsJIej7w2yKYb+z8k/bmuOGLUJ+kPeD0H566/dAzK8A1j0rhGbTM+BA0z2uDmNB9m5TQc0Hzfr0Hgs4Rzmv97wvTUQTnW+7RpFp8dLKheUXrgM4l7tKHPyumYD53VGXuVtN/hM44qZ59LFKmuUfH5w+pgv9GgNx/ay9Ohp/q99qycA45zdt7vKgDpEXSN5lHa33RTdJ2koO/k0U8CFRwQMYhkI6H/VYa724z9Qo3XTPvhguh8tWtzbZE0BdHLmm8rY0lOVZN5KKdSc25B86jd1PwSxXmi+nIGVnTeZm6pnFNXZfjcI9SdqoVFBREd8esxV+UOrfRUr9O2YDtKPIJ9ZrCu/mmdaEkPbVZKUrhMGo5WJ0zV2uq/gtqBAq/qspyTRTV6XuNzIdREjd452bGzRg2lNxSgVdVvrT7xwqkUuJstHUZnSvNQAWRdeqoP+HKcBdmj82G6dzZSP37OsKkjn1+crS0rf8HaaXQj1bsqo2BwWrqfUo+bvMrZOaU6p0NrIBkkI5/147PrshZIsAbl+QC4Hq0PBQvczbO6KXGDYUX5PFFjDfHkeVk5q+pb20gjpDxoVXOIm6l8ZGFJQcqSGpFMyg/ohyeE0hFBb/y8I09tcCLlnGtecVMJ/dFmvMkkFRbzFFmZnz5/yyDf9qgNME4H1HHb4G1M4l+u69fU2ci+APJoy/XtIA1nEdpIfnO4bcNXXbWnaMbmGfZfF7pUEDdoKtDQolBk0VeQ2OxPa8+b01ya0T7Z0nxpaf+c1v45ozkzazQlWzYT5lVu3tKrMt61divUVpuad1OaZzNhICNd0WLjM4y2eAqk/eB8kn32Pns6/XR9prSRbUfH3CQiSEx5Uc/AepNPxecUu/KrnPCZVuV7KcQLqwpy7ctPpC80TVWvPkRxTShDC1HLyKf/ZT96CsLaCsJX+Oy/aEUy8UonwQnr3W70O0+XUX/Im84t0mK5wl5LJ+Tz9M32Ztm/Re2/y9p7V2Xj7HP+Kts3+w5JFvkuHVFXvik+4QB/VH7NqnSxIuJ10xXJxMeduFlFvSr911zlhgNtG9mp8gnm6vJ9pUfX36rK8wniNn6otIL+Iq9iLsATbak+85IbaGTxRgG2uLCGNn/jWWzVMdJLTOeGkD2IcdlMPhG2lPFVH9Px5XOZw/GVn82XS/IlQMNgtCDXva9Brn3toX+uOZIW9RPX4nB+CZ7vecDzN5q7gHLjbMRGdTLGQ9Nrp8Fi159mLq/KMKU1JTTvmNBQvLPE65urChoUHiiPOx8adE3CtoIahQ2SrClWTeXLUVS6Xzv1+twNi2UryoNfT0bVXv0Ykngqr67AkGNX+VBVhq0qngPxifIw0XWuMqR5G5SpcM5dafHqcWtHu4T/AeZgnIdcO8VJ6guAheGTk6MTIK+8CIZ1RXwQm7tEjBTGwI6qa6RyyIHB666uypmV02BGRI6nFmF8Uqo2kU9UwVAVxJM8aUcOqjYbUYdXLDpaVCysbnEU377O6+JV5w63qsLbXp0UD/K4Y02elZFRj+fxusvdbeXLnDFKoSXDVlEbTck0o/MZzQe+rbWufshvoWtGftfL9QdNWtxl/XHutFld4OOT6h1wTh5PhDh3wAkDJ6Z2jdPQx9C2MKjaIJSFY88X1HA3sqJNraY8XtfrcMdeOoKow504jPviqpxCDRCfeehLdxxxH3mewZ1E+KyqXEdOJXcp+9rMBg2VgxdPg2xT4w6m3Efl21EDz+fL7MtOlFafUVAj+bpsvPCnfRGbiv3Rd7WhU+/aEJMMMmmT9Ac4L+sPUA+eGxv6yI87xDhkjfqMAgo5Wo09mq8zmrdTUuNUaNSmdd7SvNF65WjnvObLK74NHeOXdPS70lNHa1hkT2rl4MHT+JSIOlKwHSGeHPZFvS4kPkbYG6VrAuAAoDs7ipgl/NlR/bMnExpXrp3sDrcIfdNPu7a/EeDUs/HUfNI4Mq9WtVCghe5qWFGAYnk8nRArbqrjV0LxjrhamtLKm5JjpTmyonIc+YIjJ+bWEq+7qTXq2Y35giqaY3zb6YoCyVXVbeto347KExWkg5fNmSh5+kd/sUGc213+oj/efztXv+u6xA3i83IttcmTwgqvt3ZW1QEFPD25I2q7JTvYUuDUkgxNXfPty/ZtgGqeMejJIe1rTAc23ryqrz2E/UcN8cSg1u0o8JN7I2qKp1ye0FAQhptj34QqDRBgBQv8FIBBdjdd3RRVVL+3dCFU24visayAUrwkU+hyV1+dkA7KYF2wPnz++/rwa8674mvBovrvRMDGa/5dycqTqr7O+32CQ2yZXG5eezWS7DVe52LNaS6sLkluyaxgUEtd9pi31tCN+kRf0a8R609VaM8sDTKpLzrG0dGfrcvYpyiuXxcllI/83j/vE+kpkV/WgVPsP+3GemVM0p+Dc+xLmubwNgB2BnANP8pDaZmy3FEe2U+NsUppEmnOKs2G2mqw18nmyDfQVNB8lT+ypL1O87CFvZI/0lReRT4OX0RbU8V6QQ3Ny6bKWDnNwEFbc19BD+d11WmI6qqvnSPaDrUZtT4ig2RnL+JmcZR3Leib9zXVo6N8nWKkA+aQfCDDKA3Pw/Rh+5X8JwIeCxrli+maACPU5c9pXbDKeFggLagWNkGTk6Yh7KWdawx1lLmxDPtDfupLNz3x7yqgahNUNdROQzZaaRZsSZ88hbUnXIncwMbOgTHgWuV4is9TdvrRlX7Yr1elRye+YDF+Kzn2S1W0TAbasLVcNee0amQgzS+1L3whaFI9lYfaInsF0/qM/8s60DiI0Uga9l7mE3sx/ZPehiRdqp8D9bFN3/CgxIsnzPjU5ldD1ob4a4JUGlgy7QWar/SHFWEfoWCMh/rgKLLraIPRWXyCyGbheToXcRvPvtFV4+my2ZsZ+Ms6BoJkyWE+tGTEz4ev8RYfbrL4myrMU1+Hvq4nrUVQPk/zy9fjQB78/fVX5gQyOKVzJGNz7PCrpwVsIhfngta6LZIy7DMXgqZ5MUFHsCuluXjxOHliAHO8Shg3IZIum2zjkMof2928zhrYJnyJUDssOIM59SPQByj+hhP6Ni2qv5LThR8j6Kjv63UVI1FB1YyPMCrPEQn8GliL8XSNdBFUjWz4L5oRYCJSz+WTrjiNpSKxmMvAoJQxrtzlhqs3zi2Nw1BX0fjGa/VXh9H8U4/JL/QZj1Gfth1ZsZF+7ZIbFEUbnk6MTi6bj6uPl13j6BflcDbt9aVYx8fSX120ogiHkdeF7dWQ0nFM4AiQEeKu9TjdXwoYN9cFOvLzCM7ZPNa26a/FRLlGuop1i75xdMVcAsbZq62C/vAX5Yx37cHaPq7tt60J6dgkJx3SKV3h1UsCRpsL5nwU5UU2WrSnc+dl9eyM42gerAdSFvxUJraoNPSsU5NfKRupM5aTQ1Jqg1cnqY9rxNNFzmWl9LcxKEdfkNn7E53HtcBhx1EiC/J+OJCHvsu1sqvYvwibOejSUjknVUfGvNRWdNJdN3KdivxYz3moDRO6VHnLWF/XdY9wJp/WdNTfWplT+xIp1o2VY5qNkc2dIsXtvAE9x7M4H+O6sj9lRHuwHnGfKdq6CrDexmwNQysgPaBD5nNMFWFnNcfM5UdXGhSceQuI7JyKriPKax6t0SfppDEqa3WZvsIXFR3LRNgo2hnjZbZ0DA/Oy9e05eR47nOfu+7VU145fcc73mGvoGL/AfsbIsOH9TdCbCftG9k2RdSOBQL0kxk8LCN9IFtBfAOxyaUc1i2Ww2684fdA8EnadFtiq0/zmZvb2IPoDxBg9oq5G0sBHw+PTR3x4zw6MRrl+Bha34pk5LdAVxjJgxRxXTIn7KALSWWpFsjRaAH6aTrUOd2nPgLwxTkpYI9euGFPwXhtWYb4xDDOK3Xc0jj1It4OD2lM92vm0AiUi5/ZpC5lR7aUFuARG49pyGp/JMu4WH4B9zUc1r7+6nX5GsyDpCyw/IL4jOJP//RP20ebAHI9+OCD4Zu+6Zvs1VObH6IUk9L4jOJnPvOZcO+999qcYA/miAxdBap8RnHv3r351dMCu/zqaQSGkynmsHlsxKYV74gMg0Sl2xwclolE2qjezpNPrdK8XgMv63eVIaTeqM5OgjVln8XSiX3JgzYFJxaW6U7H+Pk+nBi7B6TznRYQfmvHdKso2yYf7+FRRBm4G+m8XOdKwrix9zSeEDrRD57QkBXHKZYZB0ZNo6gzKDoafBLLNn8pg7z4NB6HgKPSYpYRSkyvrbzVoRwbbM2I85gvaP2Zrq06xlZrUjQOOx0kgnTDSM9HiBvAaBOQ7MgspfJ0P8gh81c+R+Bcsm6k7N0EoqNjyTiuj+U0AqroSHmfi/VQnDt8Phn74jy1bUbKW8tpPchLy9l1Ud/hbYDhGhV5EV+vaV2rXzhGuB04SaRRZg3M0V5P0dmKtgxaC2tJ/CS1CKfGbpRwnhD5vDNhEkhAC44QdAgTskQIqWNKVo76aqkvviKONWtD/OB7yYh9GpEjkWcCfOx9jNYiWoL1/eHopH1ElaOD5/kqqr9J9gBQavy6vTJxKbIyzPZbo+q1ac2mkc+1utTa1Lxo2Dm2Ow0S7cR0n7bP+UjX40G+Ax7jy2IvrGv6b7M+uj0d2dStw+oV58DW+BZBXebSxHaLZIJee7Kto8Hu0pCJvUfPvGIKRT3HtRLnKF9OFj9jDDaeu+tBvYLMTkBxj7HxJAAtKNqW2H8e5LseOJg5SIh5YqMs+5eONuM0Gl32MFk9lZ0EW4v2Nyo0akf1lWNtJUQe8HHz8uOAPNaGj5Hmq/1er8iDaJd9HJw3alsjg/Li2Kt/E3wIy7d9b/K83Chvq7iabNWViO2spi0jThwmmJNPuPRaZteouzWqjkm7VBLPvqhXItLsfRHJN7xjGE2BEed2rb5MpEsEHCBf9L7wUs4sHQYwmopCLhWINJIzFWtN/hpSWlHeeJXLFO2tpVg+0oR81U2ltnS7jHMh/oBsDKr8dTl7BY4iJbjBSOnxAm1bz3SMdzujsY/9qAR+1qKT5EWDTnkoXRNFmvJiMDiqY7+DKD7DwLMgzlPiadOIijLosOCR8oSGwaaPks7ttIDYRNKfP63aXUS5Iul/2/R5lZAvkhpRdBjIS2GaVCXvxEVSHK2LpAj0t905ylwoum1AFHdK6ka8ph3JvxzM15ifD49WJtafRF4uUmw6zgxdlKnQzciOJ/XKpPLltKGMRrKpqjviX94Tepq7UL8g5nWxJuxcVZSuMx2x1XwOj1cs+dxex66x3+S7/Yyve7MGlGyQHOKh1InEV8lHUmnGUhTXctGLqspAurIuXjSsgUiFVffrGHiM0nEb44+548wqzc5Ji+UIkuMx4UFNCYjU8eQS6RJ7e6WD3jG7XIU2vt53Emx80HOkGMBA3OQb2dqRDefIK4nF+TBvlJba/zi/xM6OxXkhy1hS/uUHrRS+kPTgkpkNsHNfN7HMkIZl45r38qZh02nsA/xJjeeA+UxgFm/O1Pu1UO/Vda6gjZs2lkcZY7EpfL8tF8YO8mpwmSLvKIOtfVW0BwaywWvtMDe0Yt+jjhIy4QpK0qM+4Bj1Ev23yCO+bBqP2HieKtoTV8rouszb5mUB+jcswXlBpLjNHkuFySlqWjuxrTH2UXaVz3/zueeYpjJmR9ePe5QRvhujvE/6Ncft7qEZOw+mx2WATxAMQTQGoz9MbkLK3yqNNu0xxB0QHdfUGZNm13anRKT219UpaE26ykWjxrHoG0dPt/MyXTrWcNEFy8WWDOcFAUsfGpAij6OuI/l1SsmCLpG88FKayg95likpUyL4DGWy/yNGBkyaNZIWIc1GC3LIo1wsPoQbjZQeL5hsLqfkMC0UskeS2YRG2hgebB3o3PsIednRc5ToNER9FLxEaZ0hwUt6HOlVdZDHiC2oTDGd5R9HbjzIkZbjxa6Ddn33kjPG+dAxLmiYX5YRrfjavEhiwq9LX6P1DWiE7ehvHAfEMEcGkgg4KZA5ECrpo5nWdkfMSElpYJgSecNyRVtr+CTnTsyzWFA0bMd5JZRcO9Y4OWVynsV5aov5hmcjMRtRLOPBIMFhdFwUNJoTE9Ox2ZGPRtBIEhf1o3Deh5TiSrQxt7pF25aaaB1+ksv3iouHMY9HOy+ofG1pzH3NKiPWxejJSgxaKEctyo5o2F0DjUFFH408bav0xEDaW5sbNucLnfJnOi9skR0ppfnhQZ+ujexcmi7suL8hEvOKcytD2miOxVGLdCVoPs4hpBj2LJK91WSrIpI9FYw0kjzWi+Q9ien2J+Zx+kYutBZ1jL0icIt2kM95xp+hKvRvZbeC2NaICs3qlJGD54hocyhBLG3XjAx5Olqf19PaPo6n2ENoVM9HPY58+UiZeJ3y8b81KNThpUZAx+Mp1qF0lD2Va31aDBi9jy5nmUYSQBlXM5jzuwBNHE1Ef8UlnkfiP3O0SxQLqOa6tAlEYf1LyzNd1/Mwaay8BRvFn2WkZOWpK5KWCGI4t2zA4rrMiyBtyprmKIoGbDtAxoLSPqyBl1H2sG9cJLRNrAvqTKej45pxUQP8YfZtA4gsrlyMEZAk38xGG80YFP21Y0FRL5pkRjFN/0fYia6LTbH8Z8OKzhKKlUybQ4rLvWhjeO1lExqT9PiAhpExArWocyMyeBkX1OnSUAzBGJJ+NyPjgHzbIPVnuHEXf6RrZhSkIjqOHAmuI434CEXiKH9t2bW0ln/8D7hMOojUJT9dQzYynCRlU4LvSLaijMHTClifHc6AA0yMUXFdHAHjDw15FRrzdC78mjwL5EZ9Hcmm8fJ1Y3+kjAiwnBQKDmsYJ6Vxzn+jspayfQyrcVJciOH6eUWjo9YmAZVZkTKNhbcZyepmDGGqk2rWHNETAaNNgphi04xLHQzFSRy18t9au+xkK2q4B0SK+4JaTGg7g1SeQ5eKYf/szCmKNFxHJNFU2pxfsyn6xmik/4rz2D+3cOiDDP7njyNrl0AF3eu6aC+Wi2VHSNMQCALxPGl2fdUx8HI0hy3gBrfdvCr4Gc+Con2OVFQzivArT1EfJEyaOuyX981Ft6SYVv6LKMon5Lkuz2SSVcNGRsWOiDwxsGYLxNPI1a+2ip2Ygxm7D1bjZUA6iSAZQh3WkiawkRtJyhXXGElL83MmO+fxffFJFOtEPiMqp0We3q7/xU+6jIi/kbFOKS4g4zbsw3q6VAylVXNmV1Mij/SiTIqhfUmRVPZgfRwQu5zn5WPe+L5uhfTfkIabnYhXGxmJuoSO3wgXz8f17UpAWb+c+r6H3E1I/eCnRzinHylMH5ZemnUEgUqPxLnKikwPdu71RnXiD/yX65bLJXmav6O1hcSjtJT033p63EDbyIASiqdGRjxFktMg2cb14ZIJva2zMaTR3sYUZd0eDYPEJG1IPmQiL8OXCNhaTcmNxRoa1R1HwzaTOsM0ka9/f/2p+PSsnVPW8p1XQahAZyOiLJRA03FEPsZigo5hIiugK6iYx2JaVZGUgDtO8FhDRboBGUk1555zQr0RooOqsrTNPlJQ3FPgEeWPb6JE3ZijCN9i7emiaPsiID5lGjuv1oHWSlQ4ez5uTpvDeaj6mLbLdK2DHmo22HD40uA8kub/cC5FxCmw1tEmL/IZ2fqRfR79jUvzP9YDfgdz020TXMeNyVbpolF0iL6OoAuTzz8Dr+tqlBcarS2KrlGiiPRR/Ug61+KOshY2l6qU94HwwSjma4SViqeG9Hpt2aEu1JRUHElFvdSQhuwYax00vvZZ1Vr8NnH7EvzCJlB0zRyxehGjNFLX0lAWkcEM6IjgnPqfpNkcgJgfxbyKxnc0hygzenVWxX2+bkS0psJrKZWvINouxlgl1Gwh+xaR8iyT55eR5mfsPphtjyNo/vEdfFpP7Y8vdgfGIqXdhMnmNEG+qw3jdOl9xC2zJ3EkXmVIx8efKG74VHFTRC0w1vG1GzaBmLpVurh2r1SgSByx0eeHr+qFsAHK6+NKQTrHXfW8zlkeBdKcNu8HBcbN3pQcNMwcWB/orS0fG13b9vi667GWl9yT2F+yBAsWRWs3iVGbuwbvS5kydhTDGaXhTuf/OmTd7yjStbvGHg7n+bhBuHjAzdtZ017MGY6v3ySKb5jxbHEtfH4Mqw9ByvrUNTA7sh4EY5txHM7LskCG8fUvGmsVVJzvIP+MKw7jZ+ZlgU+mlK4++B2y6JzsXj/S1sa1Wl67m4Kdbx1hhEtpGRkZjwu2vaYfLxRybkoqGs/130RLdnFY19bOsJXzpVBRxLEMUsbRZcPQLu9UUDJOeiijDAsWy7Tj47EewyZSKvIeX6Sa2ArS8hvVG+UP13Ha+Q1RVBizViO8PseUhLSNYTsc/XybcDliB0aUppdpA9iTu4Ri+apEjfbJafQUMeU7iTIytoYcKG4bj08/dr5VN4IpgXFpGRkZGZeINUZrZ6zYbkBuV3G2Ht6L3evNTtvk3e/B1Yrxmrr8e+T4dh9vXIw0aS82qjsufwv+iGVvxDvl4ecT0jYNSrcCl6WQx1imaWXaDKXyBb91fx4o6jySY1zalY/82unjj10MFDMyMraHq8+oZzwx4DMzz86MjCsT23Gu/XfmONrv/PX7a377jvOd/i26S3L+11QtLNGm/Cbl069y33S9abBYtDuB77qc8cUuGrsRPO1WfEZf+D3FcSDvYuYycL4cSefIj+9vh1+G9CjlDbWa/lL/m970puJsd3GtDOBOG9WtIutvd/BEMzQ7PR7ZUGdcS3ii2fsr3T5f6biS7N9znvOc8PKXv9yOPq7vf//7w6/+6q+GD3/4w+ZYd7tdO+J0bzb22+nbxc8jtWFPzSZg+Dow/LfSBrzK/JI2dprfBti6/gjqi9MCY+tawFuWeev9WNfG8EXsBGPb2BqQmXl1/fXXh+///u8PMzMzRU4IDz30UPjmb/7mcP78+bE3K6hb7jNlTp8+HR555JHwjGc8I9Tr9WFd2mEef+QjH7F2jh07VtR6YoFYL4337rvvvuJsPHKgeJlQntC7hay/3cG1ouetYqfH44mmv4xrG080e3+l2+crHVeS/Xv2s59tgeJzn/vc4VPE1ZXVsLS0FFbbq+ZoZ2RcbhDEHThwwNaGrw8Cxde97nXh7Nmzdl1GWtbBHGbuwu+Nb3xjaDaaoVqrDm9yNBqN8N/+238Ljz76aNizZ09R64mFHCheIXiiOQ47jSvdEblW9LxV7PR4PNH0l3Ft44lm7690+3yl40qyf+MCRbnf/GfjjKwuL9eD/iZjT9Ut9M/m0EVPo834F4y3/KSLzpZ5ptc7zW8DoO/idCOYFOV1OLauyqxL3Fo/BvShXMzaKDMc18bWwXzxueZHQKD42te+Npw7d86uy6Bcea71ej0LBnlCybzmRgfUbDYtf3V1NbzrXe8Kf/u3fxva7balPdGw3UAxf0YxIyMjIyMjIyMjQr43DjhPYUCn0zEHnHhAoeKGf8ACyk3Iyl30H21MIOML6U8JW6Z1f5eJ3yZEwXHpZRpXbmxda1ftXwRRu/xn/8p0SW2M6gIPFoGnj3vtdBKov3fv3nD33XevCSSdB8ebbropHDp0yNIzNkcOFDMyMjIyMq5CbNV5yriycCWNG6/18XmuM2fOSLD1suFoDx11+dwEjxuRO+dboXH1t0QmB/XHkPGFxtTbDnkbO81vE1Jz9pv2m9IYfmPrKnE9xR/l35zgu7YfSt5iG1sjwNxK5x03JU6ePBn++q//2s6Zf9BWAd9utxs+9alPhU9+8pP29PDjH/+4EdcrKyvDtjM2xxX36mlGRkZGRkZGRsblB6/pPe1pTwsvfelLw1M/76mh1+8Nv7jm2oK7ujsVIOw0vwwHnzHkC2fe8Y53WJB34cIFC+zSz8tOmp8eUF5783fnsN1XT3OgmJGRkZGRkZHxBASONU41n+EiQORzW1xzjnOePunZKspPa8bxuBi+lwZ/IoVsOxHc7TS/jBTMD155Zj4yF1NsFAT6vMpPDCcjB4oZGRkZGRkZGRlbAq/3QTjkvJbHkxueNF47gSJteXs7EdjtNL+MFMwf5qIHiLxG6k8KydsoCPR5tVGZJzq2GyjmZ7MZGRkZGRkZGU9A4IwTFEJgamrKzv2pIkc/T68n0bgyW6l3eWmn23+8+3NtE/MlDfS4iUEAuFmQmHF5kAPFjIyMjIyMjIwnKNw556mNB4k45mUif1w6dY4fPz7kUc6fVG9XSf00Gpd3MbTT/DINifkC8STRv8wGbCVIzMHkziMHihkZGRkZGRkZT0DgiPurfQR8HHG0CRaBP+UB7oQ7eYB58ODB8JVf+ZVhfn7eHP0ynMfjSpVapJ16GrjT/DINibnlYD4xL5lnGY8PcqCYkZGRkZGRkZFhSJ/uOI0DDr0Hii9+8YvD0aNH7XpS+YyMjKsPOVDMyMjIyMjIyMjYFngaSbDI5xpnZ2fDvn37QqvVKnIzMjKuBeRAMSMjIyMjIyMjY1sgSCQw5JVTXg+cnp62oDH9vbuMjIyrGzlQzMjIyMjIyMjI2BYIFGdmZsKBAwcsONy7d68Fi+lnzDZC+fXWrVJGRsbuIQeKGRkZGRkZGRkZ2waBIYEiX4LDN59yzSupgIARGhfsXSplZGTsDnKgmJGRkZGRkZGRsW00m80wNzdn5xy5Blt9qpiRkXFlIweKGRkZGRkZGRkZ2wZPEPfv329PFPkyGz6jmJGRce0gB4oZGRkZGRkZGRnbBl9ms2fPHnsdlC+18SeKgOAxvyaakXF1IweKGRkZGRkZGRkZ24YHioAvs+HaP5uYA8WMjKsfOVDMyMjIyMjIyMjYFggCCQx55RTwCirfguqfT8xBYkbG1Y8cKGZkZGRkZGRkZGwLBIK1Ws2CRb7plFdP+UIbflMReMDoTxjLVK1WL4qom5GRsTvIgWJGRkZGRkZGRsa2wBfZzM7OWmBIAMfnE7nmC208iCQdlIPES6GMjIzdwzUTKD7RXnF4ovV3ow0CXWymj62WuZJwOeWZpMu8EWdkZGRkbAU8PeQpInsGASGfSSRYhDhPg8SMjIyrE7sSKLqT7uQfcIaAGxngaZvB+TwRPiyd6gniehJdSXBZ03EaR9tBWqfMg/a4g+ntehqvxLgMnJNHupMj5fV4w2Up06Ug7SvnZZ6ksQ7LesnIyMjIeGLD9wXI91MCRYh9hHSOPE3kVVTy0/JexvfjjIyMqwOXPVB0ZzR11rl2uPFIX1FI88eBfPh0Op3Q7XaHPK5F8v6mfXR4ekpXEhhPZPKx9yCtTFsB5Xz++Bxyvikf5pHD9eVzhPIuA7Kl5HB+u4nyODtNSrtY0I7z8XPXp+e7LBkZGRkZGYB9wfdK9g3fS3nNFPJ9pF6v2xfa+Leg+n7i+Vz7fjyOMjIyrjzs6hNFDAvgfXbuOGFUCPaWl5dDu922awzRRs5qalQoS2DgdC07uRhZDCxH7++VDsYDYlwZc98gtgufOz5/ODJnOJLn7TCXzp07Z+noB10xr9jIuGbO8Y1s/lqM83P5APzIuxg5LxbI4bJ4X8Fma2E7gBeAn/P1NO8v136+m/3PyMjIyLhy4fsDe9PS0pLtH+yjPE30bzn1vePAgQPhyJEj9mSRfZU80tn/2aNJv9b9tYyMawkVLeChR/jBD36wOAvhTW96U3F26cAR/9zP/dzwOZ/zOWZEaBKjAn32s58Nf/qnfxr+9m//duiobgaMzM033xxe/vKXh8ceeyz8+q//ejh58mSRe+0BfWFUn/a0p4VnPvOZZqx/9Ed/dGyw6M7/lQA2EsYbec+cOWNpbBTJlDOMk9k3lxRcuy6o49dejjR0QrtsUKurq2FxcdHKMweBzy/KEkAiGzJBnPvmxdFpN8CXAiAzge2FCxfGji24lPElUPa7v2z2bPJs2mfPnjU9oSPyXJ8ZGRkZGRnAA0P2qUceecT2qBe+8IXhK77iK8JTnvIU2z/YYz72sY+FX/7lXza/jD31hhtusP2FfY39hbRJ+9hW99u8R2VkXDyI9dJ477777ivOxmNXogoMyK233mrCfN7nfV647bbbwr333muBz4te9KLw6le/OnzZl33Zmt/f2QiUwWDdfffdFjDiZE9yrK8FuE54nQM9oj9wJRtLZOauIuP7xV/8xfaBdzaI7cpMeQh+bFBsRMePHw/PeMYzjJgHgHzmz/XXX29z7OlPf7oRGxivwrAxcUeTuYhc3LSg3FOf+tRw1113DQNal8/b9evLjYMHD4ajR4+ansDlaBf90fdDhw6ZPjin77SN/tJAuYytyDOpbkZGRkbG1Q320pe97GXha7/2a8MXfMEX2E1GfC/2YPYT98G49huf+Hxf//Vfbz4e+y2gbL4hmZFx9aD2vUJxHh566KHiLIR3v/vdxdmlA4OBQ45zzpO/D3/4w+HEiRP2NBCDcvvtt5uD//DDD9udKowIAcHevXvDddddN3znHUeUp0QYpMOHD5ux4hXET3/60+Zg4+wTLODw8mQGg4Qxghd5x44dM6cYXjxBInCAF09ZaJ+y/sSLupRHPq49wCAdeXC2/cdlV1ZWhoaPfPp74403moz8EC0GFbmRn3IcaZM7bV6GNOfjDjdy0n/KwINzAkXa+K3f+i0rQ5sQdUgH6AL5Ut7wpQ9cE2ihI/pKOvKiH3SDTpAVndF/+kw6dxNdZ4B05CMduWiPDQJZKIdeeIr8kpe8xMoytv6KMTpHd8hBHvJSD97ef9eB9w+if8jCfLnzzjvtnLHn6Rh945obED5X0Bnt0BeemtE213fccYe1DU/6zlgwzjz1RIa0bfIdXCMf8rtMALlc5pS2A+YfekB3yAFveMDbx9X5eh6U6ssJ+Tg6vAz8mXPksw5ZX/Sb13XPnz8/LOf9Aikfl4U0lymVMy2bkZGRkXHt4FnPelZ4wQteEO655x7b6z/zmc/YXsoNe/wK9mD2AfaRBx98MJw+fTq85jWvCc973vPMR8Dn+7M/+zMrg/8ByntG3kMyMi4/3vCGN6yJ9/ALN8KuBYoYFxz8P/zDPwxvfetbLVj8gz/4AwsMeZKCg49j/6EPfciMCILzRIg7UgQFPEUjKMGhJZDxQBHeOPfc7YIHBon6ONvu1PPUEV6f//mfb3LAi6CBAAOjRVDHE00CGerhrNPWl3zJl1gARTrXGDyc6yc96UkW9GIgcfB5pYJXK2iPoOOWW24xfpSjzwRD8EBuCKOKvDxpQ2bKEFjRN5x2+kQZ2njOc55jfOBBn2kP/OZv/qY56bQJ6AeGmiAJnvSX+ujOA1X40hb9QmbXJX1CN09+8pMtgEBWAlL6Cw/4oQfKul5dLtK/8Au/0MqhR2SCN+lehr6xAdD+qVOnLKjk7iIbD23edNNNlr+wsGB6pC8AXmkfGUvXuV//9V//tclLwEM6euXVlz//8z83WdEj4888Q37KoBP6+ZGPfMRefUY+ZCdQR3b0RXCJPukH18iELB5sc0QuiDzmhweclOc6lX0zoBPq0hc2WPqGXAR3HNEdOnKd0D4ykk67nFOHPJeVNJeHI+PsNwPQB+uEtgiivTz8kJ1z6nFNOXjCnzycBIg80lwW+gofgKwbUUZGRkbG1QN8MvZqfCx8NvZyrtk72YPYC9gnIPZa9pxXvepVtmfwUMD3Zew/e0p5L8j7QkbG7uCKDRQJNnDQP/WpT4U/+ZM/MYfSDQgGheANo/P+97/frnnF4XWve53V4ckWn80jSMCY4ODTMV5dJfDj9TmMFUcCHoIqHH76g1H71m/91vBVX/VVFsDxJIkAk7IEio8++qjx4NUIDB93yQjWkOGNb3yjPYHiaRj4lm/5FnsnnzaQFyLYIRB54IEHLMh5xtOfEb7zO7/T0mn7zjvutPI8XSNIxkB+9Vd/tX0GlKAG591flaQt3htGXxhYXtnw1yvhQTBG35D5t3/7t4fOvQct6ObFL36x9YX20SeB2POf/3zLRycYeO7yEQwTJJFGUIiu0c9f/MVfmC6//du/PXzlV36lyUdwia7J/6u/+ivrA218zdd8jT0ppv+ME30gmCXgYmypT2BGsENwRYBCm3y2lPGFLwGS65NA8eMf/7j1y4MdDzy4pg10ip4ZE9r6y7/8S2uPAIg5QRvctSTgQk6u4c0dTnjQf/TJhsU4+4aGfOgdfSAXcw39eaBMsEYQTvoXfdEXmc7Qqd8gYOxIpzzzCVng73JsBgJSxpI5iR7oG3MGvTOG6JHxRT6OjAvjwbpgHjEG1KdNeNBv5jhBPGXoE/2nrx6MogtkpQ/wRHb6x11i2uQcvbJGGQfKoH/4IRsyISdzEv0RfG+lrxkZGRkZVxfYl9h32G/YK9nj2FtJGwaJlXjDmn2B/YMAkn3jF3/xF+0zi/DwvZ10yJGeZ2RkXD5cVYEiBgMDg5NJMEgQ9xu/8RsWcOCM4vT+l//yX8Kv/dqv2dMvHFsMEE4/Tzsoh3EhuPzxH//x8N73vtfScWAxVrTDZ+QIxAgM3vKWt9iTOGTAscaI4SQjA0+/uONFIIQxIyh46Utfau3+zd/8jT2BJKCB/9vf/vbw0z/90/YlPDjJOM8EWDjqz37Os+0p2v/6X/8rvO1tbwvv+733WT+QAf0SYBBcEVzwhTTvete7LDhCFgaLQArDyyseyIVx/Zmf+Znwx3/8x9Z3HHf4kE4+uvWAimDj9a9/vemVfPr7gQ98wAI/dEtwwKuaBJ/0g74iGwadvr7vfe+zYJnghLF6xzveEX7u537OnvLSN8oRlBEUE2wfOnjIngz/4A/+oNUlIEQ+dEYgS1DDWBB8/+RP/qSVYayf+9znGp+f//mfD7/0S78UPvGJT9g4EGjAmyCWvtEnnz8EYgQ1HtyjP+YMY+OBIuNA2+iHNMogN/0n2IEn5QhiGTvGlLbQBfwJotAPZRhXgh7GhmCSvhFg0ifS4AFv6tMWY07a/fffb/0FBJoEtNTfDLQJP4I4yqNrdMV84Iue0A/BHkfkZi5wjb5oj74iP330MaV95ENH9J95RR/QEXJxjg6ZF/SBPrMuyIMv7RDIMw70mznE/AWsFeYK6wTZaQfdIUdGRkZGxrUF9gj2SvYM9kt/k4SjBYlFoFiryi9pNqws/hk39t/znvfYPsZewk1M9inKO3KQmJGxe9huoDhaqY8TMBY45DilbmxwVnFaMUAYJZ6c4JASTGGgcJJxyimLI00gg+P60Y9+1IJDggmCAwJLgiLK4dz/0Yf/yF5VxGjxvjwOrisIQwW5DJxj1DgnUKE90nCqCQp5agUvgi0cdDegyIqjTvCKLBBB25vf/GZz2OkXstEXyvtTMgIRiDt0PAlCdpx7Aj2emv3RH/3R8HVKN8zIg9H1wAp+8II3OiJ4IWCgLNc4/QQJGG7kOHrk6ND5x+DDn36Shr4JVJCPgIRzysCP/hIQELChd3RL4EXAQlu0Q2BBwMFYoA+CCGQnCKIu7ROQevCJntAlcF070C3jRPsEk6dOnhoGkb7h+HgxjzxY4Yh+OFLOy3KdlqOMP/mDD4ScjDWLifEm34MhbjTQd+RkzODrd1XhSX8pQ1na2QqQ3fvkY4BcjBe6hA/p3AzgiC4JSmkL/VEWPTGnkQH9ckR+5CAYpz/0i3aQlXkN6C/XgHzmHTdjqAt/2qQsvGmbvpHH66uMBzdW0B368T5kZGRkZFw7wL4T7P3+7/++7Rn+kYgUpAN/ssh+wE1j9nbfe3x/Zc/KyMi48rFrgSKO5Dgn0h1cAhHKcO1PPghICGJ4DY7AxR13HGCMDYQj65+3AjiuONbUhScOszvcK6vxKRMBDNcYMoydy+U8AfwoCzwdoh5PdcijDO056AdyExyRjjHEicehf+c732lGFsNKmwQ9BJW8xkHgiBF+6MHYN/qPQ07fkJXghkAFB97l9mCRvlGXa+rBn3OCRp5i8iQXRx4dcYQ+8P4PhHqtbk/7yEcOAm4CAIB88CDgQz4CV/pOvgdU0IWFCzYmBBnIwWfd6DN6ID/Vmwcm6IWgkH7xiiOf0+SVTW4OMGaMhQdcnCMHY4+O4E3AVG/Uw+zM7DCP9gAyoBNAXYi2KccRuCyU4+jnlKU++ZwzbuifseSmAv32ceWcPMrRJ/TP0zXqEFShV39yB09v12Vw2cYRZRh7xhIdMBYEaPCjXeeBHmiX9hgnylEPXZDH/PKntMjKOCEjPGiHPlPez9ERQGbKcvR6riPK0x/mEm2wzhhzDxRdtoyMjIyMawvsA+wh3Gj+5Cc/ObT5vneBSlV7gP5xzX7JDUpuIrOH+p7u+21GRsbVgV0JFDEKOLU4mZxDbjRwbHGsCWxwanFuMT4YExxRnlYRYPG0i8/v8QomzqvfncIh5gkadXB24YdBoy0IHpTzp37+ZAYHf9CPcjngkTq78KEufFx+5HbjiKHkSBpEGQiZaA95IJx8nhDh1NMvAgr6QN94WshTOV7h/PAffdieyiGzy4UMyAoht8vkstIuMOOr/pBHffjAlyeRGGp0hx4JAD76Zx8Np06fCtffcL29vstTSNpnE0A/8FxeWrYAlzuBPD0ln89YMg4eKNO+y0P7bAyeh65cPy4rY0bwwSuovL77u7/7u6YHnnx+wzd8g33JDn1Mdc01QRO6I50jr1QeOBg/04deeapHWfIJmNAV14AyjDv86Bvy+PjAG7kp70FqGd5PwJHyUDoX6Be6JfgFzGdubtAv2vY6rgfaKVPaBnPGy9MfgmFk5CkiBOg3QTxPnn3OOw9kA/BFJ/QbMB4A3uQhv7fjoC+MIzy8THoE1AHwpS6ykYbcKa+MjIyMjGsDbt/x0/g4EMGf7xO+NwD2gv6gb/l8tISbidTzvQZy/8hR5pGRkXHlYNeeKOKwEiC5s47jiePKEyUCBBxiAhHK8cSCgALiM4V8jo/PH/K5KeoR7HhAwxNDXtfEWSWNJ1MEnTw54ekjdTBKPHUhMKBtXnekDMaMpyHu+PJaK08hCTxxxAnwOMcJxyByxLjRLg41bXAkjTwCNBx5eBDQ0B5OPk/M/u2//bf2Da7ITkCGM863vv7CL/yCvZrK0zrkgCeGFd0gI32jX8jBEziCEAxt6vTTPv3yp1rIRADKB8j5zCevHhKQoU9kpG3yCRB5/RP9cJcQHshHmXanbcEPP5zLZwn9M330D13TX/SAXpCFawIw+sw5wQtyAsqTjq6Rny9NYZx/9md/NvyH//Af7LOUbD68HssYUB/QN28H2clnfOFBOfjzSir6RjZ0h84YN9ongPRy1OeJLO0gM8EmeqMNyjNeHuQiL/XpD0AvXDNHKQ+hM8pB1CeYRc+8csyrNgTpzCHSaQcd0Wfqul5SuI5oywM1Xm8lMOfVap7C8joo/WBOMe8Za34mhVeBuOlAno+Jy4jMPi7UI408n8PIRnn0530DyEgedeHBNeWQE31Tl7Lolz5SH3ngm5GRkZFxbQF7z37MPslNXp4WsqcD9i1sP0fAXsGNU77nAL+EdPaQcXtfRkbGlY1d+TIbHE6CM77Ehc+88RTry7/8y8MrX/lK+2ITnFcCEYwKzjxOJ46wf+sjwRJfSvPsZz/bDBVBI6/j8flDXpskcODpDTwJxjBkfLaP4AdetM0XofCaJTz5bT8CChxwAinK+7eEUpbzr3rpV1kZXsnks4gYQWQlGOEpHUaQQASeBD6k8fSNcnzpDXx4qkQg7D84z104nvQR8KADZKJvyEMZ9ECgQUBAv/ypFMER/ecJEnwIIOCF4XbDTLvt1ba9oslnCpGL+uiPb0LF2acv8CZoIQAgHz3z2Um+fAc9ECQSNPHaKuOFHHzTK8E8QRl9pO98mQ08+FwoARKyICvts3kQvNAm7fPqKrr0J2Pw4qc36D+vFn/pl36p6YTPAlIPGSgHTzYcrrl5QDsEr/SfPhCg8HSSOUM5NiHmAkE1AQyyEAxzZ5OnowQy6JhAh3RA/wnoAH2hDDcVaJ/AiwAbHcOXNtEfbTH/aJ++Ih/9hC/EUz50RVs+J5hb6IFAm/o+bg7kpU340a7frGC8CUSRF/0iD+MEb9phPfjNEnggC+Pj/WQs4cEcQgbSkQEdIj/94Jq+URYZ6CPrxoNtgkzmDv2gDdpiLOkPumKcCBxpNzsCGRkZGdce2LPYJ9gHOOLXsW+zh3CO7eeLbHj9FJ+Jm8zs6ewPW0XePzIyLj+uyG89xVBgTAgccChxQt3g8MSPoA6Hn/b9ySNPVdx5xVkFvBfPK5Q43zixOMInT5wMn334s+aw4vji0BJswJMncxDtAfggB446T/Mox5M8bwuHmDIYPRzpBx58wNoikOJJG+3hRGP8cMhx5nHiqUeQQRCIo48jj3yeRyDDHTieCvFEi/boJ/yQp9loGl9e7+RJH4ECPNAP8lCOgIBgB1m4kwev1KhSFr0hJ/0jIPDgg0CJV3Yx3shH/wh44U1b5NE2OkBX5EE+ZvSFcvSbgJi+E/hx9G/UZIzRP2AMKOs6RQbkJ8hBduSGL/LRN3QBX8bEA1nKw5PNif6gD2TysaIPBKroy59kMbcg9E7/qY8+6Dey+gZHH6kLDwIe6jB23PkkH71wRF70BR/SaN+D0rnZOdsQ0Yu/WkNf6RdHyjKf0QX6YyGiT/RF/TKQFx7Uo036CdAD9ZGVPsCTfPqCXPQD/VKefJeRPlGGesjEkXlAOWSmb8hJmwSKlIcfY0F9jrRNGfhQ3vl7kEsZdMk1ZVjL5QA4IyMjI+PqBnbd7Txgr2A/wO/yt3hI8z0RP403pdi32UfAVvaG1KfJyMi4PNhuoFjR4h2uXha3g9/52ylgKHgiwxMSHFuccG8Wo4LAOKKe54EET1F4akFAhjNOUMdTJZx/ggxexQQ43pzjMMOLYIQnUBgu+OGg8zSFJ0wEBrTFq4EEgzi7gICUJza0SRoBixtDyuEQ0wZtIQMGEBmph5JJIwikDgETctMuhpX6HqwgD0EBxpUnatSnPwQq8EAflMFB96dQBFOU8Sc9yEAAa4ZZunIDTjo64OkRTxW520d56qE7dAgYD8rTHww8gQFBqBtpggrq8pQMfcGDvhEIwItyPBlGRgIhAhBAn+gz+iMgAow58qATnjihB3jyJJE5AQ94U558D/poI+2fzwtAH5GbOYBMtEcexBxiPDiS7uMHL9/kyGODY/zghW7RAW1QhjFBRx4YwZc08pCVcrRNfQIs6sMHnTFXkZdgjnTmCXrxb5bltVTvRwoCUQJCdE1deKAnxp50xpbxgyfn8CIfvSIX6dRBDvoLkIV8dIUu6CNzj/Lwgi99oI/w5Jr6HjgyNshFW+iCsrTJNTqgDuNNGjLzhB4ZtoKtlsvIyMjIeHyBvXabzf6Fj8A+wttXvLHkbxgBbjrzNJE3v3xfTutvhHF74zjk/SMj4+JBrJfGe7yJuRF2JVDcCtxAuFHxc+DXV4pxKMu326D9cTpK9ZOeU+ZyypoGYTsJ+KYo9xFQxtPK5UF5Dm0EylC+XNZ50Mc0byt6pQ4BP6+HEpBxg2KzOo5J/JFhK/2ZBOc5iQf53oaXxTHwV4sJZgnQSeNGAGW40QBtFZcif0ZGRkbG7sP3Bd9ruVHIR0le/epX20chuGH51re+1Z4mckN+3P61EbZaPu8fGRkXj+0Gilt/efwyww2QO+N+nl5fKcCYbdcA7iRo2w11qhuXy/OdLresjNFOw/uXotwvL+N9dl2k5HNoEtKyfl2G51+sXinHk0WechNcbbUebbr8KY2TcTvw/kyC56Vy8vSQz4fy+jdPGf2zpzxZ5GkwX6bD+aXKlpGRkZFxdYC3VPjCNYi9iRuhvO2UBok7sWdlZGQ8frhiAsWMjMsJD47KtBvg9VyetvG6JwEXG+fVBA+MeR2VV5h5pYgvU3rPe95jny3117y3EzxnZGRkZFxdwL5j5x3c+OTjKOwFfGSBb+HmIzRpkJiRkXF1IweKGRmXEWyYvKpJkOXXV1MwlcrKps9nSAl4IRwD/5Ibgm7/0oKMjIyMjGsf2H3sP08U+bkrvsSOz6t7XkZGxtWPHChexfCg41qkawX0JX3a5seriVJ4mvcjfTK7HcegzDcjIyMj4+oCNp+PHPCN4fzmNV9sx7XD94ut2vscXGZkXHnIgeJVjNQIX2t0LcH7wxO5cj+vdHKUr9nQuebVI//cJa/Vkl6mSXCemR5/ysjIyNgu/CYoextvl/D2jL9uerH2ZdweUqaMjIzdQw4UMzJ2EXmTy8jIyMjIyMjIuBqQA8WMjIyMjIyMjIyMjIyMNciBYkZGRkZGRkZGRkZGRsYa5EDxqgHv+W/lXX8vl1JGxuXDxX4WJWOryGs5IyPj6kDeBzIyri3kQPFqwUDG12kikjJbKp+RcXFwZyANErODcJnAx1ptLcfLraCislBGRkbGbiPvCxkZ1w5yoHiVwB2/DU2uBYUMqVM20BkZGRkZGRkZGRkZ20cOFK8CeIC4drD6k58aWMA4LkikMF9dHb++OuPi4Zocp/6MnQNTub8FutZg82ujvtkTRlkEW+sRllScZ1zdGN4YTCiFW3GnUnbGDgP9pjouj8dGKJflMo9bRkbG1YLdCxTNi4kUNz5MZCT++tAA06mU4icE8isLI0RNDHR0vUVIm9IlDmNNqTU5lhUjSg6fKpIvWM04BBmXAilwYLp1KhQqBW/kQDCvr5U5vRs/80Eb/JlijTiU9MdY2HhcOzDdiqq2tumvzzEdtZZJI6+qYqYNHfntsklj4nPOf9/syoJksz5GGVMM9wnbF8b37VrFaN5z8Pkd10PMs2SDjS82X7ri3Cnj8iDaeOna1lsk/h/euCpS0zLxGDE6W3t+tcDnWXHBf0Y+Hzmnv2uoyMnIyLj6gAdy+WEbXRXzEQ2Lbfw9XYnk7WBgukqHfMMD/JDruA2PfAjHxx2kSVQu4+dpWspzHDkPp3J+GZ4+qXxK5TJ+7kf950yNBtKdci1voDLmSPZroderhk6vEroMaa2G8lQuqS5tW1Gd9+AgPv1+b03b42gz+SDjX5yPI+fhVM4vw9MnlU+pXMbP07SU5zhyHk7l/BSmR+m4L32HQUNXdVE11PjhYeWT68Gi67yiPABvkDpzzPFxSNsfJ19aJoWnpZTWG0dp3rhyzteRpkHO36mcPwmT+k8Nq6vZ2u93jGzmVqR3ZXa7XaX1lIatkIIh03xRN6Ux8pVpHFz2tNy4vniZtLyfQ5sh6gD5i7J0hz/Vram//PV13lPHexK1rzVO1yu9QairSl1pg15P61+r2ttLmtUsG8418v3cadL8A94H51vWQ5qXwtO8jTKsnv1xzrjJXqmfpPTUOdVSinquunUtpgodZs8o2kuprPvN5PO0lNJ642hSG06T+EKT6qZ11oBLJrnlkSD9aR5IkSIlVFWfPVNJA9I0dyqQzuGV6puxrWkvGDcGwGVyObYin6ellNYbR5PacJrEF5pUN62TwtNS8nqb1XWkdbyclXWyXVR7L8eB9lDRgClc11qtK1Xn/Upfa7Kj4tgpyrMvlPgUtFPyjaO0zFbb8DTmTWoffI5BpLM+6X/od5Um3irDnsdKliZkv0Saq6Ynm9hr23Je3h7HzeTztJS8X1vpG0jreLlJlJYrn3N0ePlx5PXSOp43DmkdLzeJ0nLlc44OLz+OvF5ax/PGIa3j5SZRWq58ztHh5ceR10vreN44pHU2KpexdUz2EnYQbFMYyao2wLoMS33QEXVDTVTHkIj62gR7GCJsT2FQ3DCV4YOfUjopUvLy4yZOehxHXr5cxpGep0jLOl2qfPpvSDEdAwwUJGqXWu1Ww0q/GtrVWug26qEPSX89AkuvqtLc8RQHmW7SnS5dvnHk5ctlHOl5irSs05UgH1dGzEt5A5VBXdqvay5XQkuj0RS/hhx2qKa5Lp9O5Qoe6F38JjltZZTlSa9TSjEuf6tU1p+T8/Wjn4NymXE0Dp4+ThdeT5LYHO31V3W2qsJd2QlSOqHbW4ppOidgNDshBdu4oGcR9bmR4m0N+Rb9LPc3hZfzdC+zEaW8UtqoPhjpgLmhdBGBIbA8nfcVIfa74t9RumLmals+aaeieaZASgu60vV2irb442iEkxbBdapzzp0mYcTH20h5x7RJGMfb69FHlkZPEU+/Ug+9WiN0a/WwrAC4V2kqEGJF1bVByfFU2Yrpd7yOy2OZUhnjymyFJrWxFZ7bkc+0RZ4Fi+x/Va0B6VG6GMg5HygojKRoRHrDJUfHOO3OL9X5uDFwuAzbkW9cma3QpDa2wvNyyTcJ5XK0rZPiGjm4cdFVyW60R5V26NS7odfshV6jGzqNTuhUlT7AdnU0dtz8UD39wYdDPGK1OIzaSmkSxpXdiLajvxTleQS8nl1je+XLVWWjq722rdGK9IOP11S/G/12aChYrOiadO5zlJHKMo7KGJdfTnOahHFlN6Oy/hzj8jxtks6dJmFc2c3oapZvHF0O+TIuHorfRhr84Ac/WJyF8KY3vak4uzQQINZE09rkMCAEh1UZ2EGlJwNblbun4KbSEMlZoGylJhusciqPMVpaWgpTU1NjNzvSICZUp9Oxu6dl1OvaTMXX77g3Gg07luuOu7NOHcqTRx2INigPOCePcuOwFfk8bZJ8OLvdtgJr6cU2FRlegmrlhlZzKnQUsCz262FF+uvWVaLRD/K5Qkt7W62tzWt5OTTEr6pgnHfVcEQBlzXakP77ckouVr6N9Ece9SHqQK4vzknnmnJclzGuDa5TbCYf5+12e1P5/Hoj+ZAQzavV0KjNhN5qR3ruhbma2u3JIWCzVAnuNXc1Xp1aNZxaXQm1GTm9Ou92ukP5AO3Au9Vq2bGMbre7LflSjKs7rg3Pd1maTTnp4lXWH+XKut+OfA6Xk3TqezlvC0Q9639sxGBR+tG0bvJqteTsy0EbSM8D1qHsxnIjTE/tjW1obcTaEX3puywfKMvn7QI/p0y5blrOQX2wmf4oV9af64B69XrM50ZOT4FhVXOspYW8cl72rzEVmrKRVWVyU8ICJzWrFuWQ9kK71g+rCqSpa+3an84l7kp71WRi3iEHR9cDR+R2mcv9K/eNun5NWdcfeeW6yEE5KNWzl1M3JL1sVl8869MyWC0FipWwuLAcZpvzgZYq7Quh3j4T6jWNuemGZxUjHfrYpPJ5u5vJRxnynIeXKZcb1wYwPYso7/sB1ylS3tRP5SONvaksnzvTfQXM2JmBdNSTjZ+amQoD6WHAE0Vs9qBpNnxl6WyoK63VqIX26qrxdMCX+YV9Gdc3l3c78jkoQ1lvz8uUy6U6QBbmGqCut8+8BH7tGFf3UuTzsuRtVBeU5eOcYBz7Lu5aHJ3QY81p7fW05y7rOKApBfHcIKz3qmFKVOtoDva1jrRHWwH7iIhspOwY7HdSPr92UJ80eKT620obaT3GgXLAyzKnVhfOhJl6T6S6A5UP8tN0OoWf0e+EZa2LrmxXh5sdsl8DfLtExpRnOje2It9Oju+k9Uv9VA++Psp14V+u6/JcbfJRFl5XgnykUcevy/KRz/VW5OOc+hkRxHppvHffffcVZ+Nx2QPFmoLDg61a+Eff8MpwZLZhgaLdNdfAderN8MM/8VPhz+5/INT3HAzVlpxvBS3cTK3yZEwT4uzZs2H//v3DTcPBYmPgz58/H5YVDB05cqTIGYHJ9cgjj4S9e/eGmZmZ4WTxSZfWHTfZwMmTJ22y7tu3z+oxQX1yUvf06dPh2LFjwwXncPkuXLhgwe7FyOd1jx0+Ih9YE19bDAE2DjHSdnuV8NkzF8IXvfirwte+4Q3hgjav2lTFAvOGgstP/PGfhv/fd39vuPnIsTCjQKXOXT2rKfm4Gygdn7+wEBYXF8PRo0ctPQV9RL75+fkwOzs7Vj6vO0l/p06dsrFjDMv6W1lZMf2iPzcIDtffwsKCEfrzhe/YTD6vuxX5Dhw4YG36PKP8qhyvxx57zOTzTcygja/d7oXlU2fCF919T/jGr/iKMK+gpCX9onsc2rb4LKiv/9dPvzmc7CrQkqMHf++D88eIHTx40PLKMtIP5hd1vMyW5BPG1S3rDzz66KM29+bm5tbpj7FljcB/XF3KnTlzxmQ5dOjQOvlwYJAP/buz6mAeMDascdoHtAkopRmihNXw6KlPh9d848vCS172/FBv8mQxPkkc9FvhPb/10fAj/+kXwnVH75EwXjOBDMkZ6SCVjza4RnZ07/JxMyqVj3NsD+W8Ljoo6wH9UZc5CG/yXX+sXXhM0h+6QsedTjvMzkkHKqKa1g1t06EpR/PCI6fC//Habw+fc8vdoaX1Ln9UNqAfVrTOf+7XfjH8xgfeG6b2a+xm5IiJJ0RL3hrtIx/rgz4A+gYxPswh5j4yp/0H6IZ5tWfPnmHfgNd3/aEf2khB3xhf2vC1meqAgI8nhw+fXA73PvO54cnPemFYbMyF0JyVYZOtai+Hx/7mj8If/tpbw3X7awqGaJ+aIx7o3uWDt8vo8jG3kI/+TU8rGE1Af8+dO2d9wLZMWh8nTpww24SN9jZ8fFP7xXUZ4+puJp8FigPpSrb5woWVcP31d4Q3vvGfyNZLZkUg9taNZkd/oL00dMNPveUHw6c/+Wdhfq6l4HLt+NI35iDrHyB3CuRjnCbJh06Qj73P16gDXtgG5g/rZ5L+0A9twMPbgDdw+4D+3G6kwDZTPq07Tj7kZ46lcPkYI/hT1tvYSl2A/thfqN+UrxK7x/7bDr26bNOFk+ELvvjp4RWvfUlYbiyHQYuh08zuav63a6GxVA//4bt+KHTPd8Pe1t5Q7VFAdlrBYl9/5y+ckw+h/X2MfMiAfMztzeRD/2X7D7D/gL13nP68DWwX9j8FZdEd9ol86nldjtjvC48+EL7pZS8IX/L5Tw4NXg/vT4Wq+lblqavK/M3Dj4Tv/oEfDvPX3aR1PaMerw0UGV+QygdcPog1jmzIkII8/A9szPHjx01/1IfoF/n0jbrlvrn+WH8PP/ywrX/2pzLY2yjL+gSMD3wB7X32s58d6t7TU6A7ZLzuuuss3/uYysfYlvvm8nkblyKf150kH2sE/Y2TD/vAup8kH0faGGf/AXsPOnb7k8rndQ8fPjxRPmwXNhr9gXHyYTdZIynGyUc56mdEbDdQvOwhNk8Up+TY3H5oLtx1xGlPuOPo/nDbkQOB7acqJxszV2cgNbh2507EJGOyjJtETBg3rEwInxwpqMeCSScIBs7rku6TbhzIoz5I6wHqUN/zy0jLUmacfKCcXm6Hujxp5WmB/IchOK2pbLvfDbU9M+HAnTeHA3fdFg7cfkvYf+sN4cCtN8lAHwkrvdXQ1eZFXeul/sMZqVS4S7ix/gDpl1t/4+pTFgKTygCX22Usy7eZ7l1+ylOP+tRL5VsHKbDZUHud5TA76IU79uwNd07Phrvm5sOd83vCXaI75/eFW+Xg1FblVMghcvnTNtno2YwngTLe/kbyOe8UpJX7Ng7OH14A/pQv629SG1uVb1x9D1Q8f20ZztFVJ+w/NB1uuX1fuPF2He+cDjfdwXE+HDzSCqud1fiUMc7uNeA1sbIOvF9gI/m49jyfU14vBfyB99n15+Vdf+NAPnMAHdjrpapvX+ilZsjD8W8vLIfjc/vDXYeOh7sPXB/uPnh9uOPQ9eGmI9eFGW2wXZ5k8xSD8R0jH7xpA9mMZ6EPCPvKzS7SoTLSvnFO39LxpU3X0Th437y9FMUIhBVuRjf3humDt4TmobtD/dCTQ+3Qk0L10J2hO3sknO9onVTkHNBmEiQC5+vylOXjOEk+0srjOw4bja/3f9L4lutSz9viepL+zM5LHOZDtdYIhw7fEI4dvyMcu+7ucN2xexRY3CPnSUddhzAV2qtagwUP2oQf5ONb5u/wspPk20x/1Ie2oz/XnR8305/L4XXL+vMyZZDmeV7H29ysLu1RlqOVEdmeCWkWMj49btaETqjubYSDt+4L8ze1wvzNzbDntqmw9/aZsP/2+XD4jsOhN9UP3WpH85c+qi8FDzG29Q1/5KO97chHPuTjM66c1/d+bEd/gPnD/uT8KQt8PNorC2H/TC3cfnRPuPvwXLhHPt7dojsP7gm3HtgTDs9Mhzbzjzv/pbULnO/FyEcaeZDrj6PL5jyhMsiDN7RV/XH0MYK8rpcpgzTP9z5RryzfuLqpfJTZqA3ynKe34cet1IVS+TiS5/JBZaTybaQDTx8nH0S+678M0siDNpJvXN1UPspMKpexdYy37jsI2/Pk/Nj76r0V0Wqo67wuB7BqE4VFqkHVhqilKNdQNTTQwCfSODAZxoH0lJgsabqfAyYPRDvAyzhR18/L8LRxeSCt6zKMg5dxAmldyOTUXyGlbTZ2VhNfXjmqh7BY64e2znndsav6vZrqaWHxKgzfu9IVcXSqKI8vWfG2JsHzXBZQruOL0Ms4UW4cf8/383FI63KchLS+n6dtctxIPj8vw9PG5mksmtJ1U2JN9XthVhvqTK8bmjo2dKwTvPNqkfJ63fg5OgeyOE/mHZuxy1cG5Sb1fSP5AOlef1IZMC4vTePc5eOYEnlOZYxLS0F9+u79T/nYwUjt2lzlFr0clspiGFSXdFxSIp//YZNi/RabDWImJI5r+KYYtbU+D6T1jHdxLJPDzzmmdYFvVOOI/nc60oH+NFKFI6m6qq/eKRDUXFJas18NTdnJuo7aLq0sjiZObI3XVtWOtTg8iaDt1L7Rpsvn7XOchLQv5XJpXhmUxXbDH3i5YR27rmk8m3Kip0Wz6u9saPemQncwrTFWWmiETlfyq+xgTDPw8fmdrpNhG8X5OFA+XRuTyqXpnKf6S9P8PKUyf4iyXt55rYO9MaJ5Mfj/t3c2MZJV590/XVX9MQwYiMw7CW/0Tl6UCIQXKAtAygIpC7MyyAuzC1IWnlXkrCZeIJaIhTU7KysSKRLvzl5YkBUsIrGIBF554wRHijzChgyMYfgYpruquvp9/s+5T9W5t++tqu7pbrq6f7+eZ+655/s859xzz3O/asf0sZP0FOpkbd30sTmTPe2v+53G3Ub/BnLLWI/+bxJ1Kt1l/ebR1Hvk06T0D7e2pTvKC/+mRJgo6zevnmX/lvkEZZlN9sW3qFbLSoQtVtfyF8ZH5rfdM6NpPaU7g920bXPVzsDOxYO1/Ba1Jdj1R6alJ8vXek1ip+Va/ZrMa5vih96F4kY+bSIifpnvvDJE1/EbeU1sblqzdZzWclrfbUzy+m7d31u0eWXX1m96dFrv0koH+5vpRN7N+oR/G1GP0KFoa09bHpE2iHTy75Iyfkk5t7al0baLCFP5pURaMS+9iPByW6Zdpm2LmFe/eW0s8y+3kbYk4pYyL28RYV31i3zg7mkf/UeOLeb08reu/GvRbBOQTm671odD2x3bAmhiE++uzSR5Kt4/aNpEg6JcCJWDo4xTDp4wPJVG7nkHuq5gaFvG1cQpP6F9ifJvEgdDlB/7TRQWdVK+MTGXZVqATbJZN1GSFpSetxmGMvyGdvKZmHEYy0htvZ4+QZueLI6MxRD/IILl4/kbXfWLNopm/STR9jbdS39C8Ur9BZFHG0ovltFf5KE0bfor61RKV/8GU/03sSZLexum+01LP7AT4rrpM2vU6mP63tWHV/Q+kS/66kT5UffQYfiH3I3+4upbpI0ympT6U/zIP/wjTPtNiT6PMrRt1i/iNin9lUc5fqTd7JY2LR89rr6nu7L6eITJXlwFVj4mZixGfqX0WvpX2yhT+5I2YrwpXG0KHTYl8pRbeSpu5BtlimY6ScTTnU9rrS0eTQf259jGnyLQitKOZh3Z2ubjOcfRQkzGoi74WHaeJuttJk2aYVEPbZuU9Rfaj/ZF+q600UZJlFf2sae3tvT6myZbVvWN1NMJYWRj17po3c4H6+oDnTfMWyXsLyWXIzTeVRfVL8rUfln/EtVForjz4kW4topfjoPQT9mmUiKtUP1Cf/JXeKTXfrDnatUlkJGdG++k4cTMjYH63Mq286TOlWOLpKNsrOOgRStRvoi6ivAPKcOWrV/Q1F9bHFGGd+lPNOsmEZFvW/+W6ZuU9YsylVbxlVZbSeTVFPkrXGnVHzrh6qN7Fmj7es1k3eYd6wsbs6PJelrbuJj2Bls25+cPMe2tbaZtsxLNTrd89NEhXQjX8av67tqY1/GQy2mrn/zCv1k3SdRPEjTjCMUTpf6ijEgfcUrkFyLa8s5bq4v+9CSEjlUdwGqj2mb6n/TW09gvcuhcltMFUb5QXmpvWT/RVb+2/tU20oZb/tpvivwVLhFtcYTiSUJ/sa96qoygmVbxtVWaqEvUU/WOsss8QwK5FS6UV5MI1zbqF/sqK+pX1itE8UN/ofOoZ9RPYW0SyK14Qnk2iXBtm/ULt2jWTVLWr9SftsvqL8KE8oTDk1dDx4y6ysUmW184V1t/HMPcCrWhY3+26FECKJBGJOqq/dqp1DcNddmzg62SJh69OLjcr3GAwcGYatlOjv7dgqojskb394EmupgQxVHrvm3yPOoyjhLpQTrZj04kVm+fJ+ykp5d/tBAJf6Exvrd/EbIKzPpldoKcjgs1p1KJf3jKRB/J8GPd2tzUluVUufYzzbMixl9wXGND+UbZOvHXqRpoho8+TKR3m9ZsQd2fyN2zrbXRq6W7L7awrlKcBzR/+GPI7rZF0drA3LbQ0l0sbU0bsql1Ds2GR73/pO/yeJqNMzgUOsm6nrOuZbSrH2x0277GsBmOfr4tx6j0b2Pe/PTElIzEfIFHfaa+2N9vp40YMzGeyjEV84d04O1Sm3o2R0s0T7uEoVIdvS3rEQA4/cyO/GNCU43mh9mjj3vmNqPQJxR9OlqLCd2l27bK6KuRk2KyXV3i5ByT7d2eqGPBpUnXJ15N3JrATVvrpmB96GLTVhhajrlo3nbl560WmfILqaZuOAQaz1rA6cum/nXTXt/G9bp/wGZnYH62r4VEXs6j5SPBDUUZibpiLbF9HVPqjL11kzOka2+TxFpkMrBju+ePAtjxb+uvgTVdx3NXay1JNjYUoSvSKcAX1ntm9kzsHCDLx4xEvzFhIkNJP0Ogz+/r/pl+GsXXo9N5MN8VaMqqI/NBY3kv6aNf+kiGHjPVxx7kDoMxd6pfcHUXHD/Stf1pDJrS+7rAoYsZNnbXJ2M790qGaWN3ZOfisW31GoKNbYvrF3ZMlM6PydzLK09+nDSf68a9tbSrL8D2x3YYD9NeXx8eG1rITtLPocm01loPAFYPra6OF53/TXTVSSc4X8DY7KnH8/J6yCYPiU0kMRGf5sXNYTiKBUxWS1aM66hCqtNJqG+ST0ZmoPgdlqprPTzH00VRX5SZt6scDo36QKf7PKbz1WJ/l6rqKTfMTVzvnuL4OSuL5Rk2hmOwe7P0n2s9u6eDWGP9+Key4yePnSZqmTdVutAxrv3wW2G8OdpWEn2dmxWBezZ/ZcmhZ5fc7gq/8CHRXal896q+1N7vA8eDD0OJze8al34E2ljNPaR+0AfzdEHDDCJtTbTt6RFTT+GJK5f1WE6++lgj/Kklb4w0Iaet43q7ttWFvbG1Vve/NU6rORsAVg7NYydInlDyFVOd/GIK0ekuX5nStHtWp5PyanhI+Adyx2K/ufD3+biK6vNztXXj28X0abqd7OlqtOnSEwjTqvKpRAvMyLUso6xX1Cm2JW31C3eXtBH+zbjhf5qxWppy9H8esdKvRrUWtPqx/XWTgZ0b/a7uCbIKujsw00XzbDzPjMXYX3XUkJmoRXH4aoS5v45F+9dsrcfNzoh5KinnEnepLSa7dhzp4mF+LSH7+cXF6lyhR1HXfAycbazJ077Lc4o5JJVOfDx4hAgIgeMmG4nCe6boExlGYxu/Ev22or5wmn9jcdcNJj9TWHylz5KP52p3hfG7pXag6u6qHhX3112qsMyKNxAAnBM5++YTniaSOOHLIJQxo0dpqmtO/mUs3QmzyeWMnvtKI6yUMiyIBf/UePK9rJqpWHQtqPRI76i3lsZmKO6abvWlsYkbilpo2T+PnFP5fVu5I99CRFmveCeh9JOIZto2CdrCJPPC2uRUoUFt4pc59PicSX8ySQOr50BbNxSz/6xX4WCE5rTVWJRUftNVtPrBjEbJSrN/lHjrzNvvVOu4UxTt67C2rSRwdx6Svj2tTOeQStQWvY6gnxvIhqKMxspQtPlMjxWv6Uf5y74/w6iFuZXV3GIid/S3uXKY6crDqnkIjhk/wKoLOC65T3zs9iZuFI7Xdt1A9K3tZ/+cNPdbkPPKstr400x2wEr8EVvfVus8k3z59Oy0F+A8orPvCWAThE+0lXt60s+zaJ5MisclYR/TE1ShynLf3//Uwkt+lTE+nZwjARwtbrzGgi7uJso4ND+T6Xtk5RoBlscHtxzSYswZIut9tkBedSOxA2tuNpiyaN/XX+GfY6023qbZHUW1Kv9FY+NRets/J6ileXmdJY/vaszLT0ai5pipHxwv1dxTGT5CH+KL12bk9rvittWFWN8W4zlfxDJ/7zGNaeVR5bnSrFnzzTCMu4lmJOZt3o84ALDa5FkPjpy2O2KSQ6Mr8D0T25Z39/LVeZ+yrTPbJ+UztbA8RUjb7RoHOF60RrW16OqPP01Kto7OP3ES82ZsFVDNm5IWYl4NOSu4DVK596GwhsBxo97Ixl3c4V9W7YrnFz6mebDsAoDVgRnrmDm6xUssmHKeOVff8U3eqxwlrCTgLKAhrKFsm84F9KqjKzrTK/EF3vb6InMaq+PQrtQ1ldNN1LClpqvRgOPB2n1mx/rKUfbE8kZikOPTmwDfBGfpIuI3AYbiqlCN8+kJxxxhI7pUxqPfYPTzkR5R0jbjboXpT+/+VIG1O5OG51NI6ddGlz/AUeHXOrRtSvhrCJ6JYWjHoRmE7R+FMIk2ukEpn8WNPhNqOaf4GKADAQCWJtay+oH+0WjUukYt17ywGAzFFSGbgSbVZnbnITwy8nXx/8zftn5A+D95qsuzKw6WOGDCIGxK0BUWW4CjxsdpdtYojcSuOKtKd1ssxI97iY65eE/NfCo9wNkh9ywAACxLrE0nk4kbi6JpFDb3YT4YiqceLRf0MvyuDX5/Vb46ECbVj1Irinyz/36UVgJHR+iUpRwcI7XhFQbi/hPcNITheLawTp1eD2wQfQ4nTaH1w3SAf8gGAI6LMBT7/X5aX19Pg8HA3TIO5a+tDEgZkrAcp2LW8pOeLXJ8ocNiZw42yDXQ0dE3Tu6DZQfssvHgvCPDQB+eEpqc9cGaaoaUA84J1dPFnfiIqCJovLDkOWbcYs9P43jfaFfEdg4RX92V1zg5HwA4evSzbl9++WX6z//8zzQej90ojDuLMhjl/u1vf5tu3rzpfrCYEzIU9VHo/EnvPF1WZzhD06UmT/8cuIWrk+P3+4K4QlDKuaE6yfg9rOrc4jqbiuliTR/eHqfe2tjcumJiB4XcLXe9OEUdBukwJHRqenYRplXrJI3y+JkXhej34Fz7FklXsTSu46pWk+b4botzVlnc3hjtgUZxNZI9yNLmFZjJ6qCxIBFq/2Qytq0du9KH+3mQofbpmPZZwEVja9eSTseY4VtPm/UZOs25zZiv66MjxnpuW/OJB7lNrL36eRmdH7JfhfWn/7yAWcr6rbrz9NXmrJk8u8RPMGiU6KKB/1adiQ/3GrP+blKOM7gLpuqN49Dwvsi/HdjbG9g4lvR93/vIx63+dk2qY0D+Oqm3d9epoT432ZxT3IHJY03HqLXL56ZK3M+045LH78TE//YP2hNBdS0FVpPov0VzWcTTeNUdRRmHkvJ3wfXuYhiPsJisuWOlWj7bJCLpyaixfpbsTmTp507NcSZp0Jud1PYvLmZ4msqojAEQA6QUUYaHW9ty8Ihm2hhIilOKUB3LAdtMK1HcuOUddMWLsHBHWfrwjKZnXxRWIjTn9lQHOwH1zEhc72u7bWvJry3sa9PlMPUHFqkvzdpWeSuNpDrPefpKVHYXuR45Tlm/pv6aRP9F3ObBWroXyTyUj+KU9VsmXZz4on7alul7+jkSac8Ws/lEP5PxaJgmNj7UP73+umWiHwVft7CB9ZGJ5bfbM6PR9B91Keujuqr8qEMbi+uX3cpLUtLUfcRtQ2HKr6m/RXTVL9pa5hF1DBFRpkTHWvg7cirMipC3fj5hMtYYt/z3+raf87Zi05oN6PxbluYuRP2jPMv6NcuJ8pu0ta0LhUmirLb2t1HGU9qJP05u/abGe51UN6tHb2QyNNnx7V5vnMZ2bI8GKY00RjVneo6eUpsp3jaTaKfvV8gdc1wZ3hShOkonoZdoW4Q32de2Kl0NtW0ytDnL5io7pvrWDp0TJnvjtLtnJ/I1M5zX16ytuuiyX5fKU3lH32g/yhThH+0oJdIqbvRfFxGu+NpG/rGVfxeRv8obj8fTcqPscl+i3pfYadHnfRWh303c2x2lvoVrlnFzxOad/poNfou3V+WhVxEkJcpfKLyNRfULd1MiXqTXtguFSxS/jDsvTRD5d9VP+6VfSFv9IizKjThtKI6Oe0nG0urPzwW6CKuLstV4M8tob8faON5M65MLacNkMFmvzs8qS8fY2OKZaJ5SPXatbJvTQjdt9euqm1CcSBtE+lIintxN/Yk23UWYt62oSzPcX4XR2OxZ+6bGou1bmC7/SFPWO34sW+/l+I18JFGO3DE/R50lbchfdRfRRvVV1LfUSxOlVbzmvB7lhYjIW2XJHbIobeg16qWtRGlFuJeVLhSmvFRWGbdMo7AmUT/F66pfEPm2ySIUp61+gfzb6hf+ii+jLgg/beXf7BdJxBOxX9KMA4vpPpqOEJtHrSSbIm3O1Ql/YgvoXVtMj22xN7a+yie3iQ1YDSqPWutoudtElIO7LU45kAL5idK/K622ihPlNKWZphQR8URbnLb6yV9M22aidbHrsYqmjaLt2cQ6sCl5yxaPg10zEMdfpP7kqzTY27HOtXZGvsrSRAamRIsLUZbbhupS1q/cqn6l/ptEO4TilBN5UOZfSknEaUNhZR3kFvIPactTlP27X1Rn5WNxTI/5JKdTXz79jcxQHNqJd2RqHNlYHg02bNG+kYb9jbQzWE93THYGlbGojCqUd4nKj3o0ZX79sjTTBG1p24g4obdSf7HtShtliGY54e5qm1BZEu2X8ew/X0wpJ7MbbIxbnSYD89swuWD7W2aom1E+sZOwGUx+B936xLThaUIiv7a6RTu7UH0kQnEjbZPIP/KLeFF2hHehY0IiFDe24dYMPemb0dTfqWRoY83GnVkMQzOiRppTlX2UoXQq0xah0qEdcf6Xg6o8jaa7TYTqHlL6L0Lxo21lnqWoz/pplNb3hsmOnLShi1uTOya3baX5lZ0XzDDesFnMDEWf+xooj6hbEPshzTJDtCCN/o30sS1RXPk3+1dEXm3pRKTTVvFiTJV5Rh6lWAxrb9UGc/dMR9KT5vl1C5WYVl3WlJ/na+lsjvK09leiPGNbyqL6hX+bRFwRcSVNFFdEW5tx2vxKlE4imvULf+03pa1+8o/9cIsynaStXYptIS5uJEosrtXOzrWbqbe9lQbbF9PG9n1pY+fetD66YIajHZyamqxf3FDMO9Pzr18UsjymZZhbRLtEWa+QqJ/ilWmbIv/Qn/ZDJxFWzjtNibTl8VvGdWy9pvXcrsUbm+yaW9uRnfNGfVvfWVozD21+smMtRmaVPvJQOSLaXPrLsNU24pREW0IXES/ilvl1SZmmLbzUlbZlfsumFWXckOiTtvCSiNOF4kcfNdO3+QUKC92pLhEvZFH9FBYSfk0i/WHrJxTWLCPSlP1TitD8Hhcdyr7QNqS5XwrUmc1Ix4R1Yxpa532yM04fb0/SjZ09k0m6ae5bQ+uUgQ3SvkyaakKzsRv9pAF2zz33uLvZker8GAxCL6y2EXGFBlEsEMqB1JU2JhvF06QVaQLlUw7CEvlHGtFVhoj0Ub+yPNEzPfhBYNEkQpvxaJQXEjvDNPn08zS5eTONP/kk7X36hzQ02fnsMzMeTbO2iPA0dgxJtLDUSWpR/aJesZU+mvWbp784EYW+YyvUnmX0JxGRVxOlVVyh+il++GmrcrrSKkyU7Yn6CV94me5aqmd9YifCvbX06c52+uCrL9KH42H63WScfj8Z+fZ3e6P0P+a3Y0PIjXzLpBQhvW1sbHiZzXDJovrJHW1vIl0ofZm2iyivqT+J8lA9oy4lcXwoXqv+qj6QtBHt78Tf5emn7Ttrafv2ehpv35+++PRCunVzM332SS/d/lJ9O7D8l9eByozxoLDNTVvkVe0oUZhEbVj0mEqpP8Ur9SdUXpv+hOqjx2OC2V1sy8/mxY2LW+mL3Tvp4+Gt9MlI8nn6n+EX6Q87X6ZtLcNssbYzHtlYrfRciPbVPuk46hT10Fb1UrjCPG0Dhal+Qm2Lx3iE8lJb5demP+UX/dvV9p712z3rvbS1tpP6d26m3pe/SxeH/5Mu3Pl9Wv/q96k//EMa2PBY02MQPuPVUd4qQ2WpDNWlbEvZB02izgrX2NC2TQciwrr6V3Voa2Opr9C1tspHaeRWG9r0p/DBoG/9Okxff33Tmn87Dbc/S19/dTPd+eqT9PXtG+mr2594uH7taKof26gZUV/lrzpHXUuiDqKtfpKu/lV7Jco3jq0u/clforwjniTqFGU2Cf0pbrSlrJ/c8+onyvopviTCor1NVJ7SxLhQ/mt2XKp1e9HNe1YPm5vWhjb+vrQ+/PyinX8vpO0Pey7DG/10+4YZOtsWa2zp7SRg2VZt13GoMdtev2CZ+oVu2nQQOurSn7Zd+lMaxVUdQl+lTuXe3LqY7kwG6eOvbU1nc/THd5Jttb5bS38Y9tOXk3W/UNq3g7inC6bVBatAZUuE8ov6yh16iXo2kV/Ei/EdY0th4af9pkTcRfoTkUb1inQh89KqbmU7Io325R9u5dFEfgqPO2bKX2maRN0UJ+oXeSq9iP5uEvVT3Lb6RT5tRJmhv8irjYjbrJ+2Yl795K/wra2taV0D7d97770+PptEPKWVaAwpfll2bEO0X4r8YMaaKWWq/XfffbdypfT3f//3levwmMqthEnasAXNQ/fZSdGv/NtEY2c2PaK3a5PMzU+/9DuLvY3NNBrbILXBoUllz8adBuLOzk5tsgri4FH1NcC1bRtw6nANlHBr4CjusmnlH1KmE9qqjm1p5Xe39dPib+yPYtm+LRqVum+Gix5BsghpsHUhfb1rk8kFm3C/ddHODLboWt9Mk+1hfrx0dy99fvNTOdzA1HrLt+bTsz44Tv3JL7aKGwer9pVPIP1FWEmUo/wlbXUTbfVTXnIrnbbaD/8SlR1hyj/qWtY996/tVEm18biKZ3p+YG+Q/tfmfd4vk3WbDG3hK/tG72XogYkbn99KQx0JRf1Vntje3vbxrYshXbpv1q9kVr/l0sqvmYf8Qv/SV+hJ/qX+DlM/oZNdW1qlGQ6Hnke5WJBYy1zWertpOPk63fetQbr3Pqtjf2T57Vg5Nvn370k7d3rpsz8M3e0XUBrFq/7N+sVjLPIT0l+0uURpRZlWdT2M/qL9zTLkr/IVL3Sg41JpdJDKCN7+/Mv0f+7/dvrWwOZA+9MjXbbuTEMzoP7w1Rfpyzu3U88MiuH2TtrSwlJ1tXyilhpfWiAqf7VddVW5KkP6v3PnTuf4i3opLPQmt9qhrfJS/s12CfkpTdk2+UmsZ11yI7fSuo6fjfvSaG897Qx1rNt80je9jL8wg8gMRzu89bhlz84T+guUv/QtifpFX0Q/yT/KLVH75beof7WvcElX/0Y+zTJibEnkFlGO8pNewt+xQezvdJlzz8bBzo7SX0h/8if/1zxMh5pYrHpWuoXbIs1mls9v3Uij4e3U1wEgY8TSDqw8of69fft2unjx4rTfS6J+Cgv9Rf3UFo2bWv0KynYfRH/hVtxl9XdU9Yu4UQfta9ssV4Tfrs6vnlfV795HkzQyGU5GafO+rXTfg99yf38S2MrZG9vcYedeq3n68uat1Bvbamei8Wtl+cUvq58ubplzzerX7+WLHYer30yHzXgxXuPYF8vqT+UqvdIpnlAab5/Jlq3X7nxxK3373gvpQVt/6I53Whv5+F3T0zXmc+vOOH306VdmU8sgNCPVjUWLVg0R1UPlqH4aq4H81OdCdWgSdQhR+mi78pSf9iNtUy/aVxlinv4iH9WlrS/mpQ1/pVEfKK8myjPilMS+8og4zfzFvPqpbpLIv1lG6Eb+p7F+ih/h4sKFC56fylRcuTVmutJ/+umn6YMPPkiPPfaYj1+1UXGVXml/85vfpPvuu8/m1j+pUpwvZOuV9t7TTz9dudo5dkMxv8BsB82e7n7Z5Oj9rv80aVrn7ZnbZlgbUrPBW3SqBow6eRFqRgyqJjGIFEd5NuN1pZV/mTaI+iivtvzaOFT9qo3uaslPu1oG5uWAuW1ClsEyNGNyOLEDtreW1m1xqXe59P6D3mFRXSd6ZLK666KUykfdEhO2OFT9KrrSyk/xFa48VJc4+CNMEgdxieKr7yNv7StuG836RTll2mb+QuFB6Y74Ub9aUu3on056thgY2CJg08bxuk1G27aM11OSGvP6U7/pFrnyjvyVr+qnfdUxJtBoQ4niKL5kfv3a29aWto0oW/G69NeWR1cZi+qnuCojiLSzeNo3scWYrnjoHUQ99rtrY1yYBq0MGR+2wNLz7P7hiP1jI+oXblG2tVnvktK/K06gfJRvtFdtK9vepj/tt+mgbwaCz4NW7f7GetodmnFnu35xyOZKfSBCj3u5zWDjbNfKiHG0aQsmLcYsmmtQqPwoR4u+WFSpPKWRn+oXfVbSTKs0Sq9tuJVHE4U182piMbw9fhzpXKC5am1gJ/8dHTlWuPW5G0N23rD2+gdcdAdH6QzlL/1Gf6oeoftoS9kHTaKOErnnoTjKM/Jr69+2MtQvUZ/QU1meFjCh18DPl7pYYO3ctflD7+IOBpu2ze3UnSjpRo9bS0/5fGD6krd0ZPlHXVSm8lcdoh4lqp/8FLZs/QL5RVlt4SWKo3IUL8qUexn9HWX9Yj/cbemE/KdpermelkB7LvnjLJbedjXrSPZsRxdqxuP87rpr2rJYt/r7Ez3KT9nI39Obl0Xyelgfu/dh6mfxQo9NFGeR/uTv7SuIdM08oyzJBTMUxyPL086BPeWnx0v9Y3o25jfMyLPjemTz1va26cIMBb8wHflUzVJ+KkeiRb/KVV2jXPlHXWMr5C7rIrfSRZwIi3jziLhd8eQf9VC8knlpo2xJ1EtoX3XV2FbaLj0rjfpGbsURZT5BhEf9Ii+ljbwjfUmZV1f95K/9yDPQvsKOs36hH9UlJPIoaStTcWQofvTRR+k73/mOj3OhuJEHhuLBDMX9PXTE2DCz/+3EumaLnrVNmys3TPSWhRk0NkD0/smkb52nW2B5zWeTqDo/D1INEM/H3KWI6HgRfk1iYEQ8EekWpZV/mT5E+80824j44lD18xOMFo92MJl/7iyrUyW7fuVyNw0s3padbLZ2zVAcmnZNleuWrmf5rlm47nYNpF4TbePOYpTjuS5Zv0gTIrrSliiu8hFl/K60UWZZThuRb8Rpiz+vfmX6LrEcKsm9YKdGG7+2oNfJUO8j2oL+9qCftm1fb4bu2CAe7q35WymxRsjpc11ynpaTjX9dbZNfl4jF9dtPW9o25N/Un/ZLIq8md1M/+UcbQ2bIbeKTgelnsmnj9YKN23tsirhoGr5gfmbwmJFoKZVZlaaO8mzWoSyvq24i6tOVNiTyL3VW6rOLSNvMT81wt/4si4Eere3bWJLYXLmrx/TNcIr4uoOoOVInQz/hRvpK4mQcZYqos8Jk7EWcNom4cnv+BbGY6ELxm3kHlrOJ6WwysgrtWFu3zfdra48dQWtD62OTvbEZyJZPNQ/m/3J5UW5s2+onosyyDiGiHLttRNhB+1eojEhflht6iTxnYaYr3TvV1zNNdEdqoDtZpme/0FrpSdukR07dz8KqPELXgfZjXJT+QfgtX7+6iIPoL+J0xW0SZSh+WW6056D1K/3n1SHiS/xin/WL/ZcDDbl0FtC34tYtfGN3kjatnHUzWjftnLxl+1vyNz9/9WNPovKrxHJI7ByhJkRZh6tft5EjIk6guKG/yCPKDYnwprsUV4vNTfqI22Rtw9Z2W2nU20rD/oW0Y2u9kW6vWtpNm6+2bL6yqct0JqnnI6INZVlR76hjSaQLIk5b3OZ+EHHn6a+MU+6X/l1pw79sQ5lOWxHbkogT7i4U1owbEjrsqp+ItGW6Nr8mESfcXUT6w9RPY0HnNYVLok4ithHWlYco0wm5Q5r74Qf72X9mPUKsC+1EZhOAycAWdZK+nu23BaAbKzbZ6m+iq8eVoZhrNOu0rolKlO4uIjwGQqRZJm3QTFMOqnl5RPx5RHhX/RQaMiN8LI0dCFpI2XLadWqZ5FBLa/Oz7efwMBJDfNKuyphHhEf9mv0xj2hPpIn0QTkZNNEBXqaNyaZJpC3r1yy3K63iCcUpRf6RpqyvBZpYnqY9XUGWwbhr9R+aou/YAsHWBGlPX2dysaj6dKEXMWtf1DNQ/lHPpgRN/876tVCmayP8o16Rn/yjXl36CyL/kEX1K+NJ2lE6Gxs2Z/jdFD26lcw4tLnDn0JQOhvb+aM36u/99RBNv7LMZlgpEa76hzTjhIjIN/a1jTTdbdw/HuTSHTTPx8aPf5RGbulRY0/5WotVira6Uq+LDX6nMOqoP22VTnk26laWWbZNRLpm3IgX6RQud8QrifSRtiSHaau0Njf53bGJ340YmfEz1h0cOw/ku6aKaHXTI3ve4jpRdtRPc4m24afwqHfUqRTR3G8S/tGWMl3kG2FNynBtI22gYyT8s5Fo9deY9ydt5Io/mY82x5ue+rpEFYaHHQf+Z0XHXZogyizb3+Rg9dsvornfJPxDR2W8u9Gf3AetX1c5Tco0Gn/2XyH63+qTHwK3/hin9bWRiRnu469sfbPtbjsr2GylS4V6kkpP0SiNOqrMy8rQX1XWYeon6SLCyvk78leYLvSU+TRFlPWRO4f1qgug2lc/mZ+Jv4eoL37b2J343LVrhqIZy37BR8d6ve6RpyTGafhFeBeKIyJd7Itob1lOkwibV06EKe+usbaItviL6tfWtrJ9QaQt6xcsShtEHULEaaif4ipcW6WVNOOV+4oXUqJ04+quecQvt20C+8lH5jESJ7Hp7z/pPRNtfcFXiRaCtrWY/mfBvmAKmp1/nlg0bBWuJ1ekM21dwl8RDLkjn7ZFBRwcN1Bcj1m7WgTozu66+WvrCzkFN4iJqJyQzvP4bsf04ZOA9FLNDbZ4drElc562FCYdarETI/5soDnQL+JUY0THdPxmYrS0OUeKPI4kdWKsdZ2Y4wR7kuPQ5yH7TxcI9Xl9/z022056dlJ3w1H1VCO1WDBxc+nk6nfieJdEv+S5RSKj0J9NMGMkP6OgxxpNPFz6qZIY0bdt/QtHj2naxq2NX3WCxq/cIR426we5fDo7A8gwnI0xzUhjG482D0sN1sj8O5/V0Wp6sQVeFoAjYNF8dtLnsvOAVlzHiCYTTRAhWjxrIumZDGwyGaTeJEt/N0sO08KAjg5m2qvj/qYmLSKH1pP6Grd/kdvc/osC2lbh2tdHMCLcT1yeCyyLjMGeaV2id8b6dnJcn+ymjcnYZXN3nNZN+v57WXnhMDsG0PbymK6miwvpTXOBDVoZiTZnZINR+4a/F6P3b86YjqUCEx3fI2vq0Jq8Y6Jt/CSG2wlSzcqhi4FmtFofqsfyolpGYv4ghv9mpBaYfsTlH4VQ3NznK9ngufgC21ro4oZhvlvVk5g+8qO4eqjd3O5vmqjOk36udDl7ejkNZOOn2qnQTLNr49el1/efgRj1BnZsZtnprdv5eGDnWxOLI9G7xWeJNdOCHnvOP92iO6gjv3O4PpmkgU1OfZ+cctt9LaLdKi0ArBY655wI9fNY3tEJzq8YF6J9mFEuBvOiqo77VXFiMi7j+zbCqi2T9t2jE2XftJgfA6vE/bTQM+366iIE7h4btNOt5ojYF2dQxzpGqyb6KDK3m8KV/9k5hrOJ5C5dG9iTsZRbltuqsJCzjrU7LBOfP2Qsh2hfAqcHN5dMYuYfZNHH+WQcWliMX++9MzaEc6t0BzU/EaAhqzvd07vdHqNvBrWfKT0NAKweJ3D0xoSRJ02fMOPPFgR5PyRci4nby2dZ7D+1NP+VfpVo38xr/9PWH++t3OFX/imvkMjvpGVZ2tLejbTRFm+elPgidjpezWVnyV1Jda1D0ZViUT7zaEt7VmRZZjqWmRRi+/KShqcXl5bLs/lY3t3S1raDSJNyTqxamhdftpPvYmdDyu2IDsoF6VG3d1kWl6tw9Z/pwQ+m/D6qnjLxJ02sT/MMJh372aNKc3S09cfdyGEp+yu30UQdnBtv/+kOuh65lsjdszTmb/8ibT2Pk6FNB3cjR83dlNFMNz2Xat/2/G6u/eVvLuwXf8/U+srFjEalycst1aHKp0WWpS3tsrIMc49fD9qz+cmMZMsvG8p5TPqhrD+Lsxdzsx5tmrb96Ghr2ypKG23x7kbaaIvXJm20xbsbgdONrTlmM8JR/zxGG/UFTj7915i3AjpnSBOhDU2zXczTGIfg8VIO19C19xuKP0JMmc1B7vqVKRWcPYVrbOWF16z50cqz09psGOcDqWilH0BZPOicnhdys9vanhflcPIcZCQ2uyiG8ar33exwLLUxa9Ssfe3hAAdlWYNSH67Rz2N8+OGH6dFHH/UPvcWvJ8jc0Uec/uu//st/HuOP//iP3T84L4brqft5jCa+8JmKTSJNgQOjYd0lcLyU43n6WK8JHCVt84REig45e8Q40qa8Jn+2WmsnZv3pDmLcifG7ifpTaPT3+STPLTIKm1JFgBMnjsFl5KzTHJMhM0ITNU8AWCFO3FCE5dHUGgtEAAAAWF32G1KryVlpBwAsBhsEAAAAAAAAamAoAgAAAADASqP3EEP028FC7yVKSr8mfFinGwxFAAAAAABYacLgk1EoxuOxG4lCRqLCYgvLgaEIAAAAAAArzWAw8C+dSjY3N9PW1la6995704MPPuhy8eLFdM8993h4CYZjNyf+8xgAAAAAAADLsKwhp3g7Ozu+vXLlihuK+skM7etnMmTy/PM//3P6+OOP/ScyRNfjqGeVU//zGAAAAAAAAEeNDMC/+Iu/SA888IDfPdS+7irqbuPW5lZ65JFH0kMPPVTFhkV03lH8h3/4h8oFAAAAAABw8hzkjuIf/dEfpe985zvpL//yL9NoOEq9fs/vJg6HwzTZnaT3f/N++o//+I/00UcfTdOcJ955550D3VHsNBRffvnlygUAAAAAAHDyHMRQ1J3EP//zP0/f/va302g0cj8ZinoEVcbirVu30gcffJBu3rxZpTpfvP322xiKAAAAAACw+ixjKDbjaF/vH8pAlMjc0X68w6hHUc8jBzUUeUcRAAAAAABWFhmCkjAK9bMYMgrjJzJ0d1H+Gxsb+756Ct1gKAIAAAAAwEoTdxVlFOox07iLKJHBuL297WEyJmE5MBQBAAAAAOBUEncLF4mQsRiPnUoCPWqq/TAmYTkwFAEAAAAAYKUJY1Efr5FhKKMw/OKH+BWGsbg8GIoAAAAAALDSlHcW4WjAUAQAAAAAAIAaGIoAAAAAAABQA0MRAAAAAAAAamAoAgAAAAAAQA0MRQAAAAAAAKiBoQgAAAAAAAA1MBQBAAAAAACgBoYiAAAAAAAA1MBQBAAAAAAAgBoYigAAAAAAAFADQxEAAAAAAABqYCgCAAAAAABADQxFAAAAAAAAqIGhCAAAAAAAADUwFAEAAAAAAKAGhiIAAAAAAADUwFAEAAAAAACAGhiKAAAAAAAAUANDEQAAAAAAAGpgKAIAAAAAAEANDEUAAAAAAACogaEIAAAAAAAANTAUAQAAAAAAoAaGIgAAAAAAANTAUAQAAAAAAIAaGIoAAAAAAABQA0MRAAAAAAAAamAoAgAAAAAAQA0MRQAAAAAAAKiBoQgAAAAAAAA1MBQBAAAAAACgBoYiAAAAAAAA1MBQBAAAAAAAgBoYigAAAAAAAFADQxEAAAAAAABqYCgCAAAAAABADQxFAAAAAAAAqIGhCAAAAAAAADUwFAEAAAAAAKAGhiIAAAAAAADUwFAEAAAAAACAGhiKAAAAAAAAUANDEQAAAAAAAGpgKAIAAAAAAEANDEUAAAAAAACogaEIAAAAAAAANTAUAQAAAAAAoAaGIgAAAAAAANTAUAQAAAAAAIAaGIoAAAAAAABQA0MRAAAAAAAAamAoAgAAAAAAQA0MRQAAAAAAAKiBoQgAAAAAAAA1MBQBAAAAAACgBoYiAAAAAAAA1MBQBAAAAAAAgBoYigAAAAAAAFADQxEAAAAAAABqYCgCAAAAAABADQxFAAAAAAAAqIGhCAAAAAAAADUwFAEAAAAAAKAGhiIAAAAAAADUwFAEAAAAAACAGhiKAAAAAAAAUGNtz6jc6d13361cAAAAAAAAcFZ4+umna/ae9ufRaSg+9thjlQsAAAAAAABWmfvvv/9AhiKPngIAAAAAAEANDEUAAAAAAACogaEIAAAAAAAANTAUAQAAAAAAoAaGIgAAAAAAANTAUAQAAAAAAIAaGIoAAAAAAABQA0MRAAAAAAAAamAoAgAAAAAAQA0MRQAAAAAAAKiBoQgAAAAAAAA1MBQBAAAAAACgBoYiAAAAAAAA1MBQBAAAAAAAgBoYigAAAAAAAFADQxEAAAAAAABqYCgCAAAAAABADQxFAAAAAAAAqIGhCAAAAAAAADUwFAEAAAAAAKAGhiIAAAAAAADUwFAEAAAAAACAGhiKAAAAAAAAUANDEQAAAAAAAGpgKAIAAAAAAEANDEUAAAAAAACogaEIAAAAAAAANTAUAQAAAAAAoAaGIgAAAAAAANTAUAQAAAAAAIAaGIoAcK557ycPpAcemC/XfllFXjFy266l96r9Y+fDn6UXC729+PMbVcDdcCP97G9fTD/7sNr7+YtFvu+layrrJyfQwqptR9OmZana97c/My1Ef850sRyH0ZF0PisXAADOJxiKAHCueerHt9KtW++n175vOy+9ZW7tV/Lr19Jz5v2r66u3XJZR8eyr1c5JIEPq8TfS87+e6fOJy5eqwMPz3k8eTVcefz49Y24ZiY/+8In0/F95iBlAz6ZX5DxuvG1X0pvV7ozKoDouY/zDy+mZf7IR+Is30jsfWgmPaDy+md7492XH4+F05Dr/RbUDAADnFgxFAIAuHn4hvf72y9XOaiED+H0ZGSfEjX9/I735fTPoHtbepfTCv9xKV5/0oMNjBtpPX30uvfY3L6RLD99I7/zrm+nlt6+mFx6WAfpUuhoG/nGjcXDrrbR/JFxP14/ToLJ2PvVXz7txeP33T6WnfvBMev5A7T2cjjR23nqp2gEAgHMLhiIAQBu/vJYfOX3yarrmd7BgHtf/e//9tqMh7qBlo+yVfzxNj0PKENMd1KvmOiL8EdfZHcr3/t+V9OZLb2Wj+5evpyu/eDn96Ad3f6d2EZcfObmLDAAAcDrBUAQA2MeN9LN/nD2wd8nvYMVjhpX4+1ulX+PxQzM0p3GbYdX7bv7eWFu8CHdpvpNWPu5YvX9WyXLvz7W1YwG1+jTT5Pz8MddfXEmPepx579HVy59b54fzHbQ3f3jV8nsqveiPYV5JVxe2s66X1vfz5vVPRf391bZHOKtyavoo/Rb3T72Ma+maGYZPvP2M1c8CrY7P/vq19P6PZYZaXt/9VXrt14uNUj2iO8uz6zHSJcdBo+9b+2vu+DCq8Hraqvy70N2+ck3q7xPX8ziRd1kBAM4QGIoAAMGrz1aLyrbFdX6cMj+S93J6619eMJ+Unvk7vTdm+7deTJcr48gX///2TPWuox5ZfCX9dLrQtcVrvO+m8hrxnlX5VsY199Njg2+mKy/NFtOz98cU9530jMfLj5m++cNHF3x4R4vzR9Mb33t/VqaMu3kLaBlU03cPizRT46rQy/fNqPE4r6cX/BHUBr6wv2rtLuv8epVPGznvyO/SD173dK/PvaMm4+DZlN6u6qv3TE3PpaExv39EZfym4p3V6n3VGYrTNB4LP9dRs3/KtlZlyBCs4rz10ivplVdfTs88+VR6SncQn7yablXjLN+97NBrgdr26L8+P80zt6/JkuNAftOx2DHGFo6PYrxPyeXXj7GD6M5oK7cKyiweBwAAMB8MRQCAYPoxm+73uvL7WzLSbCH84Tvp6nevpx/5o4eX0iVfxL+X3nnVTMm/jvs+l9Nl3RX77+vVfvHemMrzu0XiqfSMjC35TY2DS+ny4+6YMn1/zI2y2d2lSz+45nnOezTzxs+vpivptXRtamhVd+lefae+CJ9ii+3vvpKe+6drhYFi9XejqWlcLab+HqPV+fIT9v+v0vUDfcVzPu/9xIyNeFRTPPxC+pHp681/fafSy6L+mekp38mrePhyUm1nlBcOgqbRXPRPs602dt4wQ+nlv4u+Ns3+TdbrO3ON/TnoDqQZmnERI5PbV7L0OFAbirz2j7FlxofGe9OIu0vddZVrx270++JxAAAAi8BQBADYhy1a/27/fZjgqR/L0DNj8fEwEkvqC9bguUcuV667p/39sUvpme+1+c/w9wj9bo3ummZ59Ie619NhrH143UJavl5aGU2lcbUMfkewZsSIJ9Ll6WL/brmRrv/aNtM7w1nyY7HXU67tov7JH81Jj19u1PP0896/vWJGlhmG1X4XBx4HUxpjbOnxsd9YvSu83OfS83/V1UPLjAMAAFgEhiIAQBtPXt1nTMyIr13Ouas2fX/qtPzUQLV4nt41LaXjkcbfX288MljnsMbv9L287+5/6+/uyP3y3D/FI5WlNAz6b7p/KmOqvAPsH675/mvpxc5xdxQcYhwU1D5adEzjYyELyj3QOAAAgE4wFAEA5qJ3neJ9K6H9n6bLejfq7Zdb3gtUuBkgfrdRC9OD/zzB4ch3wp773jMdd8Kqu0Gdj5m28OQz/sjgK//WSNF1J2kB8ZGVnz5SLeCP/KdH8uO78x8vXNQ/1eO+v74+J4+joHoks7iz5+8r7rvjujx+p3nhHbNDjIMp2cicjrEjHh9L4+XO+z3JZcYBAAAsAkMRAGAO/q7T9HG+/MGN9HZ15+XJq/6hjVe+W3zl85fvpFfSc7OvU1bvoh05ZmCUX//c/97Zfi75b/K9kp6tfWlSber6Smm8u/ZsYQxb/JeKn2xYmuqRTksXH6PxRyWPmKf+2kwXGV+1D7MUxv4S/RN51PX7U0tnxscPHzWjrrxwcHg0tqYfW5HchZEopv1btt1/UsO2/hhm7uelx8HCMXaw8VEz3D7Ub2TatjKU53+EqUllCDYu0uhOdXysZuE48PbKQJ/3hV4AgPPN2p5RudO7775buVJ67LHHKhcAwNlFi0t/d2keekzvx8kWmdVXGd3QMGPx99dqj0/qUbfXf5BsAVo8zvj919Jb33sjPevvgCndj9L1xyMf0eV3zcqtPxb5shkVWnzrzlx+p6zA6zh7qK7Zrlw3LfC1WG6WNf+Rw2Z5s7yEFtz1etbDC/SlykJfL7/9VkrfrerSqP9i5rRDj5XWvrSpr9LGI4eN+u7rn5zH/ja/lp744ZX0q2nb9rf75bffT1ssdjAAAANGSURBVJf/cX+fvXi90V/e1stWxuvmP2vBlAProqCh4/TSa9amK+nK480854+DGz+/lt6x7ZWyfh31mj8+Kpp9Ynp/zfavTO+itumzS3dVTzbKjeNjytxxMGv/vnQAAGeU+++/v2bvPf3005WrHQxFAIAVwxfI+gmEu7wDBd8kZqj87fX0YrMPK+PmCYwXAAA4Yg5qKPLoKQAAwImiu2fPpl+1vU/qH7l5Ll3+39U+AADANwSGIgAAwDfAmz+82ng/rjIga78PCAAA8M2AoQgAsDLIkKh+8676CMgDtY91wGqgH5fXj9C/ma48nr94muVqSq/ean+/EwAA4IThHUUAAAAAAIAzDu8oAgAAAAAAwF2BoQgAAAAAAAA1MBQBAAAAAACgBoYiAAAAAAAA1MBQBAAAAAAAgBoYigAAAAAAAFADQxEAAAAAAABqYCgCAAAAAABADQxFAAAAAAAAqIGhCAAAAAAAADUwFAEAAAAAAKAGhiIAAAAAAADUwFAEAAAAAACAGhiKAAAAAAAAUANDEQAAAAAAAGpgKAIAAAAAAEANDEUAAAAAAACogaEIAAAAAAAANTAUAQAAAAAAoEbNUFxbW6tcAAAAAAAAcFbY29urXMvZfTVDcX19vXJhNAIAAAAAAJwVtre3K1fd7uuiZijee++9lSul4XBYuQAAAAAAAGCV+eyzzypX3e7romYoPvDAA5UrpY8++qhyAQAAAAAAwCpz48aNylW3+7qoGYoPPfRQ2tjYcPfXX3+dbt++7W4AAAAAAABYTWTXxROjsvdk9y2iZiiKP/3TP61cKX3wwQcYiwAAAAAAACuK7DnZdUFp781jba/8/E3Fb3/729qtSVmdly5dSg8++GDa2triQzcAAAAAAACnEJl3+nCN3kmUTVd+e0Y23Z/92Z9Ve/NpNRRF01gEAAAAAACA1eQgRqLoNBTFJ598kn73u9/xBVQAAAAAAIAVRE+H6nHTZd5LLJlrKAYyGG/dupW++uqrNBqNaj/WCAAAAAAAAKcDvSao30nUT2Do66YHNRCDpQxFAAAAAAAAOD/s++opAAAAAAAAnG8wFAEAAAAAAKAGhiIAAAAAAADUwFAEAAAAAACAgpT+P5onAJfYYjBOAAAAAElFTkSuQmCC;" vertex="1" parent="1">
                    <mxGeometry x="230" y="330" width="507.58" height="186" as="geometry"/>
                </mxCell>
                <mxCell id="6" value="Without Debouncing" style="text;html=1;strokeColor=none;fillColor=none;align=center;verticalAlign=middle;whiteSpace=wrap;rounded=0;" vertex="1" parent="1">
                    <mxGeometry x="320" y="140" width="130" height="30" as="geometry"/>
                </mxCell>
                <mxCell id="7" value="Awesome --&amp;gt; 1 Requests&amp;nbsp;" style="text;html=1;strokeColor=none;fillColor=none;align=center;verticalAlign=middle;whiteSpace=wrap;rounded=0;" vertex="1" parent="1">
                    <mxGeometry x="460" y="190" width="150" height="30" as="geometry"/>
                </mxCell>
                <mxCell id="8" value="With Debouncing" style="text;html=1;strokeColor=none;fillColor=none;align=center;verticalAlign=middle;whiteSpace=wrap;rounded=0;" vertex="1" parent="1">
                    <mxGeometry x="310" y="190" width="130" height="30" as="geometry"/>
                </mxCell>
                <mxCell id="11" value="For each change wait 500 ms, if no extra change happens, send a request&amp;nbsp;" style="text;html=1;strokeColor=none;fillColor=none;align=center;verticalAlign=middle;whiteSpace=wrap;rounded=0;" vertex="1" parent="1">
                    <mxGeometry x="335" y="280" width="275" height="30" as="geometry"/>
                </mxCell>
            </root>
        </mxGraphModel>
    </diagram>
</mxfile>